<svg width="640" height="300" viewBox="0 0 640 300" xmlns="http://www.w3.org/2000/svg" font-family="Segoe UI, Arial, sans-serif">
<defs>
  <linearGradient id="ghBody" x1="0" y1="0" x2="0" y2="1">
    <stop offset="0%" stop-color="#F0F0F0"/>
    <stop offset="100%" stop-color="#D8D8D8"/>
  </linearGradient>
  <pattern id="dg" width="18" height="18" patternUnits="userSpaceOnUse">
    <circle cx="1" cy="1" r="1" fill="#E0E0DA"/>
  </pattern>
</defs>
<rect x="0" y="0" width="640" height="300" fill="#FAFAF7"/><rect x="0" y="0" width="640" height="300" fill="url(#dg)"/>
<rect x="20" y="30" width="290" height="240" fill="#FFFFFF" stroke="#B0B0B0"/>
<text x="28" y="48" font-family="Consolas, monospace" font-size="11" fill="#555">Mesh thô (facet)</text>
<path d="M 242,150 L 228,213 L 165,216 L 114,201 L 75,150 L 116,101 L 165,81 L 229,86 Z" fill="#C2C2B8" stroke="#222" stroke-width="1.3"/>
<line x1="165" y1="150" x2="242" y2="150" stroke="#222" stroke-width="0.8"/>
<line x1="165" y1="150" x2="228" y2="213" stroke="#222" stroke-width="0.8"/>
<line x1="165" y1="150" x2="165" y2="216" stroke="#222" stroke-width="0.8"/>
<line x1="165" y1="150" x2="114" y2="201" stroke="#222" stroke-width="0.8"/>
<line x1="165" y1="150" x2="75" y2="150" stroke="#222" stroke-width="0.8"/>
<line x1="165" y1="150" x2="116" y2="101" stroke="#222" stroke-width="0.8"/>
<line x1="165" y1="150" x2="165" y2="81" stroke="#222" stroke-width="0.8"/>
<line x1="165" y1="150" x2="229" y2="86" stroke="#222" stroke-width="0.8"/>
<rect x="330" y="30" width="290" height="240" fill="#FFFFFF" stroke="#B0B0B0"/>
<text x="338" y="48" font-family="Consolas, monospace" font-size="11" fill="#555">Sau Weaverbird (Catmull-Clark)</text>
<circle cx="475" cy="150" r="90" fill="#C2C2B8" stroke="#222" stroke-width="1.3"/>
<line x1="475" y1="150" x2="565" y2="150" stroke="#B0B0B0" stroke-width="0.5" opacity="0.5"/>
<line x1="475" y1="150" x2="558" y2="184" stroke="#B0B0B0" stroke-width="0.5" opacity="0.5"/>
<line x1="475" y1="150" x2="539" y2="214" stroke="#B0B0B0" stroke-width="0.5" opacity="0.5"/>
<line x1="475" y1="150" x2="509" y2="233" stroke="#B0B0B0" stroke-width="0.5" opacity="0.5"/>
<line x1="475" y1="150" x2="475" y2="240" stroke="#B0B0B0" stroke-width="0.5" opacity="0.5"/>
<line x1="475" y1="150" x2="441" y2="233" stroke="#B0B0B0" stroke-width="0.5" opacity="0.5"/>
<line x1="475" y1="150" x2="411" y2="214" stroke="#B0B0B0" stroke-width="0.5" opacity="0.5"/>
<line x1="475" y1="150" x2="392" y2="184" stroke="#B0B0B0" stroke-width="0.5" opacity="0.5"/>
<line x1="475" y1="150" x2="385" y2="150" stroke="#B0B0B0" stroke-width="0.5" opacity="0.5"/>
<line x1="475" y1="150" x2="392" y2="116" stroke="#B0B0B0" stroke-width="0.5" opacity="0.5"/>
<line x1="475" y1="150" x2="411" y2="86" stroke="#B0B0B0" stroke-width="0.5" opacity="0.5"/>
<line x1="475" y1="150" x2="441" y2="67" stroke="#B0B0B0" stroke-width="0.5" opacity="0.5"/>
<line x1="475" y1="150" x2="475" y2="60" stroke="#B0B0B0" stroke-width="0.5" opacity="0.5"/>
<line x1="475" y1="150" x2="509" y2="67" stroke="#B0B0B0" stroke-width="0.5" opacity="0.5"/>
<line x1="475" y1="150" x2="539" y2="86" stroke="#B0B0B0" stroke-width="0.5" opacity="0.5"/>
<line x1="475" y1="150" x2="558" y2="116" stroke="#B0B0B0" stroke-width="0.5" opacity="0.5"/>
<text x="30" y="280" font-size="10" fill="#888">Lặp thuật toán chia mượt nhiều lần → mesh gần giống mặt NURBS</text>
</svg>