<svg width="640" height="300" viewBox="0 0 640 300" xmlns="http://www.w3.org/2000/svg" font-family="Segoe UI, Arial, sans-serif">
<defs>
  <linearGradient id="ghBody" x1="0" y1="0" x2="0" y2="1">
    <stop offset="0%" stop-color="#F0F0F0"/>
    <stop offset="100%" stop-color="#D8D8D8"/>
  </linearGradient>
  <pattern id="dg" width="18" height="18" patternUnits="userSpaceOnUse">
    <circle cx="1" cy="1" r="1" fill="#E0E0DA"/>
  </pattern>
</defs>
<rect x="0" y="0" width="640" height="300" fill="#FAFAF7"/><rect x="0" y="0" width="640" height="300" fill="url(#dg)"/>
<text x="30" y="34" font-size="13" font-weight="700" fill="#222">Data Tree — nhánh (branch) chứa danh sách phần tử (item)</text>
<rect x="40" y="70" width="34" height="26" rx="4" fill="#E8F200" stroke="#8C9400"/>
<text x="57" y="88" text-anchor="middle" font-size="10.5" font-weight="700" fill="#3a3d00">{0;0}</text>
<path d="M 57,96 C 57,106 57,106 57,116" stroke="#B0B0B0" stroke-width="1.2" fill="none"/>
<rect x="37" y="103" width="40" height="26" rx="4" fill="#F0F0F0" stroke="#8C8C8C"/>
<text x="57" y="120" text-anchor="middle" font-size="11" fill="#222">A</text>

<rect x="37" y="149" width="40" height="26" rx="4" fill="#F0F0F0" stroke="#8C8C8C"/>
<text x="57" y="166" text-anchor="middle" font-size="11" fill="#222">B</text>
<rect x="130" y="70" width="34" height="26" rx="4" fill="#E8F200" stroke="#8C9400"/>
<text x="147" y="88" text-anchor="middle" font-size="10.5" font-weight="700" fill="#3a3d00">{0;1}</text>
<path d="M 147,96 C 147,106 147,106 147,116" stroke="#B0B0B0" stroke-width="1.2" fill="none"/>
<rect x="127" y="103" width="40" height="26" rx="4" fill="#F0F0F0" stroke="#8C8C8C"/>
<text x="147" y="120" text-anchor="middle" font-size="11" fill="#222">C</text>

<rect x="127" y="149" width="40" height="26" rx="4" fill="#F0F0F0" stroke="#8C8C8C"/>
<text x="147" y="166" text-anchor="middle" font-size="11" fill="#222">D</text>

<rect x="127" y="195" width="40" height="26" rx="4" fill="#F0F0F0" stroke="#8C8C8C"/>
<text x="147" y="212" text-anchor="middle" font-size="11" fill="#222">E</text>
<rect x="220" y="70" width="34" height="26" rx="4" fill="#E8F200" stroke="#8C9400"/>
<text x="237" y="88" text-anchor="middle" font-size="10.5" font-weight="700" fill="#3a3d00">{1;0}</text>
<path d="M 237,96 C 237,106 237,106 237,116" stroke="#B0B0B0" stroke-width="1.2" fill="none"/>
<rect x="217" y="103" width="40" height="26" rx="4" fill="#F0F0F0" stroke="#8C8C8C"/>
<text x="237" y="120" text-anchor="middle" font-size="11" fill="#222">F</text>
<text x="40" y="270" font-size="11" fill="#555">Flatten → gộp hết về 1 nhánh &#160;&#160;|&#160;&#160; Graft → mỗi item ra 1 nhánh riêng</text>
</svg>