<svg width="720" height="300" viewBox="0 0 720 300" xmlns="http://www.w3.org/2000/svg" font-family="Segoe UI, Arial, sans-serif">
<defs>
  <linearGradient id="ghBody" x1="0" y1="0" x2="0" y2="1">
    <stop offset="0%" stop-color="#F0F0F0"/>
    <stop offset="100%" stop-color="#D8D8D8"/>
  </linearGradient>
  <pattern id="dg" width="18" height="18" patternUnits="userSpaceOnUse">
    <circle cx="1" cy="1" r="1" fill="#E0E0DA"/>
  </pattern>
</defs>
<rect x="0" y="0" width="720" height="300" fill="#FAFAF7"/><rect x="0" y="0" width="720" height="300" fill="url(#dg)"/>
<rect x="30" y="40" width="220" height="220" fill="#fff" stroke="#8C8C8C" stroke-width="1.2" rx="4"/>
<text x="140.0" y="30" text-anchor="middle" font-size="12" font-weight="700" fill="#222">Graph Mapper</text>
<path d="M 30,260 L 35.5,260.0 L 41.0,259.8 L 46.5,259.6 L 52.0,259.1 L 57.5,258.5 L 63.0,257.7 L 68.5,256.6 L 74.0,255.4 L 79.5,253.9 L 85.0,252.1 L 90.5,250.1 L 96.0,247.8 L 101.5,245.2 L 107.0,242.3 L 112.5,239.1 L 118.0,235.6 L 123.5,231.8 L 129.0,227.6 L 134.5,223.1 L 140.0,218.3 L 145.5,213.1 L 151.0,207.6 L 156.5,201.7 L 162.0,195.4 L 167.5,188.8 L 173.0,181.8 L 178.5,174.3 L 184.0,166.5 L 189.5,158.3 L 195.0,149.7 L 200.5,140.7 L 206.0,131.2 L 211.5,121.4 L 217.0,111.1 L 222.5,100.3 L 228.0,89.2 L 233.5,77.5 L 239.0,65.5 L 244.5,53.0 L 250.0,40.0 " fill="none" stroke="#4A90D9" stroke-width="2"/>
<line x1="30" y1="260" x2="250" y2="260" stroke="#B0B0B0"/>
<line x1="30" y1="40" x2="30" y2="260" stroke="#B0B0B0"/>
<text x="140.0" y="276" text-anchor="middle" font-size="9.5" fill="#666">input 0→1</text>
<rect x="320" y="20" width="370" height="260" fill="#FFFFFF" stroke="#B0B0B0"/>
<text x="328" y="38" font-family="Consolas, monospace" font-size="11" fill="#555">Perspective</text>
<circle cx="350" cy="220" r="8.0" fill="#C2C2B8" stroke="#222" stroke-width="1"/>
<circle cx="396" cy="220" r="8.5" fill="#C2C2B8" stroke="#222" stroke-width="1"/>
<circle cx="442" cy="220" r="10.7" fill="#C2C2B8" stroke="#222" stroke-width="1"/>
<circle cx="488" cy="220" r="15.2" fill="#C2C2B8" stroke="#222" stroke-width="1"/>
<circle cx="534" cy="220" r="22.4" fill="#C2C2B8" stroke="#222" stroke-width="1"/>
<circle cx="580" cy="220" r="32.5" fill="#C2C2B8" stroke="#222" stroke-width="1"/>
<circle cx="626" cy="220" r="46.0" fill="#C2C2B8" stroke="#222" stroke-width="1"/>
<text x="330" y="270" font-size="10" fill="#888">Scale theo đường cong Graph Mapper (phi tuyến, không đều)</text>
</svg>