<svg width="720" height="340" viewBox="0 0 720 340" xmlns="http://www.w3.org/2000/svg" font-family="Segoe UI, Arial, sans-serif"><defs><linearGradient id="ghBody" x1="0" y1="0" x2="0" y2="1"><stop offset="0%" stop-color="#F0F0F0"/><stop offset="100%" stop-color="#D8D8D8"/></linearGradient><pattern id="dg" width="18" height="18" patternUnits="userSpaceOnUse"><circle cx="1" cy="1" r="1" fill="#E0E0DA"/></pattern></defs><rect x="0" y="0" width="720" height="340" fill="#FAFAF7"/><rect x="0" y="0" width="720" height="340" fill="url(#dg)"/><rect x="20" y="150" width="130" height="30" rx="4" fill="#F0F0F0" stroke="#8C8C8C"/><rect x="26" y="160.5" width="90" height="7" rx="2.5" fill="#E4E4E4" stroke="#B0B0B0"/><circle cx="71" cy="164" r="3.5" fill="#8C8C8C"/><text x="144" y="169" text-anchor="end" font-size="9.5" fill="#333">input</text><rect x="210" y="110" width="190" height="100" rx="7" fill="url(#ghBody)" stroke="#8C8C8C" stroke-width="1.3"/><rect x="201" y="152.0" width="11" height="16" rx="3" fill="#E8E8E8" stroke="#8C8C8C"/><circle cx="206.5" cy="160.0" r="2.8" fill="#4A4A4A"/><rect x="398" y="152.0" width="11" height="16" rx="3" fill="#E8E8E8" stroke="#8C8C8C"/><circle cx="403.5" cy="160.0" r="2.8" fill="#4A4A4A"/><path d="M 150,165 C 180,165 180,160.0 201,160.0" stroke="#4A4A4A" stroke-width="1.4" fill="none"/><text x="305.0" y="165.0" text-anchor="middle" font-family="Segoe UI, sans-serif" font-size="15" font-weight="700" fill="#222">End Points</text><rect x="440" y="30" width="260" height="240" fill="#FFFFFF" stroke="#B0B0B0"/><text x="448" y="46" font-family="Consolas, monospace" font-size="10" fill="#555">Perspective</text><path d="M 500,178 L 550,128 L 600,168 L 645,138" fill="none" stroke="#B0B0B0" stroke-width="1.2" stroke-dasharray="3,2"/>
<circle cx="500" cy="178" r="4.5" fill="#c0392b"/>
<circle cx="550" cy="128" r="4.5" fill="#c0392b"/>
<circle cx="600" cy="168" r="4.5" fill="#c0392b"/>
<circle cx="645" cy="138" r="4.5" fill="#c0392b"/><defs><marker id="arrowc" markerWidth="8" markerHeight="8" refX="4" refY="4" orient="auto"><path d="M0,0 L8,4 L0,8 Z" fill="#4A90D9"/></marker></defs><path d="M 403,160.0 C 420.0,160.0 420.0,150.0 440,150.0" stroke="#4A4A4A" stroke-width="1.4" fill="none"/><text x="360.0" y="300" text-anchor="middle" font-size="12" fill="#555">Lấy điểm đầu/cuối của đường</text></svg>