<svg width="640" height="260" viewBox="0 0 640 260" xmlns="http://www.w3.org/2000/svg" font-family="Segoe UI, Arial, sans-serif">
<defs>
  <linearGradient id="ghBody" x1="0" y1="0" x2="0" y2="1">
    <stop offset="0%" stop-color="#F0F0F0"/>
    <stop offset="100%" stop-color="#D8D8D8"/>
  </linearGradient>
  <pattern id="dg" width="18" height="18" patternUnits="userSpaceOnUse">
    <circle cx="1" cy="1" r="1" fill="#E0E0DA"/>
  </pattern>
</defs>
<rect x="0" y="0" width="640" height="260" fill="#FAFAF7"/><rect x="0" y="0" width="640" height="260" fill="url(#dg)"/>
<text x="150" y="36" text-anchor="middle" font-size="13" font-weight="700" fill="#222">Trừ vật liệu (Subtractive)</text>
<rect x="60" y="60" width="180" height="110" fill="#D8D8D0" stroke="#8C8C8C" stroke-width="1.3"/>
<path d="M 100,60 L 130,110 L 170,90 L 200,140 L 240,110 L 240,170 L 60,170 L 60,60 Z" fill="#FAFAF7" stroke="#8C8C8C" stroke-dasharray="3,2"/>
<text x="150" y="195" text-anchor="middle" font-size="10" fill="#888">Phay CNC cắt bỏ phần thừa khỏi khối đặc</text>
<text x="480" y="36" text-anchor="middle" font-size="13" font-weight="700" fill="#222">Đắp vật liệu (Additive / in 3D)</text>
<rect x="450.0" y="160" width="60" height="16" fill="#C2C2B8" stroke="#222" stroke-width="0.8"/>
<rect x="446.0" y="142" width="68" height="16" fill="#C2C2B8" stroke="#222" stroke-width="0.8"/>
<rect x="442.0" y="124" width="76" height="16" fill="#C2C2B8" stroke="#222" stroke-width="0.8"/>
<rect x="438.0" y="106" width="84" height="16" fill="#C2C2B8" stroke="#222" stroke-width="0.8"/>
<rect x="434.0" y="88" width="92" height="16" fill="#C2C2B8" stroke="#222" stroke-width="0.8"/>
<rect x="430.0" y="70" width="100" height="16" fill="#C2C2B8" stroke="#222" stroke-width="0.8"/>
<text x="480" y="195" text-anchor="middle" font-size="10" fill="#888">Đùn/đóng rắn vật liệu theo từng lớp (FDM/SLA/SLS)</text>
</svg>