<svg width="720" height="260" viewBox="0 0 720 260" xmlns="http://www.w3.org/2000/svg" font-family="Segoe UI, Arial, sans-serif">
<defs>
  <linearGradient id="ghBody" x1="0" y1="0" x2="0" y2="1">
    <stop offset="0%" stop-color="#F0F0F0"/>
    <stop offset="100%" stop-color="#D8D8D8"/>
  </linearGradient>
  <pattern id="dg" width="18" height="18" patternUnits="userSpaceOnUse">
    <circle cx="1" cy="1" r="1" fill="#E0E0DA"/>
  </pattern>
</defs>
<rect x="0" y="0" width="720" height="260" fill="#FAFAF7"/><rect x="0" y="0" width="720" height="260" fill="url(#dg)"/>
<g transform="translate(0,0)">
<path d="M 40,120 L 240,120 L 240,180 L 40,180 Z" fill="#C2C2B8" stroke="#222" stroke-width="1.3"/>
<text x="140" y="220" text-anchor="middle" font-size="10" fill="#555">Bước 0: khối đặc ban đầu</text>
</g>
<path d="M 285,150 L 310,150" stroke="#4A90D9" stroke-width="1.6" marker-end="url(#arrow2)"/>
<g transform="translate(250,0)">
<path d="M 40,120 L 240,120 L 240,180 L 190,180 L 190,150 L 90,150 L 90,180 L 40,180 Z" fill="#C2C2B8" stroke="#222" stroke-width="1.3"/>
<text x="140" y="220" text-anchor="middle" font-size="10" fill="#555">Bước N: loại dần vùng ứng suất thấp (ESO)</text>
</g>
<path d="M 535,150 L 560,150" stroke="#4A90D9" stroke-width="1.6" marker-end="url(#arrow2)"/>
<g transform="translate(500,0)">
<path d="M 40,170 L 90,120 L 130,155 L 160,120 L 240,170 L 240,180 L 40,180 Z" fill="#C2C2B8" stroke="#222" stroke-width="1.3"/>
<text x="140" y="220" text-anchor="middle" font-size="10" fill="#555">Kết quả: dạng "xương" tối ưu</text>
</g>
<defs><marker id="arrow2" markerWidth="8" markerHeight="8" refX="4" refY="4" orient="auto"><path d="M0,0 L8,4 L0,8 Z" fill="#4A90D9"/></marker></defs>
</svg>