<svg width="720" height="280" viewBox="0 0 720 280" xmlns="http://www.w3.org/2000/svg" font-family="Segoe UI, Arial, sans-serif">
<defs>
  <linearGradient id="ghBody" x1="0" y1="0" x2="0" y2="1">
    <stop offset="0%" stop-color="#F0F0F0"/>
    <stop offset="100%" stop-color="#D8D8D8"/>
  </linearGradient>
  <pattern id="dg" width="18" height="18" patternUnits="userSpaceOnUse">
    <circle cx="1" cy="1" r="1" fill="#E0E0DA"/>
  </pattern>
</defs>
<rect x="0" y="0" width="720" height="280" fill="#FAFAF7"/><rect x="0" y="0" width="720" height="280" fill="url(#dg)"/>
<path d="M 130.0,69.2 L 60.0,190.4 L 200.0,190.4 L 130.0,69.2 Z" fill="none" stroke="#222" stroke-width="1.4"/>
<text x="130" y="250" text-anchor="middle" font-size="11" fill="#555">Lặp 0 lần (HoopSnake)</text>
<path d="M 360.0,69.2 L 336.7,109.6 L 360.0,150.0 L 313.3,150.0 L 290.0,190.4 L 336.7,190.4 L 360.0,150.0 L 383.3,190.4 L 430.0,190.4 L 406.7,150.0 L 360.0,150.0 L 383.3,109.6 L 360.0,69.2 Z" fill="none" stroke="#222" stroke-width="1.4"/>
<text x="360" y="250" text-anchor="middle" font-size="11" fill="#555">Lặp 1 lần (HoopSnake)</text>
<path d="M 590.0,69.2 L 587.4,73.7 L 590.0,78.2 L 584.8,78.2 L 582.2,82.6 L 584.8,87.1 L 590.0,87.1 L 587.4,91.6 L 590.0,96.1 L 584.8,96.1 L 582.2,100.6 L 579.6,96.1 L 574.4,96.1 L 571.9,100.6 L 574.4,105.1 L 569.3,105.1 L 566.7,109.6 L 569.3,114.1 L 574.4,114.1 L 571.9,118.6 L 574.4,123.1 L 579.6,123.1 L 582.2,118.6 L 584.8,123.1 L 590.0,123.1 L 587.4,127.5 L 590.0,132.0 L 584.8,132.0 L 582.2,136.5 L 584.8,141.0 L 590.0,141.0 L 587.4,145.5 L 590.0,150.0 L 584.8,150.0 L 582.2,154.5 L 579.6,150.0 L 574.4,150.0 L 571.9,154.5 L 574.4,159.0 L 569.3,159.0 L 566.7,163.5 L 564.1,159.0 L 558.9,159.0 L 561.5,154.5 L 558.9,150.0 L 553.7,150.0 L 551.1,154.5 L 548.5,150.0 L 543.3,150.0 L 540.7,154.5 L 543.3,159.0 L 538.1,159.0 L 535.6,163.5 L 538.1,168.0 L 543.3,168.0 L 540.7,172.5 L 543.3,176.9 L 538.1,176.9 L 535.6,181.4 L 533.0,176.9 L 527.8,176.9 L 525.2,181.4 L 527.8,185.9 L 522.6,185.9 L 520.0,190.4 L 525.2,190.4 L 527.8,185.9 L 530.4,190.4 L 535.6,190.4 L 538.1,185.9 L 535.6,181.4 L 540.7,181.4 L 543.3,176.9 L 545.9,181.4 L 551.1,181.4 L 548.5,185.9 L 551.1,190.4 L 556.3,190.4 L 558.9,185.9 L 561.5,190.4 L 566.7,190.4 L 569.3,185.9 L 566.7,181.4 L 571.9,181.4 L 574.4,176.9 L 571.9,172.5 L 566.7,172.5 L 569.3,168.0 L 566.7,163.5 L 571.9,163.5 L 574.4,159.0 L 577.0,163.5 L 582.2,163.5 L 584.8,159.0 L 582.2,154.5 L 587.4,154.5 L 590.0,150.0 L 592.6,154.5 L 597.8,154.5 L 595.2,159.0 L 597.8,163.5 L 603.0,163.5 L 605.6,159.0 L 608.1,163.5 L 613.3,163.5 L 610.7,168.0 L 613.3,172.5 L 608.1,172.5 L 605.6,176.9 L 608.1,181.4 L 613.3,181.4 L 610.7,185.9 L 613.3,190.4 L 618.5,190.4 L 621.1,185.9 L 623.7,190.4 L 628.9,190.4 L 631.5,185.9 L 628.9,181.4 L 634.1,181.4 L 636.7,176.9 L 639.3,181.4 L 644.4,181.4 L 641.9,185.9 L 644.4,190.4 L 649.6,190.4 L 652.2,185.9 L 654.8,190.4 L 660.0,190.4 L 657.4,185.9 L 652.2,185.9 L 654.8,181.4 L 652.2,176.9 L 647.0,176.9 L 644.4,181.4 L 641.9,176.9 L 636.7,176.9 L 639.3,172.5 L 636.7,168.0 L 641.9,168.0 L 644.4,163.5 L 641.9,159.0 L 636.7,159.0 L 639.3,154.5 L 636.7,150.0 L 631.5,150.0 L 628.9,154.5 L 626.3,150.0 L 621.1,150.0 L 618.5,154.5 L 621.1,159.0 L 615.9,159.0 L 613.3,163.5 L 610.7,159.0 L 605.6,159.0 L 608.1,154.5 L 605.6,150.0 L 600.4,150.0 L 597.8,154.5 L 595.2,150.0 L 590.0,150.0 L 592.6,145.5 L 590.0,141.0 L 595.2,141.0 L 597.8,136.5 L 595.2,132.0 L 590.0,132.0 L 592.6,127.5 L 590.0,123.1 L 595.2,123.1 L 597.8,118.6 L 600.4,123.1 L 605.6,123.1 L 608.1,118.6 L 605.6,114.1 L 610.7,114.1 L 613.3,109.6 L 610.7,105.1 L 605.6,105.1 L 608.1,100.6 L 605.6,96.1 L 600.4,96.1 L 597.8,100.6 L 595.2,96.1 L 590.0,96.1 L 592.6,91.6 L 590.0,87.1 L 595.2,87.1 L 597.8,82.6 L 595.2,78.2 L 590.0,78.2 L 592.6,73.7 L 590.0,69.2 Z" fill="none" stroke="#222" stroke-width="1.4"/>
<text x="590" y="250" text-anchor="middle" font-size="11" fill="#555">Lặp 3 lần (HoopSnake)</text>
</svg>