<svg width="640" height="300" viewBox="0 0 640 300" xmlns="http://www.w3.org/2000/svg" font-family="Segoe UI, Arial, sans-serif">
<defs>
  <linearGradient id="ghBody" x1="0" y1="0" x2="0" y2="1">
    <stop offset="0%" stop-color="#F0F0F0"/>
    <stop offset="100%" stop-color="#D8D8D8"/>
  </linearGradient>
  <pattern id="dg" width="18" height="18" patternUnits="userSpaceOnUse">
    <circle cx="1" cy="1" r="1" fill="#E0E0DA"/>
  </pattern>
</defs>
<rect x="0" y="0" width="640" height="300" fill="#FAFAF7"/><rect x="0" y="0" width="640" height="300" fill="url(#dg)"/>
<rect x="20" y="20" width="600" height="260" fill="#FFFFFF" stroke="#B0B0B0"/>
<text x="28" y="38" font-family="Consolas, monospace" font-size="11" fill="#555">Front</text>
<circle cx="560" cy="50" r="14" fill="#F5C518" stroke="#C99A00"/>
<text x="560" y="30" text-anchor="middle" font-size="10" fill="#888">Mặt trời</text>
<rect x="70" y="200" width="60" height="60" fill="#EDEDE6" stroke="#8C8C8C" stroke-width="1"/>
<rect x="97.0" y="227.0" width="6" height="6" fill="#FAFAF7" stroke="#4A90D9" stroke-width="1"/>
<line x1="560" y1="50" x2="100" y2="230" stroke="#F5C518" stroke-width="0.8" opacity="0.7"/>
<rect x="150" y="200" width="60" height="60" fill="#EDEDE6" stroke="#8C8C8C" stroke-width="1"/>
<rect x="174.8" y="224.8" width="10" height="10" fill="#FAFAF7" stroke="#4A90D9" stroke-width="1"/>
<line x1="560" y1="50" x2="180" y2="230" stroke="#F5C518" stroke-width="0.8" opacity="0.7"/>
<rect x="230" y="200" width="60" height="60" fill="#EDEDE6" stroke="#8C8C8C" stroke-width="1"/>
<rect x="252.6" y="222.6" width="15" height="15" fill="#FAFAF7" stroke="#4A90D9" stroke-width="1"/>
<line x1="560" y1="50" x2="260" y2="230" stroke="#F5C518" stroke-width="0.8" opacity="0.7"/>
<rect x="310" y="200" width="60" height="60" fill="#EDEDE6" stroke="#8C8C8C" stroke-width="1"/>
<rect x="330.4" y="220.4" width="19" height="19" fill="#FAFAF7" stroke="#4A90D9" stroke-width="1"/>
<line x1="560" y1="50" x2="340" y2="230" stroke="#F5C518" stroke-width="0.8" opacity="0.7"/>
<rect x="390" y="200" width="60" height="60" fill="#EDEDE6" stroke="#8C8C8C" stroke-width="1"/>
<rect x="408.2" y="218.2" width="24" height="24" fill="#FAFAF7" stroke="#4A90D9" stroke-width="1"/>
<line x1="560" y1="50" x2="420" y2="230" stroke="#F5C518" stroke-width="0.8" opacity="0.7"/>
<rect x="470" y="200" width="60" height="60" fill="#EDEDE6" stroke="#8C8C8C" stroke-width="1"/>
<rect x="486.0" y="216.0" width="28" height="28" fill="#FAFAF7" stroke="#4A90D9" stroke-width="1"/>
<line x1="560" y1="50" x2="500" y2="230" stroke="#F5C518" stroke-width="0.8" opacity="0.7"/>
<text x="30" y="280" font-size="10" fill="#888">Góc nắng càng thẳng (gần) → lỗ mở càng nhỏ lại (GECO tính góc tia nắng ↔ pháp tuyến)</text>
</svg>