<svg width="640" height="320" viewBox="0 0 640 320" xmlns="http://www.w3.org/2000/svg" font-family="Segoe UI, Arial, sans-serif">
<defs>
  <linearGradient id="ghBody" x1="0" y1="0" x2="0" y2="1">
    <stop offset="0%" stop-color="#F0F0F0"/>
    <stop offset="100%" stop-color="#D8D8D8"/>
  </linearGradient>
  <pattern id="dg" width="18" height="18" patternUnits="userSpaceOnUse">
    <circle cx="1" cy="1" r="1" fill="#E0E0DA"/>
  </pattern>
</defs>
<rect x="0" y="0" width="640" height="320" fill="#FAFAF7"/><rect x="0" y="0" width="640" height="320" fill="url(#dg)"/>
<rect x="20" y="20" width="600" height="280" fill="#FFFFFF" stroke="#B0B0B0"/>
<text x="28" y="38" font-family="Consolas, monospace" font-size="11" fill="#555">Right</text>
<path d="M 80,220 C 180,80 380,300 560,100" fill="none" stroke="#222" stroke-width="2"/>
<path d="M 80,220 L 180,80 L 380,300 L 560,100" fill="none" stroke="#B0B0B0" stroke-width="1" stroke-dasharray="4,3"/>
<circle cx="80" cy="220" r="4.5" fill="#4A90D9" stroke="#fff" stroke-width="1"/>
<text x="80" y="210" text-anchor="middle" font-size="10" fill="#4A90D9">P0</text>
<circle cx="180" cy="80" r="4.5" fill="#4A90D9" stroke="#fff" stroke-width="1"/>
<text x="180" y="70" text-anchor="middle" font-size="10" fill="#4A90D9">P1</text>
<circle cx="380" cy="300" r="4.5" fill="#4A90D9" stroke="#fff" stroke-width="1"/>
<text x="380" y="290" text-anchor="middle" font-size="10" fill="#4A90D9">P2</text>
<circle cx="560" cy="100" r="4.5" fill="#4A90D9" stroke="#fff" stroke-width="1"/>
<text x="560" y="90" text-anchor="middle" font-size="10" fill="#4A90D9">P3</text>
<circle cx="300" cy="145" r="45" fill="none" stroke="#c0392b" stroke-width="1.3" stroke-dasharray="3,3"/>
<circle cx="300" cy="190" r="3" fill="#c0392b"/>
<text x="352" y="145" font-size="10" fill="#c0392b">đường tròn mật tiếp</text>
<text x="352" y="159" font-size="10" fill="#c0392b">(bán kính = độ cong tại điểm)</text>
<text x="20" y="310" font-size="11" fill="#333">Control Points (điểm điều khiển) định hình đường NURBS</text>
</svg>