<svg xmlns="http://www.w3.org/2000/svg" width="1180" height="260" viewBox="0 0 1180 260" font-family="Segoe UI, sans-serif">
<defs>
<linearGradient id="ghBody" x1="0" y1="0" x2="0" y2="1">
<stop offset="0%" stop-color="#F0F0F0"/><stop offset="100%" stop-color="#D8D8D8"/>
</linearGradient>
<pattern id="dots" width="18" height="18" patternUnits="userSpaceOnUse">
<circle cx="1" cy="1" r="1" fill="#E0E0DA"/>
</pattern>
</defs>

<rect x="0" y="0" width="1180" height="260" fill="#FAFAF7"/>
<rect x="0" y="0" width="1180" height="260" fill="url(#dots)"/>
<text x="16" y="24" font-size="14" font-weight="600" fill="#333">Ví dụ pattern — Deconstruct Brep lấy đỉnh mỗi ô lưới, dựng diagrid</text>
<g>
<rect x="40" y="90" width="132" height="56" rx="6" fill="url(#ghBody)" stroke="#8C8C8C" stroke-width="1"/>
<text x="106.0" y="122.0" text-anchor="middle" font-family="Segoe UI, sans-serif" font-size="12" fill="#222">Isotrim</text>
<rect x="32.0" y="110.0" width="10" height="16" rx="3" fill="#E8E8E8" stroke="#8C8C8C"/>
<circle cx="37.0" cy="118.0" r="2.5" fill="#4A4A4A"/>
<rect x="170.0" y="110.0" width="10" height="16" rx="3" fill="#E8E8E8" stroke="#8C8C8C"/>
<circle cx="175.0" cy="118.0" r="2.5" fill="#4A4A4A"/>
</g>
<g>
<rect x="232" y="90" width="132" height="56" rx="6" fill="url(#ghBody)" stroke="#8C8C8C" stroke-width="1"/>
<text x="298.0" y="122.0" text-anchor="middle" font-family="Segoe UI, sans-serif" font-size="12" fill="#222">Deconstruct Brep</text>
<rect x="224.0" y="110.0" width="10" height="16" rx="3" fill="#E8E8E8" stroke="#8C8C8C"/>
<circle cx="229.0" cy="118.0" r="2.5" fill="#4A4A4A"/>
<rect x="362.0" y="100.0" width="10" height="16" rx="3" fill="#E8E8E8" stroke="#8C8C8C"/>
<circle cx="367.0" cy="108.0" r="2.5" fill="#4A4A4A"/>
<rect x="362.0" y="110.0" width="10" height="16" rx="3" fill="#E8E8E8" stroke="#8C8C8C"/>
<circle cx="367.0" cy="118.0" r="2.5" fill="#4A4A4A"/>
<rect x="362.0" y="120.0" width="10" height="16" rx="3" fill="#E8E8E8" stroke="#8C8C8C"/>
<circle cx="367.0" cy="128.0" r="2.5" fill="#4A4A4A"/>
</g>
<path d="M 175.0,118.0 C 202.0,118.0 202.0,118.0 229.0,118.0" stroke="#4A4A4A" stroke-width="1.5" fill="none"/>
<text x="377.0" y="111.0" font-family="Consolas, monospace" font-size="9.5" fill="#777">F</text>
<text x="377.0" y="121.0" font-family="Consolas, monospace" font-size="9.5" fill="#777">E</text>
<text x="377.0" y="131.0" font-family="Consolas, monospace" font-size="9.5" fill="#777">V</text>
<g>
<rect x="424" y="90" width="132" height="56" rx="6" fill="url(#ghBody)" stroke="#8C8C8C" stroke-width="1"/>
<text x="490.0" y="122.0" text-anchor="middle" font-family="Segoe UI, sans-serif" font-size="12" fill="#222">List Item ×2</text>
<rect x="416.0" y="110.0" width="10" height="16" rx="3" fill="#E8E8E8" stroke="#8C8C8C"/>
<circle cx="421.0" cy="118.0" r="2.5" fill="#4A4A4A"/>
<rect x="554.0" y="102.5" width="10" height="16" rx="3" fill="#E8E8E8" stroke="#8C8C8C"/>
<circle cx="559.0" cy="110.5" r="2.5" fill="#4A4A4A"/>
<rect x="554.0" y="117.5" width="10" height="16" rx="3" fill="#E8E8E8" stroke="#8C8C8C"/>
<circle cx="559.0" cy="125.5" r="2.5" fill="#4A4A4A"/>
</g>
<path d="M 367.0,128.0 C 394.0,128.0 394.0,118.0 421.0,118.0" stroke="#4A4A4A" stroke-width="1.5" fill="none"/>
<g>
<rect x="616" y="90" width="132" height="56" rx="6" fill="url(#ghBody)" stroke="#8C8C8C" stroke-width="1"/>
<text x="682.0" y="122.0" text-anchor="middle" font-family="Segoe UI, sans-serif" font-size="12" fill="#222">Line</text>
<rect x="608.0" y="102.5" width="10" height="16" rx="3" fill="#E8E8E8" stroke="#8C8C8C"/>
<circle cx="613.0" cy="110.5" r="2.5" fill="#4A4A4A"/>
<rect x="608.0" y="117.5" width="10" height="16" rx="3" fill="#E8E8E8" stroke="#8C8C8C"/>
<circle cx="613.0" cy="125.5" r="2.5" fill="#4A4A4A"/>
<rect x="746.0" y="110.0" width="10" height="16" rx="3" fill="#E8E8E8" stroke="#8C8C8C"/>
<circle cx="751.0" cy="118.0" r="2.5" fill="#4A4A4A"/>
</g>
<path d="M 559.0,110.5 C 586.0,110.5 586.0,110.5 613.0,110.5" stroke="#4A4A4A" stroke-width="1.5" fill="none"/>
<path d="M 559.0,125.5 C 586.0,125.5 586.0,125.5 613.0,125.5" stroke="#4A4A4A" stroke-width="1.5" fill="none"/>
<g>
<rect x="788" y="74" width="170" height="110" fill="#FFFFFF" stroke="#B0B0B0"/>
<g stroke="#D8D8D8" stroke-width="1">
<line x1="788" y1="172.0" x2="958" y2="172.0"/>
<line x1="788" y1="156.4" x2="958" y2="156.4"/>
<line x1="788" y1="144.8" x2="958" y2="144.8"/>
<line x1="788" y1="137.2" x2="958" y2="137.2"/>
</g>
<text x="794" y="88" font-family="Consolas, monospace" font-size="10" fill="#555">Perspective</text>
<g stroke="#111" stroke-width="1" fill="none">
<line x1="838.0" y1="112.0" x2="838.0" y2="158.0" stroke="#C8C8C0" stroke-width="0.6"/>
<line x1="861.3" y1="112.0" x2="861.3" y2="158.0" stroke="#C8C8C0" stroke-width="0.6"/>
<line x1="884.7" y1="112.0" x2="884.7" y2="158.0" stroke="#C8C8C0" stroke-width="0.6"/>
<line x1="908.0" y1="112.0" x2="908.0" y2="158.0" stroke="#C8C8C0" stroke-width="0.6"/>
<line x1="838.0" y1="112.0" x2="908.0" y2="112.0" stroke="#C8C8C0" stroke-width="0.6"/>
<line x1="838.0" y1="135.0" x2="908.0" y2="135.0" stroke="#C8C8C0" stroke-width="0.6"/>
<line x1="838.0" y1="158.0" x2="908.0" y2="158.0" stroke="#C8C8C0" stroke-width="0.6"/>
<line x1="838.0" y1="112.0" x2="861.3" y2="135.0" stroke="#111" stroke-width="1.2"/>
<line x1="861.3" y1="112.0" x2="884.7" y2="135.0" stroke="#111" stroke-width="1.2"/>
<line x1="884.7" y1="112.0" x2="908.0" y2="135.0" stroke="#111" stroke-width="1.2"/>
<line x1="838.0" y1="135.0" x2="861.3" y2="158.0" stroke="#111" stroke-width="1.2"/>
<line x1="861.3" y1="135.0" x2="884.7" y2="158.0" stroke="#111" stroke-width="1.2"/>
<line x1="884.7" y1="135.0" x2="908.0" y2="158.0" stroke="#111" stroke-width="1.2"/>
</g>
</g>
</svg>