<svg xmlns="http://www.w3.org/2000/svg" width="1180" height="260" viewBox="0 0 1180 260" font-family="Segoe UI, sans-serif">
<defs>
<linearGradient id="ghBody" x1="0" y1="0" x2="0" y2="1">
<stop offset="0%" stop-color="#F0F0F0"/><stop offset="100%" stop-color="#D8D8D8"/>
</linearGradient>
<pattern id="dots" width="18" height="18" patternUnits="userSpaceOnUse">
<circle cx="1" cy="1" r="1" fill="#E0E0DA"/>
</pattern>
</defs>

<rect x="0" y="0" width="1180" height="260" fill="#FAFAF7"/>
<rect x="0" y="0" width="1180" height="260" fill="url(#dots)"/>
<text x="16" y="24" font-size="14" font-weight="600" fill="#333">Workflow phổ biến với Deconstruct Brep</text>
<g>
<rect x="40" y="60" width="132" height="48" rx="6" fill="url(#ghBody)" stroke="#8C8C8C" stroke-width="1"/>
<text x="106.0" y="88.0" text-anchor="middle" font-family="Segoe UI, sans-serif" font-size="12" fill="#222">Box</text>
<rect x="32.0" y="76.0" width="10" height="16" rx="3" fill="#E8E8E8" stroke="#8C8C8C"/>
<circle cx="37.0" cy="84.0" r="2.5" fill="#4A4A4A"/>
<rect x="170.0" y="76.0" width="10" height="16" rx="3" fill="#E8E8E8" stroke="#8C8C8C"/>
<circle cx="175.0" cy="84.0" r="2.5" fill="#4A4A4A"/>
</g>
<g>
<rect x="232" y="60" width="132" height="48" rx="6" fill="url(#ghBody)" stroke="#8C8C8C" stroke-width="1"/>
<text x="298.0" y="88.0" text-anchor="middle" font-family="Segoe UI, sans-serif" font-size="12" fill="#222">Deconstruct Brep</text>
<rect x="224.0" y="76.0" width="10" height="16" rx="3" fill="#E8E8E8" stroke="#8C8C8C"/>
<circle cx="229.0" cy="84.0" r="2.5" fill="#4A4A4A"/>
<rect x="362.0" y="68.7" width="10" height="16" rx="3" fill="#E8E8E8" stroke="#8C8C8C"/>
<circle cx="367.0" cy="76.7" r="2.5" fill="#4A4A4A"/>
<rect x="362.0" y="76.0" width="10" height="16" rx="3" fill="#E8E8E8" stroke="#8C8C8C"/>
<circle cx="367.0" cy="84.0" r="2.5" fill="#4A4A4A"/>
<rect x="362.0" y="83.3" width="10" height="16" rx="3" fill="#E8E8E8" stroke="#8C8C8C"/>
<circle cx="367.0" cy="91.3" r="2.5" fill="#4A4A4A"/>
</g>
<path d="M 175.0,84.0 C 202.0,84.0 202.0,84.0 229.0,84.0" stroke="#4A4A4A" stroke-width="1.5" fill="none"/>
<g>
<rect x="424" y="60" width="132" height="48" rx="6" fill="url(#ghBody)" stroke="#8C8C8C" stroke-width="1"/>
<text x="490.0" y="88.0" text-anchor="middle" font-family="Segoe UI, sans-serif" font-size="12" fill="#222">Custom Preview</text>
<rect x="416.0" y="76.0" width="10" height="16" rx="3" fill="#E8E8E8" stroke="#8C8C8C"/>
<circle cx="421.0" cy="84.0" r="2.5" fill="#4A4A4A"/>
<rect x="554.0" y="76.0" width="10" height="16" rx="3" fill="#E8E8E8" stroke="#8C8C8C"/>
<circle cx="559.0" cy="84.0" r="2.5" fill="#4A4A4A"/>
</g>
<path d="M 367.0,76.7 C 394.0,76.7 394.0,84.0 421.0,84.0" stroke="#4A4A4A" stroke-width="1.5" fill="none"/>
<text x="40" y="48" font-family="Segoe UI, sans-serif" font-size="12" fill="#666">Workflow 1 (cơ bản):</text>
<g>
<rect x="40" y="170" width="132" height="48" rx="6" fill="url(#ghBody)" stroke="#8C8C8C" stroke-width="1"/>
<text x="106.0" y="198.0" text-anchor="middle" font-family="Segoe UI, sans-serif" font-size="12" fill="#222">Isotrim</text>
<rect x="32.0" y="186.0" width="10" height="16" rx="3" fill="#E8E8E8" stroke="#8C8C8C"/>
<circle cx="37.0" cy="194.0" r="2.5" fill="#4A4A4A"/>
<rect x="170.0" y="186.0" width="10" height="16" rx="3" fill="#E8E8E8" stroke="#8C8C8C"/>
<circle cx="175.0" cy="194.0" r="2.5" fill="#4A4A4A"/>
</g>
<g>
<rect x="232" y="170" width="132" height="48" rx="6" fill="url(#ghBody)" stroke="#8C8C8C" stroke-width="1"/>
<text x="298.0" y="198.0" text-anchor="middle" font-family="Segoe UI, sans-serif" font-size="12" fill="#222">Deconstruct Brep</text>
<rect x="224.0" y="186.0" width="10" height="16" rx="3" fill="#E8E8E8" stroke="#8C8C8C"/>
<circle cx="229.0" cy="194.0" r="2.5" fill="#4A4A4A"/>
<rect x="362.0" y="178.7" width="10" height="16" rx="3" fill="#E8E8E8" stroke="#8C8C8C"/>
<circle cx="367.0" cy="186.7" r="2.5" fill="#4A4A4A"/>
<rect x="362.0" y="186.0" width="10" height="16" rx="3" fill="#E8E8E8" stroke="#8C8C8C"/>
<circle cx="367.0" cy="194.0" r="2.5" fill="#4A4A4A"/>
<rect x="362.0" y="193.3" width="10" height="16" rx="3" fill="#E8E8E8" stroke="#8C8C8C"/>
<circle cx="367.0" cy="201.3" r="2.5" fill="#4A4A4A"/>
</g>
<path d="M 175.0,194.0 C 202.0,194.0 202.0,194.0 229.0,194.0" stroke="#4A4A4A" stroke-width="1.5" fill="none"/>
<g>
<rect x="424" y="170" width="132" height="48" rx="6" fill="url(#ghBody)" stroke="#8C8C8C" stroke-width="1"/>
<text x="490.0" y="198.0" text-anchor="middle" font-family="Segoe UI, sans-serif" font-size="12" fill="#222">List Item ×2</text>
<rect x="416.0" y="186.0" width="10" height="16" rx="3" fill="#E8E8E8" stroke="#8C8C8C"/>
<circle cx="421.0" cy="194.0" r="2.5" fill="#4A4A4A"/>
<rect x="554.0" y="180.5" width="10" height="16" rx="3" fill="#E8E8E8" stroke="#8C8C8C"/>
<circle cx="559.0" cy="188.5" r="2.5" fill="#4A4A4A"/>
<rect x="554.0" y="191.5" width="10" height="16" rx="3" fill="#E8E8E8" stroke="#8C8C8C"/>
<circle cx="559.0" cy="199.5" r="2.5" fill="#4A4A4A"/>
</g>
<path d="M 367.0,201.3 C 394.0,201.3 394.0,194.0 421.0,194.0" stroke="#4A4A4A" stroke-width="1.5" fill="none"/>
<g>
<rect x="616" y="170" width="132" height="48" rx="6" fill="url(#ghBody)" stroke="#8C8C8C" stroke-width="1"/>
<text x="682.0" y="198.0" text-anchor="middle" font-family="Segoe UI, sans-serif" font-size="12" fill="#222">Line</text>
<rect x="608.0" y="180.5" width="10" height="16" rx="3" fill="#E8E8E8" stroke="#8C8C8C"/>
<circle cx="613.0" cy="188.5" r="2.5" fill="#4A4A4A"/>
<rect x="608.0" y="191.5" width="10" height="16" rx="3" fill="#E8E8E8" stroke="#8C8C8C"/>
<circle cx="613.0" cy="199.5" r="2.5" fill="#4A4A4A"/>
<rect x="746.0" y="186.0" width="10" height="16" rx="3" fill="#E8E8E8" stroke="#8C8C8C"/>
<circle cx="751.0" cy="194.0" r="2.5" fill="#4A4A4A"/>
</g>
<path d="M 559.0,188.5 C 586.0,188.5 586.0,188.5 613.0,188.5" stroke="#4A4A4A" stroke-width="1.5" fill="none"/>
<path d="M 559.0,199.5 C 586.0,199.5 586.0,199.5 613.0,199.5" stroke="#4A4A4A" stroke-width="1.5" fill="none"/>
<text x="40" y="158" font-family="Segoe UI, sans-serif" font-size="12" fill="#666">Workflow 2 (dựng pattern diagrid):</text>
</svg>