<svg xmlns="http://www.w3.org/2000/svg" width="900" height="260" viewBox="0 0 900 260" font-family="Segoe UI, sans-serif">
<defs>
<linearGradient id="ghBody" x1="0" y1="0" x2="0" y2="1">
<stop offset="0%" stop-color="#F0F0F0"/><stop offset="100%" stop-color="#D8D8D8"/>
</linearGradient>
<pattern id="dots" width="18" height="18" patternUnits="userSpaceOnUse">
<circle cx="1" cy="1" r="1" fill="#E0E0DA"/>
</pattern>
</defs>

<rect x="0" y="0" width="900" height="260" fill="#FAFAF7"/>
<rect x="0" y="0" width="900" height="260" fill="url(#dots)"/>
<text x="16" y="24" font-size="14" font-weight="600" fill="#333">Ví dụ đơn giản — tách Box thành 6 mặt (Faces)</text>
<g>
<rect x="50" y="90" width="132" height="56" rx="6" fill="url(#ghBody)" stroke="#8C8C8C" stroke-width="1"/>
<text x="116.0" y="122.0" text-anchor="middle" font-family="Segoe UI, sans-serif" font-size="12" fill="#222">Box</text>
<rect x="42.0" y="110.0" width="10" height="16" rx="3" fill="#E8E8E8" stroke="#8C8C8C"/>
<circle cx="47.0" cy="118.0" r="2.5" fill="#4A4A4A"/>
<rect x="180.0" y="110.0" width="10" height="16" rx="3" fill="#E8E8E8" stroke="#8C8C8C"/>
<circle cx="185.0" cy="118.0" r="2.5" fill="#4A4A4A"/>
</g>
<g>
<rect x="252" y="90" width="132" height="56" rx="6" fill="url(#ghBody)" stroke="#8C8C8C" stroke-width="1"/>
<text x="318.0" y="122.0" text-anchor="middle" font-family="Segoe UI, sans-serif" font-size="12" fill="#222">Deconstruct Brep</text>
<rect x="244.0" y="110.0" width="10" height="16" rx="3" fill="#E8E8E8" stroke="#8C8C8C"/>
<circle cx="249.0" cy="118.0" r="2.5" fill="#4A4A4A"/>
<rect x="382.0" y="100.0" width="10" height="16" rx="3" fill="#E8E8E8" stroke="#8C8C8C"/>
<circle cx="387.0" cy="108.0" r="2.5" fill="#4A4A4A"/>
<rect x="382.0" y="110.0" width="10" height="16" rx="3" fill="#E8E8E8" stroke="#8C8C8C"/>
<circle cx="387.0" cy="118.0" r="2.5" fill="#4A4A4A"/>
<rect x="382.0" y="120.0" width="10" height="16" rx="3" fill="#E8E8E8" stroke="#8C8C8C"/>
<circle cx="387.0" cy="128.0" r="2.5" fill="#4A4A4A"/>
</g>
<path d="M 185.0,118.0 C 217.0,118.0 217.0,118.0 249.0,118.0" stroke="#4A4A4A" stroke-width="1.5" fill="none"/>
<g>
<rect x="454" y="90" width="132" height="56" rx="6" fill="url(#ghBody)" stroke="#8C8C8C" stroke-width="1"/>
<text x="520.0" y="122.0" text-anchor="middle" font-family="Segoe UI, sans-serif" font-size="12" fill="#222">Custom Preview</text>
<rect x="446.0" y="110.0" width="10" height="16" rx="3" fill="#E8E8E8" stroke="#8C8C8C"/>
<circle cx="451.0" cy="118.0" r="2.5" fill="#4A4A4A"/>
<rect x="584.0" y="110.0" width="10" height="16" rx="3" fill="#E8E8E8" stroke="#8C8C8C"/>
<circle cx="589.0" cy="118.0" r="2.5" fill="#4A4A4A"/>
</g>
<path d="M 387.0,108.0 C 419.0,108.0 419.0,118.0 451.0,118.0" stroke="#4A4A4A" stroke-width="1.5" fill="none"/>
<text x="397.0" y="111.0" font-family="Consolas, monospace" font-size="9.5" fill="#777">F</text>
<text x="397.0" y="121.0" font-family="Consolas, monospace" font-size="9.5" fill="#777">E</text>
<text x="397.0" y="131.0" font-family="Consolas, monospace" font-size="9.5" fill="#777">V</text>
<g>
<rect x="626" y="80" width="160" height="100" fill="#FFFFFF" stroke="#B0B0B0"/>
<g stroke="#D8D8D8" stroke-width="1">
<line x1="626" y1="168.0" x2="786" y2="168.0"/>
<line x1="626" y1="154.0" x2="786" y2="154.0"/>
<line x1="626" y1="144.0" x2="786" y2="144.0"/>
<line x1="626" y1="138.0" x2="786" y2="138.0"/>
</g>
<text x="632" y="94" font-family="Consolas, monospace" font-size="10" fill="#555">Shaded</text>
<g stroke="#111" stroke-width="1">
<polygon points="676.0,128.0 706.0,112.0 736.0,128.0 706.0,144.0" fill="#E05A4E" fill-opacity="0.75"/>
<polygon points="676.0,128.0 706.0,144.0 706.0,174.0 676.0,158.0" fill="#E0A24E" fill-opacity="0.75"/>
<polygon points="736.0,128.0 706.0,144.0 706.0,174.0 736.0,158.0" fill="#7FC94E" fill-opacity="0.75"/>
</g>
</g>
</svg>