<svg width="640" height="380" viewBox="0 0 640 380" xmlns="http://www.w3.org/2000/svg" font-family="Segoe UI, Arial, sans-serif">
<rect x="0" y="0" width="640" height="380" fill="#FFFFFF" stroke="#B0B0B0"/>
<text x="12" y="24" font-family="Consolas, monospace" font-size="12" fill="#555">Perspective — pattern relief lưới lục giác</text>
<polygon points="219.2,127.3 206.6,149.1 181.4,149.1 168.8,127.3 181.4,105.4 206.6,105.4" fill="#E8E2D6" stroke="#333" stroke-width="0.6"/>
<polygon points="219.2,118.0 206.6,139.8 181.4,139.8 168.8,118.0 181.4,96.2 206.6,96.2" fill="#B8AE96" opacity="0.44" stroke="#333" stroke-width="0.6"/>
<line x1="219.2" y1="127.3" x2="219.2" y2="118.0" stroke="#333" stroke-width="0.4"/>
<line x1="206.6" y1="149.1" x2="206.6" y2="139.8" stroke="#333" stroke-width="0.4"/>
<line x1="181.4" y1="149.1" x2="181.4" y2="139.8" stroke="#333" stroke-width="0.4"/>
<line x1="168.8" y1="127.3" x2="168.8" y2="118.0" stroke="#333" stroke-width="0.4"/>
<line x1="181.4" y1="105.4" x2="181.4" y2="96.2" stroke="#333" stroke-width="0.4"/>
<line x1="206.6" y1="105.4" x2="206.6" y2="96.2" stroke="#333" stroke-width="0.4"/>
<polygon points="261.2,103.0 248.6,124.8 223.4,124.8 210.8,103.0 223.4,81.2 248.6,81.2" fill="#E8E2D6" stroke="#333" stroke-width="0.6"/>
<polygon points="261.2,90.8 248.6,112.6 223.4,112.6 210.8,90.8 223.4,69.0 248.6,69.0" fill="#B8AE96" opacity="0.48" stroke="#333" stroke-width="0.6"/>
<line x1="261.2" y1="103.0" x2="261.2" y2="90.8" stroke="#333" stroke-width="0.4"/>
<line x1="248.6" y1="124.8" x2="248.6" y2="112.6" stroke="#333" stroke-width="0.4"/>
<line x1="223.4" y1="124.8" x2="223.4" y2="112.6" stroke="#333" stroke-width="0.4"/>
<line x1="210.8" y1="103.0" x2="210.8" y2="90.8" stroke="#333" stroke-width="0.4"/>
<line x1="223.4" y1="81.2" x2="223.4" y2="69.0" stroke="#333" stroke-width="0.4"/>
<line x1="248.6" y1="81.2" x2="248.6" y2="69.0" stroke="#333" stroke-width="0.4"/>
<polygon points="303.2,127.3 290.6,149.1 265.4,149.1 252.8,127.3 265.4,105.4 290.6,105.4" fill="#E8E2D6" stroke="#333" stroke-width="0.6"/>
<polygon points="303.2,107.5 290.6,129.4 265.4,129.4 252.8,107.5 265.4,85.7 290.6,85.7" fill="#B8AE96" opacity="0.59" stroke="#333" stroke-width="0.6"/>
<line x1="303.2" y1="127.3" x2="303.2" y2="107.5" stroke="#333" stroke-width="0.4"/>
<line x1="290.6" y1="149.1" x2="290.6" y2="129.4" stroke="#333" stroke-width="0.4"/>
<line x1="265.4" y1="149.1" x2="265.4" y2="129.4" stroke="#333" stroke-width="0.4"/>
<line x1="252.8" y1="127.3" x2="252.8" y2="107.5" stroke="#333" stroke-width="0.4"/>
<line x1="265.4" y1="105.4" x2="265.4" y2="85.7" stroke="#333" stroke-width="0.4"/>
<line x1="290.6" y1="105.4" x2="290.6" y2="85.7" stroke="#333" stroke-width="0.4"/>
<polygon points="345.2,103.0 332.6,124.8 307.4,124.8 294.8,103.0 307.4,81.2 332.6,81.2" fill="#E8E2D6" stroke="#333" stroke-width="0.6"/>
<polygon points="345.2,85.5 332.6,107.3 307.4,107.3 294.8,85.5 307.4,63.7 332.6,63.7" fill="#B8AE96" opacity="0.56" stroke="#333" stroke-width="0.6"/>
<line x1="345.2" y1="103.0" x2="345.2" y2="85.5" stroke="#333" stroke-width="0.4"/>
<line x1="332.6" y1="124.8" x2="332.6" y2="107.3" stroke="#333" stroke-width="0.4"/>
<line x1="307.4" y1="124.8" x2="307.4" y2="107.3" stroke="#333" stroke-width="0.4"/>
<line x1="294.8" y1="103.0" x2="294.8" y2="85.5" stroke="#333" stroke-width="0.4"/>
<line x1="307.4" y1="81.2" x2="307.4" y2="63.7" stroke="#333" stroke-width="0.4"/>
<line x1="332.6" y1="81.2" x2="332.6" y2="63.7" stroke="#333" stroke-width="0.4"/>
<polygon points="387.2,127.3 374.6,149.1 349.4,149.1 336.8,127.3 349.4,105.4 374.6,105.4" fill="#E8E2D6" stroke="#333" stroke-width="0.6"/>
<polygon points="387.2,107.5 374.6,129.4 349.4,129.4 336.8,107.5 349.4,85.7 374.6,85.7" fill="#B8AE96" opacity="0.59" stroke="#333" stroke-width="0.6"/>
<line x1="387.2" y1="127.3" x2="387.2" y2="107.5" stroke="#333" stroke-width="0.4"/>
<line x1="374.6" y1="149.1" x2="374.6" y2="129.4" stroke="#333" stroke-width="0.4"/>
<line x1="349.4" y1="149.1" x2="349.4" y2="129.4" stroke="#333" stroke-width="0.4"/>
<line x1="336.8" y1="127.3" x2="336.8" y2="107.5" stroke="#333" stroke-width="0.4"/>
<line x1="349.4" y1="105.4" x2="349.4" y2="85.7" stroke="#333" stroke-width="0.4"/>
<line x1="374.6" y1="105.4" x2="374.6" y2="85.7" stroke="#333" stroke-width="0.4"/>
<polygon points="429.2,103.0 416.6,124.8 391.4,124.8 378.8,103.0 391.4,81.2 416.6,81.2" fill="#E8E2D6" stroke="#333" stroke-width="0.6"/>
<polygon points="429.2,90.8 416.6,112.6 391.4,112.6 378.8,90.8 391.4,69.0 416.6,69.0" fill="#B8AE96" opacity="0.48" stroke="#333" stroke-width="0.6"/>
<line x1="429.2" y1="103.0" x2="429.2" y2="90.8" stroke="#333" stroke-width="0.4"/>
<line x1="416.6" y1="124.8" x2="416.6" y2="112.6" stroke="#333" stroke-width="0.4"/>
<line x1="391.4" y1="124.8" x2="391.4" y2="112.6" stroke="#333" stroke-width="0.4"/>
<line x1="378.8" y1="103.0" x2="378.8" y2="90.8" stroke="#333" stroke-width="0.4"/>
<line x1="391.4" y1="81.2" x2="391.4" y2="69.0" stroke="#333" stroke-width="0.4"/>
<line x1="416.6" y1="81.2" x2="416.6" y2="69.0" stroke="#333" stroke-width="0.4"/>
<polygon points="471.2,127.3 458.6,149.1 433.4,149.1 420.8,127.3 433.4,105.4 458.6,105.4" fill="#E8E2D6" stroke="#333" stroke-width="0.6"/>
<polygon points="471.2,118.0 458.6,139.8 433.4,139.8 420.8,118.0 433.4,96.2 458.6,96.2" fill="#B8AE96" opacity="0.44" stroke="#333" stroke-width="0.6"/>
<line x1="471.2" y1="127.3" x2="471.2" y2="118.0" stroke="#333" stroke-width="0.4"/>
<line x1="458.6" y1="149.1" x2="458.6" y2="139.8" stroke="#333" stroke-width="0.4"/>
<line x1="433.4" y1="149.1" x2="433.4" y2="139.8" stroke="#333" stroke-width="0.4"/>
<line x1="420.8" y1="127.3" x2="420.8" y2="118.0" stroke="#333" stroke-width="0.4"/>
<line x1="433.4" y1="105.4" x2="433.4" y2="96.2" stroke="#333" stroke-width="0.4"/>
<line x1="458.6" y1="105.4" x2="458.6" y2="96.2" stroke="#333" stroke-width="0.4"/>
<polygon points="219.2,175.8 206.6,197.6 181.4,197.6 168.8,175.8 181.4,153.9 206.6,153.9" fill="#E8E2D6" stroke="#333" stroke-width="0.6"/>
<polygon points="219.2,163.6 206.6,185.4 181.4,185.4 168.8,163.6 181.4,141.7 206.6,141.7" fill="#B8AE96" opacity="0.48" stroke="#333" stroke-width="0.6"/>
<line x1="219.2" y1="175.8" x2="219.2" y2="163.6" stroke="#333" stroke-width="0.4"/>
<line x1="206.6" y1="197.6" x2="206.6" y2="185.4" stroke="#333" stroke-width="0.4"/>
<line x1="181.4" y1="197.6" x2="181.4" y2="185.4" stroke="#333" stroke-width="0.4"/>
<line x1="168.8" y1="175.8" x2="168.8" y2="163.6" stroke="#333" stroke-width="0.4"/>
<line x1="181.4" y1="153.9" x2="181.4" y2="141.7" stroke="#333" stroke-width="0.4"/>
<line x1="206.6" y1="153.9" x2="206.6" y2="141.7" stroke="#333" stroke-width="0.4"/>
<polygon points="261.2,151.5 248.6,173.3 223.4,173.3 210.8,151.5 223.4,129.7 248.6,129.7" fill="#E8E2D6" stroke="#333" stroke-width="0.6"/>
<polygon points="261.2,134.0 248.6,155.8 223.4,155.8 210.8,134.0 223.4,112.2 248.6,112.2" fill="#B8AE96" opacity="0.56" stroke="#333" stroke-width="0.6"/>
<line x1="261.2" y1="151.5" x2="261.2" y2="134.0" stroke="#333" stroke-width="0.4"/>
<line x1="248.6" y1="173.3" x2="248.6" y2="155.8" stroke="#333" stroke-width="0.4"/>
<line x1="223.4" y1="173.3" x2="223.4" y2="155.8" stroke="#333" stroke-width="0.4"/>
<line x1="210.8" y1="151.5" x2="210.8" y2="134.0" stroke="#333" stroke-width="0.4"/>
<line x1="223.4" y1="129.7" x2="223.4" y2="112.2" stroke="#333" stroke-width="0.4"/>
<line x1="248.6" y1="129.7" x2="248.6" y2="112.2" stroke="#333" stroke-width="0.4"/>
<polygon points="303.2,175.8 290.6,197.6 265.4,197.6 252.8,175.8 265.4,153.9 290.6,153.9" fill="#E8E2D6" stroke="#333" stroke-width="0.6"/>
<polygon points="303.2,150.0 290.6,171.8 265.4,171.8 252.8,150.0 265.4,128.2 290.6,128.2" fill="#B8AE96" opacity="0.68" stroke="#333" stroke-width="0.6"/>
<line x1="303.2" y1="175.8" x2="303.2" y2="150.0" stroke="#333" stroke-width="0.4"/>
<line x1="290.6" y1="197.6" x2="290.6" y2="171.8" stroke="#333" stroke-width="0.4"/>
<line x1="265.4" y1="197.6" x2="265.4" y2="171.8" stroke="#333" stroke-width="0.4"/>
<line x1="252.8" y1="175.8" x2="252.8" y2="150.0" stroke="#333" stroke-width="0.4"/>
<line x1="265.4" y1="153.9" x2="265.4" y2="128.2" stroke="#333" stroke-width="0.4"/>
<line x1="290.6" y1="153.9" x2="290.6" y2="128.2" stroke="#333" stroke-width="0.4"/>
<polygon points="345.2,151.5 332.6,173.3 307.4,173.3 294.8,151.5 307.4,129.7 332.6,129.7" fill="#E8E2D6" stroke="#333" stroke-width="0.6"/>
<polygon points="345.2,125.7 332.6,147.6 307.4,147.6 294.8,125.7 307.4,103.9 332.6,103.9" fill="#B8AE96" opacity="0.68" stroke="#333" stroke-width="0.6"/>
<line x1="345.2" y1="151.5" x2="345.2" y2="125.7" stroke="#333" stroke-width="0.4"/>
<line x1="332.6" y1="173.3" x2="332.6" y2="147.6" stroke="#333" stroke-width="0.4"/>
<line x1="307.4" y1="173.3" x2="307.4" y2="147.6" stroke="#333" stroke-width="0.4"/>
<line x1="294.8" y1="151.5" x2="294.8" y2="125.7" stroke="#333" stroke-width="0.4"/>
<line x1="307.4" y1="129.7" x2="307.4" y2="103.9" stroke="#333" stroke-width="0.4"/>
<line x1="332.6" y1="129.7" x2="332.6" y2="103.9" stroke="#333" stroke-width="0.4"/>
<polygon points="387.2,175.8 374.6,197.6 349.4,197.6 336.8,175.8 349.4,153.9 374.6,153.9" fill="#E8E2D6" stroke="#333" stroke-width="0.6"/>
<polygon points="387.2,150.0 374.6,171.8 349.4,171.8 336.8,150.0 349.4,128.2 374.6,128.2" fill="#B8AE96" opacity="0.68" stroke="#333" stroke-width="0.6"/>
<line x1="387.2" y1="175.8" x2="387.2" y2="150.0" stroke="#333" stroke-width="0.4"/>
<line x1="374.6" y1="197.6" x2="374.6" y2="171.8" stroke="#333" stroke-width="0.4"/>
<line x1="349.4" y1="197.6" x2="349.4" y2="171.8" stroke="#333" stroke-width="0.4"/>
<line x1="336.8" y1="175.8" x2="336.8" y2="150.0" stroke="#333" stroke-width="0.4"/>
<line x1="349.4" y1="153.9" x2="349.4" y2="128.2" stroke="#333" stroke-width="0.4"/>
<line x1="374.6" y1="153.9" x2="374.6" y2="128.2" stroke="#333" stroke-width="0.4"/>
<polygon points="429.2,151.5 416.6,173.3 391.4,173.3 378.8,151.5 391.4,129.7 416.6,129.7" fill="#E8E2D6" stroke="#333" stroke-width="0.6"/>
<polygon points="429.2,134.0 416.6,155.8 391.4,155.8 378.8,134.0 391.4,112.2 416.6,112.2" fill="#B8AE96" opacity="0.56" stroke="#333" stroke-width="0.6"/>
<line x1="429.2" y1="151.5" x2="429.2" y2="134.0" stroke="#333" stroke-width="0.4"/>
<line x1="416.6" y1="173.3" x2="416.6" y2="155.8" stroke="#333" stroke-width="0.4"/>
<line x1="391.4" y1="173.3" x2="391.4" y2="155.8" stroke="#333" stroke-width="0.4"/>
<line x1="378.8" y1="151.5" x2="378.8" y2="134.0" stroke="#333" stroke-width="0.4"/>
<line x1="391.4" y1="129.7" x2="391.4" y2="112.2" stroke="#333" stroke-width="0.4"/>
<line x1="416.6" y1="129.7" x2="416.6" y2="112.2" stroke="#333" stroke-width="0.4"/>
<polygon points="471.2,175.8 458.6,197.6 433.4,197.6 420.8,175.8 433.4,153.9 458.6,153.9" fill="#E8E2D6" stroke="#333" stroke-width="0.6"/>
<polygon points="471.2,163.6 458.6,185.4 433.4,185.4 420.8,163.6 433.4,141.7 458.6,141.7" fill="#B8AE96" opacity="0.48" stroke="#333" stroke-width="0.6"/>
<line x1="471.2" y1="175.8" x2="471.2" y2="163.6" stroke="#333" stroke-width="0.4"/>
<line x1="458.6" y1="197.6" x2="458.6" y2="185.4" stroke="#333" stroke-width="0.4"/>
<line x1="433.4" y1="197.6" x2="433.4" y2="185.4" stroke="#333" stroke-width="0.4"/>
<line x1="420.8" y1="175.8" x2="420.8" y2="163.6" stroke="#333" stroke-width="0.4"/>
<line x1="433.4" y1="153.9" x2="433.4" y2="141.7" stroke="#333" stroke-width="0.4"/>
<line x1="458.6" y1="153.9" x2="458.6" y2="141.7" stroke="#333" stroke-width="0.4"/>
<polygon points="219.2,224.2 206.6,246.1 181.4,246.1 168.8,224.2 181.4,202.4 206.6,202.4" fill="#E8E2D6" stroke="#333" stroke-width="0.6"/>
<polygon points="219.2,212.1 206.6,233.9 181.4,233.9 168.8,212.1 181.4,190.2 206.6,190.2" fill="#B8AE96" opacity="0.48" stroke="#333" stroke-width="0.6"/>
<line x1="219.2" y1="224.2" x2="219.2" y2="212.1" stroke="#333" stroke-width="0.4"/>
<line x1="206.6" y1="246.1" x2="206.6" y2="233.9" stroke="#333" stroke-width="0.4"/>
<line x1="181.4" y1="246.1" x2="181.4" y2="233.9" stroke="#333" stroke-width="0.4"/>
<line x1="168.8" y1="224.2" x2="168.8" y2="212.1" stroke="#333" stroke-width="0.4"/>
<line x1="181.4" y1="202.4" x2="181.4" y2="190.2" stroke="#333" stroke-width="0.4"/>
<line x1="206.6" y1="202.4" x2="206.6" y2="190.2" stroke="#333" stroke-width="0.4"/>
<polygon points="261.2,200.0 248.6,221.8 223.4,221.8 210.8,200.0 223.4,178.2 248.6,178.2" fill="#E8E2D6" stroke="#333" stroke-width="0.6"/>
<polygon points="261.2,180.3 248.6,202.1 223.4,202.1 210.8,180.3 223.4,158.5 248.6,158.5" fill="#B8AE96" opacity="0.59" stroke="#333" stroke-width="0.6"/>
<line x1="261.2" y1="200.0" x2="261.2" y2="180.3" stroke="#333" stroke-width="0.4"/>
<line x1="248.6" y1="221.8" x2="248.6" y2="202.1" stroke="#333" stroke-width="0.4"/>
<line x1="223.4" y1="221.8" x2="223.4" y2="202.1" stroke="#333" stroke-width="0.4"/>
<line x1="210.8" y1="200.0" x2="210.8" y2="180.3" stroke="#333" stroke-width="0.4"/>
<line x1="223.4" y1="178.2" x2="223.4" y2="158.5" stroke="#333" stroke-width="0.4"/>
<line x1="248.6" y1="178.2" x2="248.6" y2="158.5" stroke="#333" stroke-width="0.4"/>
<polygon points="303.2,224.2 290.6,246.1 265.4,246.1 252.8,224.2 265.4,202.4 290.6,202.4" fill="#E8E2D6" stroke="#333" stroke-width="0.6"/>
<polygon points="303.2,198.5 290.6,220.3 265.4,220.3 252.8,198.5 265.4,176.7 290.6,176.7" fill="#B8AE96" opacity="0.68" stroke="#333" stroke-width="0.6"/>
<line x1="303.2" y1="224.2" x2="303.2" y2="198.5" stroke="#333" stroke-width="0.4"/>
<line x1="290.6" y1="246.1" x2="290.6" y2="220.3" stroke="#333" stroke-width="0.4"/>
<line x1="265.4" y1="246.1" x2="265.4" y2="220.3" stroke="#333" stroke-width="0.4"/>
<line x1="252.8" y1="224.2" x2="252.8" y2="198.5" stroke="#333" stroke-width="0.4"/>
<line x1="265.4" y1="202.4" x2="265.4" y2="176.7" stroke="#333" stroke-width="0.4"/>
<line x1="290.6" y1="202.4" x2="290.6" y2="176.7" stroke="#333" stroke-width="0.4"/>
<polygon points="345.2,200.0 332.6,221.8 307.4,221.8 294.8,200.0 307.4,178.2 332.6,178.2" fill="#E8E2D6" stroke="#333" stroke-width="0.6"/>
<polygon points="345.2,166.0 332.6,187.8 307.4,187.8 294.8,166.0 307.4,144.2 332.6,144.2" fill="#B8AE96" opacity="0.80" stroke="#333" stroke-width="0.6"/>
<line x1="345.2" y1="200.0" x2="345.2" y2="166.0" stroke="#333" stroke-width="0.4"/>
<line x1="332.6" y1="221.8" x2="332.6" y2="187.8" stroke="#333" stroke-width="0.4"/>
<line x1="307.4" y1="221.8" x2="307.4" y2="187.8" stroke="#333" stroke-width="0.4"/>
<line x1="294.8" y1="200.0" x2="294.8" y2="166.0" stroke="#333" stroke-width="0.4"/>
<line x1="307.4" y1="178.2" x2="307.4" y2="144.2" stroke="#333" stroke-width="0.4"/>
<line x1="332.6" y1="178.2" x2="332.6" y2="144.2" stroke="#333" stroke-width="0.4"/>
<polygon points="387.2,224.2 374.6,246.1 349.4,246.1 336.8,224.2 349.4,202.4 374.6,202.4" fill="#E8E2D6" stroke="#333" stroke-width="0.6"/>
<polygon points="387.2,198.5 374.6,220.3 349.4,220.3 336.8,198.5 349.4,176.7 374.6,176.7" fill="#B8AE96" opacity="0.68" stroke="#333" stroke-width="0.6"/>
<line x1="387.2" y1="224.2" x2="387.2" y2="198.5" stroke="#333" stroke-width="0.4"/>
<line x1="374.6" y1="246.1" x2="374.6" y2="220.3" stroke="#333" stroke-width="0.4"/>
<line x1="349.4" y1="246.1" x2="349.4" y2="220.3" stroke="#333" stroke-width="0.4"/>
<line x1="336.8" y1="224.2" x2="336.8" y2="198.5" stroke="#333" stroke-width="0.4"/>
<line x1="349.4" y1="202.4" x2="349.4" y2="176.7" stroke="#333" stroke-width="0.4"/>
<line x1="374.6" y1="202.4" x2="374.6" y2="176.7" stroke="#333" stroke-width="0.4"/>
<polygon points="429.2,200.0 416.6,221.8 391.4,221.8 378.8,200.0 391.4,178.2 416.6,178.2" fill="#E8E2D6" stroke="#333" stroke-width="0.6"/>
<polygon points="429.2,180.3 416.6,202.1 391.4,202.1 378.8,180.3 391.4,158.5 416.6,158.5" fill="#B8AE96" opacity="0.59" stroke="#333" stroke-width="0.6"/>
<line x1="429.2" y1="200.0" x2="429.2" y2="180.3" stroke="#333" stroke-width="0.4"/>
<line x1="416.6" y1="221.8" x2="416.6" y2="202.1" stroke="#333" stroke-width="0.4"/>
<line x1="391.4" y1="221.8" x2="391.4" y2="202.1" stroke="#333" stroke-width="0.4"/>
<line x1="378.8" y1="200.0" x2="378.8" y2="180.3" stroke="#333" stroke-width="0.4"/>
<line x1="391.4" y1="178.2" x2="391.4" y2="158.5" stroke="#333" stroke-width="0.4"/>
<line x1="416.6" y1="178.2" x2="416.6" y2="158.5" stroke="#333" stroke-width="0.4"/>
<polygon points="471.2,224.2 458.6,246.1 433.4,246.1 420.8,224.2 433.4,202.4 458.6,202.4" fill="#E8E2D6" stroke="#333" stroke-width="0.6"/>
<polygon points="471.2,212.1 458.6,233.9 433.4,233.9 420.8,212.1 433.4,190.2 458.6,190.2" fill="#B8AE96" opacity="0.48" stroke="#333" stroke-width="0.6"/>
<line x1="471.2" y1="224.2" x2="471.2" y2="212.1" stroke="#333" stroke-width="0.4"/>
<line x1="458.6" y1="246.1" x2="458.6" y2="233.9" stroke="#333" stroke-width="0.4"/>
<line x1="433.4" y1="246.1" x2="433.4" y2="233.9" stroke="#333" stroke-width="0.4"/>
<line x1="420.8" y1="224.2" x2="420.8" y2="212.1" stroke="#333" stroke-width="0.4"/>
<line x1="433.4" y1="202.4" x2="433.4" y2="190.2" stroke="#333" stroke-width="0.4"/>
<line x1="458.6" y1="202.4" x2="458.6" y2="190.2" stroke="#333" stroke-width="0.4"/>
<polygon points="219.2,272.7 206.6,294.6 181.4,294.6 168.8,272.7 181.4,250.9 206.6,250.9" fill="#E8E2D6" stroke="#333" stroke-width="0.6"/>
<polygon points="219.2,263.5 206.6,285.3 181.4,285.3 168.8,263.5 181.4,241.7 206.6,241.7" fill="#B8AE96" opacity="0.44" stroke="#333" stroke-width="0.6"/>
<line x1="219.2" y1="272.7" x2="219.2" y2="263.5" stroke="#333" stroke-width="0.4"/>
<line x1="206.6" y1="294.6" x2="206.6" y2="285.3" stroke="#333" stroke-width="0.4"/>
<line x1="181.4" y1="294.6" x2="181.4" y2="285.3" stroke="#333" stroke-width="0.4"/>
<line x1="168.8" y1="272.7" x2="168.8" y2="263.5" stroke="#333" stroke-width="0.4"/>
<line x1="181.4" y1="250.9" x2="181.4" y2="241.7" stroke="#333" stroke-width="0.4"/>
<line x1="206.6" y1="250.9" x2="206.6" y2="241.7" stroke="#333" stroke-width="0.4"/>
<polygon points="261.2,248.5 248.6,270.3 223.4,270.3 210.8,248.5 223.4,226.7 248.6,226.7" fill="#E8E2D6" stroke="#333" stroke-width="0.6"/>
<polygon points="261.2,231.0 248.6,252.8 223.4,252.8 210.8,231.0 223.4,209.2 248.6,209.2" fill="#B8AE96" opacity="0.56" stroke="#333" stroke-width="0.6"/>
<line x1="261.2" y1="248.5" x2="261.2" y2="231.0" stroke="#333" stroke-width="0.4"/>
<line x1="248.6" y1="270.3" x2="248.6" y2="252.8" stroke="#333" stroke-width="0.4"/>
<line x1="223.4" y1="270.3" x2="223.4" y2="252.8" stroke="#333" stroke-width="0.4"/>
<line x1="210.8" y1="248.5" x2="210.8" y2="231.0" stroke="#333" stroke-width="0.4"/>
<line x1="223.4" y1="226.7" x2="223.4" y2="209.2" stroke="#333" stroke-width="0.4"/>
<line x1="248.6" y1="226.7" x2="248.6" y2="209.2" stroke="#333" stroke-width="0.4"/>
<polygon points="303.2,272.7 290.6,294.6 265.4,294.6 252.8,272.7 265.4,250.9 290.6,250.9" fill="#E8E2D6" stroke="#333" stroke-width="0.6"/>
<polygon points="303.2,253.0 290.6,274.8 265.4,274.8 252.8,253.0 265.4,231.2 290.6,231.2" fill="#B8AE96" opacity="0.59" stroke="#333" stroke-width="0.6"/>
<line x1="303.2" y1="272.7" x2="303.2" y2="253.0" stroke="#333" stroke-width="0.4"/>
<line x1="290.6" y1="294.6" x2="290.6" y2="274.8" stroke="#333" stroke-width="0.4"/>
<line x1="265.4" y1="294.6" x2="265.4" y2="274.8" stroke="#333" stroke-width="0.4"/>
<line x1="252.8" y1="272.7" x2="252.8" y2="253.0" stroke="#333" stroke-width="0.4"/>
<line x1="265.4" y1="250.9" x2="265.4" y2="231.2" stroke="#333" stroke-width="0.4"/>
<line x1="290.6" y1="250.9" x2="290.6" y2="231.2" stroke="#333" stroke-width="0.4"/>
<polygon points="345.2,248.5 332.6,270.3 307.4,270.3 294.8,248.5 307.4,226.7 332.6,226.7" fill="#E8E2D6" stroke="#333" stroke-width="0.6"/>
<polygon points="345.2,222.7 332.6,244.6 307.4,244.6 294.8,222.7 307.4,200.9 332.6,200.9" fill="#B8AE96" opacity="0.68" stroke="#333" stroke-width="0.6"/>
<line x1="345.2" y1="248.5" x2="345.2" y2="222.7" stroke="#333" stroke-width="0.4"/>
<line x1="332.6" y1="270.3" x2="332.6" y2="244.6" stroke="#333" stroke-width="0.4"/>
<line x1="307.4" y1="270.3" x2="307.4" y2="244.6" stroke="#333" stroke-width="0.4"/>
<line x1="294.8" y1="248.5" x2="294.8" y2="222.7" stroke="#333" stroke-width="0.4"/>
<line x1="307.4" y1="226.7" x2="307.4" y2="200.9" stroke="#333" stroke-width="0.4"/>
<line x1="332.6" y1="226.7" x2="332.6" y2="200.9" stroke="#333" stroke-width="0.4"/>
<polygon points="387.2,272.7 374.6,294.6 349.4,294.6 336.8,272.7 349.4,250.9 374.6,250.9" fill="#E8E2D6" stroke="#333" stroke-width="0.6"/>
<polygon points="387.2,253.0 374.6,274.8 349.4,274.8 336.8,253.0 349.4,231.2 374.6,231.2" fill="#B8AE96" opacity="0.59" stroke="#333" stroke-width="0.6"/>
<line x1="387.2" y1="272.7" x2="387.2" y2="253.0" stroke="#333" stroke-width="0.4"/>
<line x1="374.6" y1="294.6" x2="374.6" y2="274.8" stroke="#333" stroke-width="0.4"/>
<line x1="349.4" y1="294.6" x2="349.4" y2="274.8" stroke="#333" stroke-width="0.4"/>
<line x1="336.8" y1="272.7" x2="336.8" y2="253.0" stroke="#333" stroke-width="0.4"/>
<line x1="349.4" y1="250.9" x2="349.4" y2="231.2" stroke="#333" stroke-width="0.4"/>
<line x1="374.6" y1="250.9" x2="374.6" y2="231.2" stroke="#333" stroke-width="0.4"/>
<polygon points="429.2,248.5 416.6,270.3 391.4,270.3 378.8,248.5 391.4,226.7 416.6,226.7" fill="#E8E2D6" stroke="#333" stroke-width="0.6"/>
<polygon points="429.2,231.0 416.6,252.8 391.4,252.8 378.8,231.0 391.4,209.2 416.6,209.2" fill="#B8AE96" opacity="0.56" stroke="#333" stroke-width="0.6"/>
<line x1="429.2" y1="248.5" x2="429.2" y2="231.0" stroke="#333" stroke-width="0.4"/>
<line x1="416.6" y1="270.3" x2="416.6" y2="252.8" stroke="#333" stroke-width="0.4"/>
<line x1="391.4" y1="270.3" x2="391.4" y2="252.8" stroke="#333" stroke-width="0.4"/>
<line x1="378.8" y1="248.5" x2="378.8" y2="231.0" stroke="#333" stroke-width="0.4"/>
<line x1="391.4" y1="226.7" x2="391.4" y2="209.2" stroke="#333" stroke-width="0.4"/>
<line x1="416.6" y1="226.7" x2="416.6" y2="209.2" stroke="#333" stroke-width="0.4"/>
<polygon points="471.2,272.7 458.6,294.6 433.4,294.6 420.8,272.7 433.4,250.9 458.6,250.9" fill="#E8E2D6" stroke="#333" stroke-width="0.6"/>
<polygon points="471.2,263.5 458.6,285.3 433.4,285.3 420.8,263.5 433.4,241.7 458.6,241.7" fill="#B8AE96" opacity="0.44" stroke="#333" stroke-width="0.6"/>
<line x1="471.2" y1="272.7" x2="471.2" y2="263.5" stroke="#333" stroke-width="0.4"/>
<line x1="458.6" y1="294.6" x2="458.6" y2="285.3" stroke="#333" stroke-width="0.4"/>
<line x1="433.4" y1="294.6" x2="433.4" y2="285.3" stroke="#333" stroke-width="0.4"/>
<line x1="420.8" y1="272.7" x2="420.8" y2="263.5" stroke="#333" stroke-width="0.4"/>
<line x1="433.4" y1="250.9" x2="433.4" y2="241.7" stroke="#333" stroke-width="0.4"/>
<line x1="458.6" y1="250.9" x2="458.6" y2="241.7" stroke="#333" stroke-width="0.4"/>
<polygon points="219.2,321.2 206.6,343.1 181.4,343.1 168.8,321.2 181.4,299.4 206.6,299.4" fill="#E8E2D6" stroke="#333" stroke-width="0.6"/>
<polygon points="219.2,317.0 206.6,338.8 181.4,338.8 168.8,317.0 181.4,295.1 206.6,295.1" fill="#B8AE96" opacity="0.36" stroke="#333" stroke-width="0.6"/>
<line x1="219.2" y1="321.2" x2="219.2" y2="317.0" stroke="#333" stroke-width="0.4"/>
<line x1="206.6" y1="343.1" x2="206.6" y2="338.8" stroke="#333" stroke-width="0.4"/>
<line x1="181.4" y1="343.1" x2="181.4" y2="338.8" stroke="#333" stroke-width="0.4"/>
<line x1="168.8" y1="321.2" x2="168.8" y2="317.0" stroke="#333" stroke-width="0.4"/>
<line x1="181.4" y1="299.4" x2="181.4" y2="295.1" stroke="#333" stroke-width="0.4"/>
<line x1="206.6" y1="299.4" x2="206.6" y2="295.1" stroke="#333" stroke-width="0.4"/>
<polygon points="261.2,297.0 248.6,318.8 223.4,318.8 210.8,297.0 223.4,275.2 248.6,275.2" fill="#E8E2D6" stroke="#333" stroke-width="0.6"/>
<polygon points="261.2,284.8 248.6,306.6 223.4,306.6 210.8,284.8 223.4,263.0 248.6,263.0" fill="#B8AE96" opacity="0.48" stroke="#333" stroke-width="0.6"/>
<line x1="261.2" y1="297.0" x2="261.2" y2="284.8" stroke="#333" stroke-width="0.4"/>
<line x1="248.6" y1="318.8" x2="248.6" y2="306.6" stroke="#333" stroke-width="0.4"/>
<line x1="223.4" y1="318.8" x2="223.4" y2="306.6" stroke="#333" stroke-width="0.4"/>
<line x1="210.8" y1="297.0" x2="210.8" y2="284.8" stroke="#333" stroke-width="0.4"/>
<line x1="223.4" y1="275.2" x2="223.4" y2="263.0" stroke="#333" stroke-width="0.4"/>
<line x1="248.6" y1="275.2" x2="248.6" y2="263.0" stroke="#333" stroke-width="0.4"/>
<polygon points="303.2,321.2 290.6,343.1 265.4,343.1 252.8,321.2 265.4,299.4 290.6,299.4" fill="#E8E2D6" stroke="#333" stroke-width="0.6"/>
<polygon points="303.2,309.1 290.6,330.9 265.4,330.9 252.8,309.1 265.4,287.2 290.6,287.2" fill="#B8AE96" opacity="0.48" stroke="#333" stroke-width="0.6"/>
<line x1="303.2" y1="321.2" x2="303.2" y2="309.1" stroke="#333" stroke-width="0.4"/>
<line x1="290.6" y1="343.1" x2="290.6" y2="330.9" stroke="#333" stroke-width="0.4"/>
<line x1="265.4" y1="343.1" x2="265.4" y2="330.9" stroke="#333" stroke-width="0.4"/>
<line x1="252.8" y1="321.2" x2="252.8" y2="309.1" stroke="#333" stroke-width="0.4"/>
<line x1="265.4" y1="299.4" x2="265.4" y2="287.2" stroke="#333" stroke-width="0.4"/>
<line x1="290.6" y1="299.4" x2="290.6" y2="287.2" stroke="#333" stroke-width="0.4"/>
<polygon points="345.2,297.0 332.6,318.8 307.4,318.8 294.8,297.0 307.4,275.2 332.6,275.2" fill="#E8E2D6" stroke="#333" stroke-width="0.6"/>
<polygon points="345.2,279.5 332.6,301.3 307.4,301.3 294.8,279.5 307.4,257.7 332.6,257.7" fill="#B8AE96" opacity="0.56" stroke="#333" stroke-width="0.6"/>
<line x1="345.2" y1="297.0" x2="345.2" y2="279.5" stroke="#333" stroke-width="0.4"/>
<line x1="332.6" y1="318.8" x2="332.6" y2="301.3" stroke="#333" stroke-width="0.4"/>
<line x1="307.4" y1="318.8" x2="307.4" y2="301.3" stroke="#333" stroke-width="0.4"/>
<line x1="294.8" y1="297.0" x2="294.8" y2="279.5" stroke="#333" stroke-width="0.4"/>
<line x1="307.4" y1="275.2" x2="307.4" y2="257.7" stroke="#333" stroke-width="0.4"/>
<line x1="332.6" y1="275.2" x2="332.6" y2="257.7" stroke="#333" stroke-width="0.4"/>
<polygon points="387.2,321.2 374.6,343.1 349.4,343.1 336.8,321.2 349.4,299.4 374.6,299.4" fill="#E8E2D6" stroke="#333" stroke-width="0.6"/>
<polygon points="387.2,309.1 374.6,330.9 349.4,330.9 336.8,309.1 349.4,287.2 374.6,287.2" fill="#B8AE96" opacity="0.48" stroke="#333" stroke-width="0.6"/>
<line x1="387.2" y1="321.2" x2="387.2" y2="309.1" stroke="#333" stroke-width="0.4"/>
<line x1="374.6" y1="343.1" x2="374.6" y2="330.9" stroke="#333" stroke-width="0.4"/>
<line x1="349.4" y1="343.1" x2="349.4" y2="330.9" stroke="#333" stroke-width="0.4"/>
<line x1="336.8" y1="321.2" x2="336.8" y2="309.1" stroke="#333" stroke-width="0.4"/>
<line x1="349.4" y1="299.4" x2="349.4" y2="287.2" stroke="#333" stroke-width="0.4"/>
<line x1="374.6" y1="299.4" x2="374.6" y2="287.2" stroke="#333" stroke-width="0.4"/>
<polygon points="429.2,297.0 416.6,318.8 391.4,318.8 378.8,297.0 391.4,275.2 416.6,275.2" fill="#E8E2D6" stroke="#333" stroke-width="0.6"/>
<polygon points="429.2,284.8 416.6,306.6 391.4,306.6 378.8,284.8 391.4,263.0 416.6,263.0" fill="#B8AE96" opacity="0.48" stroke="#333" stroke-width="0.6"/>
<line x1="429.2" y1="297.0" x2="429.2" y2="284.8" stroke="#333" stroke-width="0.4"/>
<line x1="416.6" y1="318.8" x2="416.6" y2="306.6" stroke="#333" stroke-width="0.4"/>
<line x1="391.4" y1="318.8" x2="391.4" y2="306.6" stroke="#333" stroke-width="0.4"/>
<line x1="378.8" y1="297.0" x2="378.8" y2="284.8" stroke="#333" stroke-width="0.4"/>
<line x1="391.4" y1="275.2" x2="391.4" y2="263.0" stroke="#333" stroke-width="0.4"/>
<line x1="416.6" y1="275.2" x2="416.6" y2="263.0" stroke="#333" stroke-width="0.4"/>
<polygon points="471.2,321.2 458.6,343.1 433.4,343.1 420.8,321.2 433.4,299.4 458.6,299.4" fill="#E8E2D6" stroke="#333" stroke-width="0.6"/>
<polygon points="471.2,317.0 458.6,338.8 433.4,338.8 420.8,317.0 433.4,295.1 458.6,295.1" fill="#B8AE96" opacity="0.36" stroke="#333" stroke-width="0.6"/>
<line x1="471.2" y1="321.2" x2="471.2" y2="317.0" stroke="#333" stroke-width="0.4"/>
<line x1="458.6" y1="343.1" x2="458.6" y2="338.8" stroke="#333" stroke-width="0.4"/>
<line x1="433.4" y1="343.1" x2="433.4" y2="338.8" stroke="#333" stroke-width="0.4"/>
<line x1="420.8" y1="321.2" x2="420.8" y2="317.0" stroke="#333" stroke-width="0.4"/>
<line x1="433.4" y1="299.4" x2="433.4" y2="295.1" stroke="#333" stroke-width="0.4"/>
<line x1="458.6" y1="299.4" x2="458.6" y2="295.1" stroke="#333" stroke-width="0.4"/>
<text x="12" y="358" font-size="12" fill="#555">Mỗi ô lục giác Extrude cao thấp khác nhau theo khoảng cách tới tâm (attractor) — pattern relief nổi dần vào giữa</text>
</svg>
