<svg width="640" height="380" viewBox="0 0 640 380" xmlns="http://www.w3.org/2000/svg" font-family="Segoe UI, Arial, sans-serif">
<rect x="0" y="0" width="640" height="380" fill="#FFFFFF" stroke="#B0B0B0"/>
<g stroke="#D8D8D8" stroke-width="1">
  <line x1="0" y1="330" x2="640" y2="330"/>
  <line x1="0" y1="295" x2="640" y2="295"/>
  <line x1="0" y1="262" x2="640" y2="262"/>
  <line x1="0" y1="232" x2="640" y2="232"/>
</g>
<text x="12" y="22" font-family="Consolas, monospace" font-size="12" fill="#555">Perspective</text>

<!-- ground cross-section outlines (thin, slightly irregular = measured sections) -->
<path d="M 80,320 C 95,270 110,210 108,150 C 106,110 120,80 145,65" stroke="#111" stroke-width="1.2" fill="none"/>
<path d="M 210,325 C 225,265 235,205 228,145 C 222,105 235,75 258,58" stroke="#111" stroke-width="1.2" fill="none"/>
<path d="M 340,322 C 358,262 365,200 355,142 C 348,100 358,70 380,55" stroke="#111" stroke-width="1.2" fill="none"/>
<path d="M 470,315 C 485,258 490,198 478,140 C 470,100 480,72 500,58" stroke="#111" stroke-width="1.2" fill="none"/>
<path d="M 580,308 C 592,255 594,198 582,145 C 575,108 583,80 598,66" stroke="#111" stroke-width="1.2" fill="none"/>
<circle cx="80" cy="320" r="2.5" fill="#c0392b"/>
<circle cx="210" cy="325" r="2.5" fill="#c0392b"/>
<circle cx="340" cy="322" r="2.5" fill="#c0392b"/>
<circle cx="470" cy="315" r="2.5" fill="#c0392b"/>
<circle cx="580" cy="308" r="2.5" fill="#c0392b"/>

<!-- fitted smooth shell surface spanning the sections -->
<path d="M 76,318 C 200,322 470,312 596,306
         C 590,220 585,150 596,64
         C 480,56 340,53 145,63
         C 118,78 100,110 106,150
         C 108,210 92,268 76,318 Z"
      fill="#C7C7BE" opacity="0.8" stroke="#111" stroke-width="1.1"/>

<!-- surface U isocurves to hint at smoothing across sections -->
<path d="M 130,300 C 220,300 470,295 560,290" stroke="#666" stroke-width="0.8" fill="none"/>
<path d="M 120,220 C 220,222 470,215 570,205" stroke="#666" stroke-width="0.8" fill="none"/>
<path d="M 130,120 C 230,110 460,100 560,92" stroke="#666" stroke-width="0.8" fill="none"/>

<text x="12" y="358" font-size="12" fill="#555">Vỏ kiến trúc cong mượt được Fit Loft qua 5 mặt cắt đo ngoài thực tế (đỏ = điểm đo, không hoàn toàn đều nhau)</text>
</svg>
