<svg width="640" height="380" viewBox="0 0 640 380" xmlns="http://www.w3.org/2000/svg" font-family="Segoe UI, Arial, sans-serif">
<rect x="0" y="0" width="640" height="380" fill="#FFFFFF" stroke="#B0B0B0"/>
<text x="12" y="24" font-family="Consolas, monospace" font-size="12" fill="#555">Perspective — pattern mặt đứng dạng vảy sóng</text>

<!-- 6 wave profile curves with increasing amplitude, lofted into a scale-pattern surface -->
<g stroke="#111" stroke-width="1" fill="none" opacity="0.55">
  <path d="M 60,90.0 L 80,95.2 L 100,95.2 L 120,90.0 L 140,84.8 L 160,84.8 L 180,90.0 L 200,95.2 L 220,95.2 L 240,90.0 L 260,84.8 L 280,84.8 L 300,90.0 L 320,95.2 L 340,95.2 L 360,90.0 L 380,84.8 L 400,84.8 L 420,90.0 L 440,95.2 L 460,95.2 L 480,90.0 L 500,84.8 L 520,84.8 L 540,90.0 L 560,95.2 L 580,95.2"/>
  <path d="M 60,130.0 L 80,138.7 L 100,138.7 L 120,130.0 L 140,121.3 L 160,121.3 L 180,130.0 L 200,138.7 L 220,138.7 L 240,130.0 L 260,121.3 L 280,121.3 L 300,130.0 L 320,138.7 L 340,138.7 L 360,130.0 L 380,121.3 L 400,121.3 L 420,130.0 L 440,138.7 L 460,138.7 L 480,130.0 L 500,121.3 L 520,121.3 L 540,130.0 L 560,138.7 L 580,138.7"/>
  <path d="M 60,170.0 L 80,182.1 L 100,182.1 L 120,170.0 L 140,157.9 L 160,157.9 L 180,170.0 L 200,182.1 L 220,182.1 L 240,170.0 L 260,157.9 L 280,157.9 L 300,170.0 L 320,182.1 L 340,182.1 L 360,170.0 L 380,157.9 L 400,157.9 L 420,170.0 L 440,182.1 L 460,182.1 L 480,170.0 L 500,157.9 L 520,157.9 L 540,170.0 L 560,182.1 L 580,182.1"/>
  <path d="M 60,210.0 L 80,225.6 L 100,225.6 L 120,210.0 L 140,194.4 L 160,194.4 L 180,210.0 L 200,225.6 L 220,225.6 L 240,210.0 L 260,194.4 L 280,194.4 L 300,210.0 L 320,225.6 L 340,225.6 L 360,210.0 L 380,194.4 L 400,194.4 L 420,210.0 L 440,225.6 L 460,225.6 L 480,210.0 L 500,194.4 L 520,194.4 L 540,210.0 L 560,225.6 L 580,225.6"/>
  <path d="M 60,250.0 L 80,269.1 L 100,269.1 L 120,250.0 L 140,230.9 L 160,230.9 L 180,250.0 L 200,269.1 L 220,269.1 L 240,250.0 L 260,230.9 L 280,230.9 L 300,250.0 L 320,269.1 L 340,269.1 L 360,250.0 L 380,230.9 L 400,230.9 L 420,250.0 L 440,269.1 L 460,269.1 L 480,250.0 L 500,230.9 L 520,230.9 L 540,250.0 L 560,269.1 L 580,269.1"/>
  <path d="M 60,290.0 L 80,312.5 L 100,312.5 L 120,290.0 L 140,267.5 L 160,267.5 L 180,290.0 L 200,312.5 L 220,312.5 L 240,290.0 L 260,267.5 L 280,267.5 L 300,290.0 L 320,312.5 L 340,312.5 L 360,290.0 L 380,267.5 L 400,267.5 L 420,290.0 L 440,312.5 L 460,312.5 L 480,290.0 L 500,267.5 L 520,267.5 L 540,290.0 L 560,312.5 L 580,312.5"/>
</g>

<!-- lofted surface band between curves, shaded -->
  <path d="M 60,90.0 L 80,95.2 L 100,95.2 L 120,90.0 L 140,84.8 L 160,84.8 L 180,90.0 L 200,95.2 L 220,95.2 L 240,90.0 L 260,84.8 L 280,84.8 L 300,90.0 L 320,95.2 L 340,95.2 L 360,90.0 L 380,84.8 L 400,84.8 L 420,90.0 L 440,95.2 L 460,95.2 L 480,90.0 L 500,84.8 L 520,84.8 L 540,90.0 L 560,95.2 L 580,95.2 L 580,138.7 L 560,138.7 L 540,130.0 L 520,121.3 L 500,121.3 L 480,130.0 L 460,138.7 L 440,138.7 L 420,130.0 L 400,121.3 L 380,121.3 L 360,130.0 L 340,138.7 L 320,138.7 L 300,130.0 L 280,121.3 L 260,121.3 L 240,130.0 L 220,138.7 L 200,138.7 L 180,130.0 L 160,121.3 L 140,121.3 L 120,130.0 L 100,138.7 L 80,138.7 L 60,130.0 Z" fill="#C7C7BE" opacity="0.15" stroke="none"/>
  <path d="M 60,130.0 L 80,138.7 L 100,138.7 L 120,130.0 L 140,121.3 L 160,121.3 L 180,130.0 L 200,138.7 L 220,138.7 L 240,130.0 L 260,121.3 L 280,121.3 L 300,130.0 L 320,138.7 L 340,138.7 L 360,130.0 L 380,121.3 L 400,121.3 L 420,130.0 L 440,138.7 L 460,138.7 L 480,130.0 L 500,121.3 L 520,121.3 L 540,130.0 L 560,138.7 L 580,138.7 L 580,182.1 L 560,182.1 L 540,170.0 L 520,157.9 L 500,157.9 L 480,170.0 L 460,182.1 L 440,182.1 L 420,170.0 L 400,157.9 L 380,157.9 L 360,170.0 L 340,182.1 L 320,182.1 L 300,170.0 L 280,157.9 L 260,157.9 L 240,170.0 L 220,182.1 L 200,182.1 L 180,170.0 L 160,157.9 L 140,157.9 L 120,170.0 L 100,182.1 L 80,182.1 L 60,170.0 Z" fill="#C7C7BE" opacity="0.20" stroke="none"/>
  <path d="M 60,170.0 L 80,182.1 L 100,182.1 L 120,170.0 L 140,157.9 L 160,157.9 L 180,170.0 L 200,182.1 L 220,182.1 L 240,170.0 L 260,157.9 L 280,157.9 L 300,170.0 L 320,182.1 L 340,182.1 L 360,170.0 L 380,157.9 L 400,157.9 L 420,170.0 L 440,182.1 L 460,182.1 L 480,170.0 L 500,157.9 L 520,157.9 L 540,170.0 L 560,182.1 L 580,182.1 L 580,225.6 L 560,225.6 L 540,210.0 L 520,194.4 L 500,194.4 L 480,210.0 L 460,225.6 L 440,225.6 L 420,210.0 L 400,194.4 L 380,194.4 L 360,210.0 L 340,225.6 L 320,225.6 L 300,210.0 L 280,194.4 L 260,194.4 L 240,210.0 L 220,225.6 L 200,225.6 L 180,210.0 L 160,194.4 L 140,194.4 L 120,210.0 L 100,225.6 L 80,225.6 L 60,210.0 Z" fill="#C7C7BE" opacity="0.25" stroke="none"/>
  <path d="M 60,210.0 L 80,225.6 L 100,225.6 L 120,210.0 L 140,194.4 L 160,194.4 L 180,210.0 L 200,225.6 L 220,225.6 L 240,210.0 L 260,194.4 L 280,194.4 L 300,210.0 L 320,225.6 L 340,225.6 L 360,210.0 L 380,194.4 L 400,194.4 L 420,210.0 L 440,225.6 L 460,225.6 L 480,210.0 L 500,194.4 L 520,194.4 L 540,210.0 L 560,225.6 L 580,225.6 L 580,269.1 L 560,269.1 L 540,250.0 L 520,230.9 L 500,230.9 L 480,250.0 L 460,269.1 L 440,269.1 L 420,250.0 L 400,230.9 L 380,230.9 L 360,250.0 L 340,269.1 L 320,269.1 L 300,250.0 L 280,230.9 L 260,230.9 L 240,250.0 L 220,269.1 L 200,269.1 L 180,250.0 L 160,230.9 L 140,230.9 L 120,250.0 L 100,269.1 L 80,269.1 L 60,250.0 Z" fill="#C7C7BE" opacity="0.30" stroke="none"/>
  <path d="M 60,250.0 L 80,269.1 L 100,269.1 L 120,250.0 L 140,230.9 L 160,230.9 L 180,250.0 L 200,269.1 L 220,269.1 L 240,250.0 L 260,230.9 L 280,230.9 L 300,250.0 L 320,269.1 L 340,269.1 L 360,250.0 L 380,230.9 L 400,230.9 L 420,250.0 L 440,269.1 L 460,269.1 L 480,250.0 L 500,230.9 L 520,230.9 L 540,250.0 L 560,269.1 L 580,269.1 L 580,312.5 L 560,312.5 L 540,290.0 L 520,267.5 L 500,267.5 L 480,290.0 L 460,312.5 L 440,312.5 L 420,290.0 L 400,267.5 L 380,267.5 L 360,290.0 L 340,312.5 L 320,312.5 L 300,290.0 L 280,267.5 L 260,267.5 L 240,290.0 L 220,312.5 L 200,312.5 L 180,290.0 L 160,267.5 L 140,267.5 L 120,290.0 L 100,312.5 L 80,312.5 L 60,290.0 Z" fill="#C7C7BE" opacity="0.35" stroke="none"/>
<text x="12" y="358" font-size="12" fill="#555">N đường cong sin biên độ tăng dần → Fit Loft nối liền thành pattern vảy sóng liên tục trên mặt đứng</text>
</svg>
