<svg width="640" height="380" viewBox="0 0 640 380" xmlns="http://www.w3.org/2000/svg" font-family="Segoe UI, Arial, sans-serif">
<rect x="0" y="0" width="640" height="380" fill="#FFFFFF" stroke="#B0B0B0"/>
<text x="12" y="24" font-family="Consolas, monospace" font-size="12" fill="#555">Top — pattern Voronoi hoa hướng dương (case study dự án)</text>

<!-- spiral of small voronoi-like cells radiating from center, mimicking phyllotaxis -->
<g stroke="#111" stroke-width="0.8" fill="none">
  <circle cx="314.1" cy="205.4" r="2.4" fill="#D8A24A" stroke="#111" stroke-width="0.6"/>
  <circle cx="321.0" cy="188.7" r="2.4" fill="#D8A24A" stroke="#111" stroke-width="0.6"/>
  <circle cx="328.4" cy="211.0" r="2.4" fill="#D8A24A" stroke="#111" stroke-width="0.6"/>
  <circle cx="304.2" cy="197.2" r="2.4" fill="#D8A24A" stroke="#111" stroke-width="0.6"/>
  <circle cx="335.1" cy="190.4" r="2.4" fill="#D8A24A" stroke="#111" stroke-width="0.6"/>
  <circle cx="314.9" cy="218.9" r="2.4" fill="#D8A24A" stroke="#111" stroke-width="0.6"/>
  <circle cx="310.2" cy="181.2" r="2.4" fill="#D8A24A" stroke="#111" stroke-width="0.6"/>
  <circle cx="341.3" cy="207.7" r="2.4" fill="#D8A24A" stroke="#111" stroke-width="0.6"/>
  <circle cx="297.8" cy="209.2" r="2.4" fill="#D8A24A" stroke="#111" stroke-width="0.6"/>
  <circle cx="330.7" cy="177.1" r="2.4" fill="#D8A24A" stroke="#111" stroke-width="0.6"/>
  <circle cx="328.0" cy="225.3" r="2.4" fill="#D8A24A" stroke="#111" stroke-width="0.6"/>
  <circle cx="296.0" cy="186.1" r="2.4" fill="#D8A24A" stroke="#111" stroke-width="0.6"/>
  <circle cx="348.2" cy="193.8" r="2.4" fill="#D8A24A" stroke="#111" stroke-width="0.6"/>
  <circle cx="302.8" cy="224.5" r="2.4" fill="#D8A24A" stroke="#111" stroke-width="0.6"/>
  <circle cx="316.0" cy="169.3" r="2.4" fill="#D8A24A" stroke="#111" stroke-width="0.6"/>
  <circle cx="344.5" cy="220.6" r="2.4" fill="#D8A24A" stroke="#111" stroke-width="0.6"/>
  <circle cx="287.0" cy="201.4" r="2.4" fill="#D8A24A" stroke="#111" stroke-width="0.6"/>
  <circle cx="344.0" cy="176.0" r="2.4" fill="#D8A24A" stroke="#111" stroke-width="0.6"/>
  <circle cx="318.5" cy="234.8" r="2.4" fill="#D8A24A" stroke="#111" stroke-width="0.6"/>
  <circle cx="297.0" cy="172.6" r="2.4" fill="#D8A24A" stroke="#111" stroke-width="0.6"/>
  <circle cx="356.3" cy="204.8" r="2.4" fill="#D8A24A" stroke="#111" stroke-width="0.6"/>
  <circle cx="289.3" cy="221.5" r="2.4" fill="#D8A24A" stroke="#111" stroke-width="0.6"/>
  <circle cx="328.3" cy="162.5" r="2.4" fill="#D8A24A" stroke="#111" stroke-width="0.6"/>
  <circle cx="339.6" cy="233.9" r="2.4" fill="#D8A24A" stroke="#111" stroke-width="0.6"/>
  <circle cx="281.9" cy="188.0" r="2.4" fill="#D8A24A" stroke="#111" stroke-width="0.6"/>
  <circle cx="357.0" cy="182.8" r="2.4" fill="#D8A24A" stroke="#111" stroke-width="0.6"/>
  <circle cx="304.1" cy="238.4" r="2.4" fill="#D8A24A" stroke="#111" stroke-width="0.6"/>
  <circle cx="305.5" cy="160.2" r="2.4" fill="#D8A24A" stroke="#111" stroke-width="0.6"/>
  <circle cx="358.2" cy="219.9" r="2.4" fill="#D8A24A" stroke="#111" stroke-width="0.6"/>
  <circle cx="277.7" cy="211.3" r="2.4" fill="#D8A24A" stroke="#111" stroke-width="0.6"/>
  <circle cx="343.9" cy="162.4" r="2.4" fill="#D8A24A" stroke="#111" stroke-width="0.6"/>
  <circle cx="327.9" cy="244.6" r="2.4" fill="#D8A24A" stroke="#111" stroke-width="0.6"/>
  <circle cx="283.5" cy="172.0" r="2.4" fill="#D8A24A" stroke="#111" stroke-width="0.6"/>
  <circle cx="366.5" cy="195.9" r="2.4" fill="#D8A24A" stroke="#111" stroke-width="0.6"/>
  <circle cx="288.0" cy="234.9" r="2.4" fill="#D8A24A" stroke="#111" stroke-width="0.6"/>
  <circle cx="320.0" cy="152.0" r="2.4" fill="#D8A24A" stroke="#111" stroke-width="0.6"/>
  <circle cx="352.9" cy="235.9" r="2.4" fill="#D8A24A" stroke="#111" stroke-width="0.6"/>
  <circle cx="270.9" cy="195.7" r="2.4" fill="#D8A24A" stroke="#111" stroke-width="0.6"/>
  <circle cx="359.6" cy="169.6" r="2.4" fill="#D8A24A" stroke="#111" stroke-width="0.6"/>
  <circle cx="311.2" cy="249.8" r="2.4" fill="#D8A24A" stroke="#111" stroke-width="0.6"/>
  <circle cx="292.5" cy="156.8" r="2.4" fill="#D8A24A" stroke="#111" stroke-width="0.6"/>
  <circle cx="370.1" cy="213.4" r="2.4" fill="#D8A24A" stroke="#111" stroke-width="0.6"/>
  <circle cx="273.5" cy="224.2" r="2.4" fill="#D8A24A" stroke="#111" stroke-width="0.6"/>
  <circle cx="338.1" cy="150.1" r="2.4" fill="#D8A24A" stroke="#111" stroke-width="0.6"/>
  <circle cx="340.5" cy="249.6" r="2.4" fill="#D8A24A" stroke="#111" stroke-width="0.6"/>
  <circle cx="270.8" cy="177.1" r="2.4" fill="#D8A24A" stroke="#111" stroke-width="0.6"/>
  <circle cx="372.3" cy="183.5" r="2.4" fill="#D8A24A" stroke="#111" stroke-width="0.6"/>
  <circle cx="292.3" cy="248.0" r="2.4" fill="#D8A24A" stroke="#111" stroke-width="0.6"/>
  <circle cx="307.9" cy="145.3" r="2.4" fill="#D8A24A" stroke="#111" stroke-width="0.6"/>
  <circle cx="366.3" cy="232.4" r="2.4" fill="#D8A24A" stroke="#111" stroke-width="0.6"/>
  <circle cx="263.4" cy="207.5" r="2.4" fill="#D8A24A" stroke="#111" stroke-width="0.6"/>
  <circle cx="357.1" cy="155.8" r="2.4" fill="#D8A24A" stroke="#111" stroke-width="0.6"/>
  <circle cx="322.5" cy="258.2" r="2.4" fill="#D8A24A" stroke="#111" stroke-width="0.6"/>
  <circle cx="278.4" cy="158.4" r="2.4" fill="#D8A24A" stroke="#111" stroke-width="0.6"/>
  <circle cx="379.3" cy="202.6" r="2.4" fill="#D8A24A" stroke="#111" stroke-width="0.6"/>
  <circle cx="274.1" cy="238.5" r="2.4" fill="#D8A24A" stroke="#111" stroke-width="0.6"/>
  <circle cx="327.9" cy="140.1" r="2.4" fill="#D8A24A" stroke="#111" stroke-width="0.6"/>
  <circle cx="354.9" cy="249.9" r="2.4" fill="#D8A24A" stroke="#111" stroke-width="0.6"/>
  <circle cx="260.0" cy="186.7" r="2.4" fill="#D8A24A" stroke="#111" stroke-width="0.6"/>
  <circle cx="373.7" cy="169.0" r="2.4" fill="#D8A24A" stroke="#111" stroke-width="0.6"/>
</g>
<text x="12" y="358" font-size="12" fill="#555">Maelstrom bẻ cong lưới điểm toả tâm thành xoắn ốc — nền tảng tạo pattern hoa hướng dương/Voronoi</text>
</svg>
