<svg width="640" height="380" viewBox="0 0 640 380" xmlns="http://www.w3.org/2000/svg" font-family="Segoe UI, Arial, sans-serif">
<rect x="0" y="0" width="640" height="380" fill="#FFFFFF" stroke="#B0B0B0"/>
<text x="12" y="24" font-family="Consolas, monospace" font-size="12" fill="#555">Top — pattern lưới module vuông 6×6</text>
<rect x="110" y="60" width="54" height="54" fill="#6FA82A" opacity="0.25" stroke="#333" stroke-width="0.6"/>
<rect x="170" y="60" width="54" height="54" fill="#6FA82A" opacity="0.75" stroke="#333" stroke-width="0.6"/>
<rect x="230" y="60" width="54" height="54" fill="#6FA82A" opacity="0.25" stroke="#333" stroke-width="0.6"/>
<rect x="290" y="60" width="54" height="54" fill="#6FA82A" opacity="0.75" stroke="#333" stroke-width="0.6"/>
<rect x="350" y="60" width="54" height="54" fill="#6FA82A" opacity="0.25" stroke="#333" stroke-width="0.6"/>
<rect x="410" y="60" width="54" height="54" fill="#6FA82A" opacity="0.75" stroke="#333" stroke-width="0.6"/>
<rect x="110" y="120" width="54" height="54" fill="#6FA82A" opacity="0.75" stroke="#333" stroke-width="0.6"/>
<rect x="170" y="120" width="54" height="54" fill="#6FA82A" opacity="0.25" stroke="#333" stroke-width="0.6"/>
<rect x="230" y="120" width="54" height="54" fill="#6FA82A" opacity="0.75" stroke="#333" stroke-width="0.6"/>
<rect x="290" y="120" width="54" height="54" fill="#6FA82A" opacity="0.25" stroke="#333" stroke-width="0.6"/>
<rect x="350" y="120" width="54" height="54" fill="#6FA82A" opacity="0.75" stroke="#333" stroke-width="0.6"/>
<rect x="410" y="120" width="54" height="54" fill="#6FA82A" opacity="0.25" stroke="#333" stroke-width="0.6"/>
<rect x="110" y="180" width="54" height="54" fill="#6FA82A" opacity="0.25" stroke="#333" stroke-width="0.6"/>
<rect x="170" y="180" width="54" height="54" fill="#6FA82A" opacity="0.75" stroke="#333" stroke-width="0.6"/>
<rect x="230" y="180" width="54" height="54" fill="#6FA82A" opacity="0.25" stroke="#333" stroke-width="0.6"/>
<rect x="290" y="180" width="54" height="54" fill="#6FA82A" opacity="0.75" stroke="#333" stroke-width="0.6"/>
<rect x="350" y="180" width="54" height="54" fill="#6FA82A" opacity="0.25" stroke="#333" stroke-width="0.6"/>
<rect x="410" y="180" width="54" height="54" fill="#6FA82A" opacity="0.75" stroke="#333" stroke-width="0.6"/>
<rect x="110" y="240" width="54" height="54" fill="#6FA82A" opacity="0.75" stroke="#333" stroke-width="0.6"/>
<rect x="170" y="240" width="54" height="54" fill="#6FA82A" opacity="0.25" stroke="#333" stroke-width="0.6"/>
<rect x="230" y="240" width="54" height="54" fill="#6FA82A" opacity="0.75" stroke="#333" stroke-width="0.6"/>
<rect x="290" y="240" width="54" height="54" fill="#6FA82A" opacity="0.25" stroke="#333" stroke-width="0.6"/>
<rect x="350" y="240" width="54" height="54" fill="#6FA82A" opacity="0.75" stroke="#333" stroke-width="0.6"/>
<rect x="410" y="240" width="54" height="54" fill="#6FA82A" opacity="0.25" stroke="#333" stroke-width="0.6"/>
<rect x="110" y="300" width="54" height="54" fill="#6FA82A" opacity="0.25" stroke="#333" stroke-width="0.6"/>
<rect x="170" y="300" width="54" height="54" fill="#6FA82A" opacity="0.75" stroke="#333" stroke-width="0.6"/>
<rect x="230" y="300" width="54" height="54" fill="#6FA82A" opacity="0.25" stroke="#333" stroke-width="0.6"/>
<rect x="290" y="300" width="54" height="54" fill="#6FA82A" opacity="0.75" stroke="#333" stroke-width="0.6"/>
<rect x="350" y="300" width="54" height="54" fill="#6FA82A" opacity="0.25" stroke="#333" stroke-width="0.6"/>
<rect x="410" y="300" width="54" height="54" fill="#6FA82A" opacity="0.75" stroke="#333" stroke-width="0.6"/>
<rect x="110" y="360" width="54" height="54" fill="#6FA82A" opacity="0.75" stroke="#333" stroke-width="0.6"/>
<rect x="170" y="360" width="54" height="54" fill="#6FA82A" opacity="0.25" stroke="#333" stroke-width="0.6"/>
<rect x="230" y="360" width="54" height="54" fill="#6FA82A" opacity="0.75" stroke="#333" stroke-width="0.6"/>
<rect x="290" y="360" width="54" height="54" fill="#6FA82A" opacity="0.25" stroke="#333" stroke-width="0.6"/>
<rect x="350" y="360" width="54" height="54" fill="#6FA82A" opacity="0.75" stroke="#333" stroke-width="0.6"/>
<rect x="410" y="360" width="54" height="54" fill="#6FA82A" opacity="0.25" stroke="#333" stroke-width="0.6"/>
<text x="12" y="358" font-size="12" fill="#555">Graft danh sách X trước khi nhân với Y → đủ tổ hợp lưới 6×6 (36 module) thay vì chỉ 6 module theo đường chéo</text>
</svg>
