<svg width="640" height="300" viewBox="0 0 640 300" xmlns="http://www.w3.org/2000/svg" font-family="Segoe UI, Arial, sans-serif"><defs><linearGradient id="ghBody" x1="0" y1="0" x2="0" y2="1"><stop offset="0%" stop-color="#F0F0F0"/><stop offset="100%" stop-color="#D8D8D8"/></linearGradient><pattern id="dg" width="18" height="18" patternUnits="userSpaceOnUse"><circle cx="1" cy="1" r="1" fill="#E0E0DA"/></pattern></defs><rect x="0" y="0" width="640" height="300" fill="#FAFAF7"/><rect x="0" y="0" width="640" height="300" fill="url(#dg)"/><text x="30" y="30" font-size="13" font-weight="700" fill="#222">Data Tree — mỗi nhánh có 1 đường dẫn (path) riêng</text><rect x="40" y="60" width="50" height="26" rx="4" fill="#E8F200" stroke="#8C9400"/><text x="65" y="78" text-anchor="middle" font-size="10.5" font-weight="700" fill="#3a3d00">{0;0}</text><rect x="37" y="91" width="56" height="26" rx="4" fill="#F0F0F0" stroke="#8C8C8C"/><text x="65" y="108" text-anchor="middle" font-size="10" fill="#222">0.0</text><rect x="37" y="135" width="56" height="26" rx="4" fill="#F0F0F0" stroke="#8C8C8C"/><text x="65" y="152" text-anchor="middle" font-size="10" fill="#222">0.1</text><rect x="130" y="60" width="50" height="26" rx="4" fill="#E8F200" stroke="#8C9400"/><text x="155" y="78" text-anchor="middle" font-size="10.5" font-weight="700" fill="#3a3d00">{0;1}</text><rect x="127" y="91" width="56" height="26" rx="4" fill="#F0F0F0" stroke="#8C8C8C"/><text x="155" y="108" text-anchor="middle" font-size="10" fill="#222">0.2</text><rect x="220" y="60" width="50" height="26" rx="4" fill="#E8F200" stroke="#8C9400"/><text x="245" y="78" text-anchor="middle" font-size="10.5" font-weight="700" fill="#3a3d00">{1;0}</text><rect x="217" y="91" width="56" height="26" rx="4" fill="#F0F0F0" stroke="#8C8C8C"/><text x="245" y="108" text-anchor="middle" font-size="10" fill="#222">1.0</text><rect x="217" y="135" width="56" height="26" rx="4" fill="#F0F0F0" stroke="#8C8C8C"/><text x="245" y="152" text-anchor="middle" font-size="10" fill="#222">1.1</text><rect x="217" y="179" width="56" height="26" rx="4" fill="#F0F0F0" stroke="#8C8C8C"/><text x="245" y="196" text-anchor="middle" font-size="10" fill="#222">1.2</text><text x="40" y="250" font-size="11" fill="#555">Path {branch} chứa nhiều Item, mỗi Item có chỉ số riêng trong nhánh</text><text x="40" y="270" font-size="11" fill="#555">Đọc theo Data Matching Rhythm khi 2 tree khác cấu trúc ghép với nhau</text></svg>