<svg width="800" height="260" viewBox="0 0 800 260" xmlns="http://www.w3.org/2000/svg" font-family="Segoe UI, Arial, sans-serif"><defs><linearGradient id="ghBody" x1="0" y1="0" x2="0" y2="1"><stop offset="0%" stop-color="#F0F0F0"/><stop offset="100%" stop-color="#D8D8D8"/></linearGradient><pattern id="dg" width="18" height="18" patternUnits="userSpaceOnUse"><circle cx="1" cy="1" r="1" fill="#E0E0DA"/></pattern></defs><rect x="0" y="0" width="800" height="260" fill="#FAFAF7"/><rect x="0" y="0" width="800" height="260" fill="url(#dg)"/><rect x="40" y="80" width="150" height="90" rx="6" fill="url(#ghBody)" stroke="#8C8C8C" stroke-width="1.2"/><text x="115.0" y="100" text-anchor="middle" font-size="12" font-weight="700" fill="#222">Point</text><rect x="31" y="95.5" width="11" height="14" rx="3" fill="#E8E8E8" stroke="#8C8C8C"/><circle cx="36.5" cy="102.5" r="2.5" fill="#4A4A4A"/><text x="50" y="105.5" font-size="9" fill="#333">X</text><rect x="31" y="118.0" width="11" height="14" rx="3" fill="#E8E8E8" stroke="#8C8C8C"/><circle cx="36.5" cy="125.0" r="2.5" fill="#4A4A4A"/><text x="50" y="128.0" font-size="9" fill="#333">Y</text><rect x="31" y="140.5" width="11" height="14" rx="3" fill="#E8E8E8" stroke="#8C8C8C"/><circle cx="36.5" cy="147.5" r="2.5" fill="#4A4A4A"/><text x="50" y="150.5" font-size="9" fill="#333">Z</text><rect x="188" y="118.0" width="11" height="14" rx="3" fill="#E8E8E8" stroke="#8C8C8C"/><circle cx="193.5" cy="125.0" r="2.5" fill="#4A4A4A"/><rect x="260" y="80" width="150" height="90" rx="6" fill="url(#ghBody)" stroke="#8C8C8C" stroke-width="1.2"/><text x="335.0" y="100" text-anchor="middle" font-size="12" font-weight="700" fill="#222">Vector XYZ</text><rect x="251" y="95.5" width="11" height="14" rx="3" fill="#E8E8E8" stroke="#8C8C8C"/><circle cx="256.5" cy="102.5" r="2.5" fill="#4A4A4A"/><text x="270" y="105.5" font-size="9" fill="#333">X</text><rect x="251" y="118.0" width="11" height="14" rx="3" fill="#E8E8E8" stroke="#8C8C8C"/><circle cx="256.5" cy="125.0" r="2.5" fill="#4A4A4A"/><text x="270" y="128.0" font-size="9" fill="#333">Y</text><rect x="251" y="140.5" width="11" height="14" rx="3" fill="#E8E8E8" stroke="#8C8C8C"/><circle cx="256.5" cy="147.5" r="2.5" fill="#4A4A4A"/><text x="270" y="150.5" font-size="9" fill="#333">Z</text><rect x="408" y="118.0" width="11" height="14" rx="3" fill="#E8E8E8" stroke="#8C8C8C"/><circle cx="413.5" cy="125.0" r="2.5" fill="#4A4A4A"/><rect x="480" y="80" width="150" height="90" rx="6" fill="url(#ghBody)" stroke="#8C8C8C" stroke-width="1.2"/><text x="555.0" y="100" text-anchor="middle" font-size="12" font-weight="700" fill="#222">Move</text><rect x="471" y="103.0" width="11" height="14" rx="3" fill="#E8E8E8" stroke="#8C8C8C"/><circle cx="476.5" cy="110.0" r="2.5" fill="#4A4A4A"/><text x="490" y="113.0" font-size="9" fill="#333">G</text><rect x="471" y="133.0" width="11" height="14" rx="3" fill="#E8E8E8" stroke="#8C8C8C"/><circle cx="476.5" cy="140.0" r="2.5" fill="#4A4A4A"/><text x="490" y="143.0" font-size="9" fill="#333">T</text><rect x="628" y="118.0" width="11" height="14" rx="3" fill="#E8E8E8" stroke="#8C8C8C"/><circle cx="633.5" cy="125.0" r="2.5" fill="#4A4A4A"/><path d="M 201,125.0 C 336.0,125.0 336.0,110.0 471,110.0" stroke="#4A4A4A" stroke-width="1.4" fill="none"/><path d="M 421,125.0 C 446.0,125.0 446.0,140.0 471,140.0" stroke="#4A4A4A" stroke-width="1.4" fill="none"/><text x="40" y="220" font-size="11" fill="#555">Chuỗi 3 component nối tiếp — dữ liệu luôn chảy trái → phải, không quay vòng</text></svg>