<svg width="800" height="420" viewBox="0 0 800 420" xmlns="http://www.w3.org/2000/svg" font-family="Segoe UI, Arial, sans-serif"><defs><linearGradient id="ghBody" x1="0" y1="0" x2="0" y2="1"><stop offset="0%" stop-color="#F0F0F0"/><stop offset="100%" stop-color="#D8D8D8"/></linearGradient><pattern id="dg" width="18" height="18" patternUnits="userSpaceOnUse"><circle cx="1" cy="1" r="1" fill="#E0E0DA"/></pattern></defs><rect x="0" y="0" width="800" height="420" fill="#FAFAF7"/><rect x="0" y="0" width="800" height="420" fill="url(#dg)"/><rect x="20" y="20" width="380" height="380" fill="#FFFFFF" stroke="#8C8C8C" stroke-width="1.3"/><rect x="20" y="20" width="380" height="26" fill="#2C2C2C"/><text x="34" y="38" font-size="11" fill="#fff">Rhinoceros — Perspective</text><g stroke="#D8D8D8"><line x1="20" y1="330" x2="400" y2="330"/><line x1="20" y1="290" x2="400" y2="290"/></g><circle cx="210" cy="230" r="60" fill="none" stroke="#222" stroke-width="1.6"/><text x="34" y="60" font-size="10" fill="#888">Kết quả hình học hiện trực tiếp ở đây</text><rect x="410" y="60" width="370" height="330" fill="#EDEDE6" stroke="#8C8C8C" stroke-width="1.3"/><rect x="410" y="60" width="370" height="24" fill="#3a3d00"/><text x="424" y="77" font-size="11" fill="#fff">Grasshopper — untitled</text><rect x="410" y="84" width="370" height="20" fill="#E4E4DC"/><text x="418" y="98" font-size="9.5" fill="#333">Params  Maths  Sets  Vector  Curve  Surface...</text><rect x="410" y="104" width="370" height="286" fill="url(#dg)"/><rect x="440" y="200" width="120" height="28" rx="4" fill="#F0F0F0" stroke="#8C8C8C"/><rect x="446" y="211" width="80" height="6" rx="2" fill="#E4E4E4" stroke="#B0B0B0"/><circle cx="486" cy="214" r="3" fill="#8C8C8C"/><text x="564" y="218" font-size="9" fill="#333">R</text><rect x="610" y="185" width="120" height="58" rx="6" fill="url(#ghBody)" stroke="#8C8C8C" stroke-width="1.2"/><text x="670.0" y="219" text-anchor="middle" font-size="12" font-weight="700" fill="#222">Circle</text><rect x="601" y="207.0" width="11" height="14" rx="3" fill="#E8E8E8" stroke="#8C8C8C"/><circle cx="606.5" cy="214.0" r="2.5" fill="#4A4A4A"/><rect x="728" y="207.0" width="11" height="14" rx="3" fill="#E8E8E8" stroke="#8C8C8C"/><circle cx="733.5" cy="214.0" r="2.5" fill="#4A4A4A"/><path d="M 570,214 C 585.5,214 585.5,214.0 601,214.0" stroke="#4A4A4A" stroke-width="1.4" fill="none"/><path d="M 741,214.0 C 575.5,214.0 575.5,250 410,250" stroke="#4A4A4A" stroke-width="1.4" fill="none"/><text x="440" y="180" font-size="10" fill="#555">Component kéo-thả từ Palette</text><text x="440" y="380" font-size="9.5" fill="#888">2 cửa sổ Rhino + Grasshopper luôn chạy song song</text></svg>