<svg xmlns="http://www.w3.org/2000/svg" width="1180" height="300" viewBox="0 0 1180 300" font-family="Segoe UI, sans-serif">
<defs>
<linearGradient id="ghBody" x1="0" y1="0" x2="0" y2="1">
<stop offset="0%" stop-color="#F0F0F0"/><stop offset="100%" stop-color="#D8D8D8"/>
</linearGradient>
<pattern id="dots" width="18" height="18" patternUnits="userSpaceOnUse">
<circle cx="1" cy="1" r="1" fill="#E0E0DA"/>
</pattern>
</defs>

<rect x="0" y="0" width="1180" height="300" fill="#FAFAF7"/>
<rect x="0" y="0" width="1180" height="300" fill="url(#dots)"/>
<text x="16" y="24" font-size="14" font-weight="600" fill="#333">F.2.1.0 — Attractor Point định hướng lưới vòng tròn</text>
<g>
<rect x="40" y="74" width="132" height="56" rx="6" fill="url(#ghBody)" stroke="#8C8C8C" stroke-width="1"/>
<text x="106.0" y="106.0" text-anchor="middle" font-family="Segoe UI, sans-serif" font-size="12" fill="#222">Hexagonal Grid</text>
<rect x="32.0" y="94.0" width="10" height="16" rx="3" fill="#E8E8E8" stroke="#8C8C8C"/>
<circle cx="37.0" cy="102.0" r="2.5" fill="#4A4A4A"/>
<rect x="170.0" y="94.0" width="10" height="16" rx="3" fill="#E8E8E8" stroke="#8C8C8C"/>
<circle cx="175.0" cy="102.0" r="2.5" fill="#4A4A4A"/>
</g>
<g>
<rect x="236" y="74" width="132" height="56" rx="6" fill="url(#ghBody)" stroke="#8C8C8C" stroke-width="1"/>
<text x="302.0" y="106.0" text-anchor="middle" font-family="Segoe UI, sans-serif" font-size="12" fill="#222">Circle CNR</text>
<rect x="228.0" y="86.5" width="10" height="16" rx="3" fill="#E8E8E8" stroke="#8C8C8C"/>
<circle cx="233.0" cy="94.5" r="2.5" fill="#4A4A4A"/>
<rect x="228.0" y="101.5" width="10" height="16" rx="3" fill="#E8E8E8" stroke="#8C8C8C"/>
<circle cx="233.0" cy="109.5" r="2.5" fill="#4A4A4A"/>
<rect x="366.0" y="94.0" width="10" height="16" rx="3" fill="#E8E8E8" stroke="#8C8C8C"/>
<circle cx="371.0" cy="102.0" r="2.5" fill="#4A4A4A"/>
</g>
<path d="M 175.0,102.0 C 204.0,102.0 204.0,94.5 233.0,94.5" stroke="#4A4A4A" stroke-width="1.5" fill="none"/>
<g>
<rect x="432" y="74" width="132" height="56" rx="6" fill="url(#ghBody)" stroke="#8C8C8C" stroke-width="1"/>
<text x="498.0" y="106.0" text-anchor="middle" font-family="Segoe UI, sans-serif" font-size="12" fill="#222">Offset</text>
<rect x="424.0" y="94.0" width="10" height="16" rx="3" fill="#E8E8E8" stroke="#8C8C8C"/>
<circle cx="429.0" cy="102.0" r="2.5" fill="#4A4A4A"/>
<rect x="562.0" y="94.0" width="10" height="16" rx="3" fill="#E8E8E8" stroke="#8C8C8C"/>
<circle cx="567.0" cy="102.0" r="2.5" fill="#4A4A4A"/>
</g>
<path d="M 371.0,102.0 C 400.0,102.0 400.0,102.0 429.0,102.0" stroke="#4A4A4A" stroke-width="1.5" fill="none"/>
<g>
<rect x="628" y="74" width="132" height="56" rx="6" fill="url(#ghBody)" stroke="#8C8C8C" stroke-width="1"/>
<text x="694.0" y="106.0" text-anchor="middle" font-family="Segoe UI, sans-serif" font-size="12" fill="#222">Boundary Surfaces</text>
<rect x="620.0" y="94.0" width="10" height="16" rx="3" fill="#E8E8E8" stroke="#8C8C8C"/>
<circle cx="625.0" cy="102.0" r="2.5" fill="#4A4A4A"/>
<rect x="758.0" y="94.0" width="10" height="16" rx="3" fill="#E8E8E8" stroke="#8C8C8C"/>
<circle cx="763.0" cy="102.0" r="2.5" fill="#4A4A4A"/>
</g>
<path d="M 567.0,102.0 C 596.0,102.0 596.0,102.0 625.0,102.0" stroke="#4A4A4A" stroke-width="1.5" fill="none"/>
<g>
<rect x="824" y="74" width="132" height="56" rx="6" fill="url(#ghBody)" stroke="#8C8C8C" stroke-width="1"/>
<text x="890.0" y="106.0" text-anchor="middle" font-family="Segoe UI, sans-serif" font-size="12" fill="#222">Surface</text>
<rect x="816.0" y="94.0" width="10" height="16" rx="3" fill="#E8E8E8" stroke="#8C8C8C"/>
<circle cx="821.0" cy="102.0" r="2.5" fill="#4A4A4A"/>
<rect x="954.0" y="94.0" width="10" height="16" rx="3" fill="#E8E8E8" stroke="#8C8C8C"/>
<circle cx="959.0" cy="102.0" r="2.5" fill="#4A4A4A"/>
</g>
<path d="M 763.0,102.0 C 792.0,102.0 792.0,102.0 821.0,102.0" stroke="#4A4A4A" stroke-width="1.5" fill="none"/>
<g>
<rect x="176" y="210" width="132" height="56" rx="6" fill="url(#ghBody)" stroke="#8C8C8C" stroke-width="1"/>
<text x="242.0" y="236.0" text-anchor="middle" font-family="Segoe UI, sans-serif" font-size="12" fill="#222">Point</text>
<text x="242.0" y="251.0" text-anchor="middle" font-family="Consolas, monospace" font-size="9.5" fill="#555">(chọn tay)</text>
<rect x="168.0" y="230.0" width="10" height="16" rx="3" fill="#E8E8E8" stroke="#8C8C8C"/>
<circle cx="173.0" cy="238.0" r="2.5" fill="#4A4A4A"/>
<rect x="306.0" y="230.0" width="10" height="16" rx="3" fill="#E8E8E8" stroke="#8C8C8C"/>
<circle cx="311.0" cy="238.0" r="2.5" fill="#4A4A4A"/>
</g>
<g>
<rect x="276" y="210" width="132" height="56" rx="6" fill="url(#ghBody)" stroke="#8C8C8C" stroke-width="1"/>
<text x="342.0" y="242.0" text-anchor="middle" font-family="Segoe UI, sans-serif" font-size="12" fill="#222">Vector 2Pt</text>
<rect x="268.0" y="230.0" width="10" height="16" rx="3" fill="#E8E8E8" stroke="#8C8C8C"/>
<circle cx="273.0" cy="238.0" r="2.5" fill="#4A4A4A"/>
<rect x="406.0" y="230.0" width="10" height="16" rx="3" fill="#E8E8E8" stroke="#8C8C8C"/>
<circle cx="411.0" cy="238.0" r="2.5" fill="#4A4A4A"/>
</g>
<path d="M 311.0,238.0 C 292.0,238.0 292.0,238.0 273.0,238.0" stroke="#4A4A4A" stroke-width="1.5" fill="none"/>
<path d="M 411.0,238.0 C 322.0,238.0 322.0,109.5 233.0,109.5" stroke="#4A4A4A" stroke-width="1.5" fill="none"/>
<g>
<rect x="814" y="190" width="160" height="90" fill="#FFFFFF" stroke="#B0B0B0"/>
<g stroke="#D8D8D8" stroke-width="1">
<line x1="814" y1="268.0" x2="974" y2="268.0"/>
<line x1="814" y1="255.6" x2="974" y2="255.6"/>
<line x1="814" y1="247.2" x2="974" y2="247.2"/>
<line x1="814" y1="242.8" x2="974" y2="242.8"/>
</g>
<text x="820" y="204" font-family="Consolas, monospace" font-size="10" fill="#555">Perspective</text>
<g stroke="#4A4A4A" stroke-width="1" fill="#C2C2B8" fill-opacity="0.55">
<polygon points="859.0,227.0 929.0,217.0 929.0,251.0 859.0,261.0"/>
<line x1="876.5" y1="219.0" x2="872.5" y2="259.0" stroke-width="0.7"/>
<line x1="894.0" y1="219.0" x2="890.0" y2="259.0" stroke-width="0.7"/>
<line x1="911.5" y1="219.0" x2="907.5" y2="259.0" stroke-width="0.7"/>
</g>
</g>
</svg>