<svg xmlns="http://www.w3.org/2000/svg" width="900" height="260" viewBox="0 0 900 260" font-family="Segoe UI, sans-serif">
<defs>
<linearGradient id="ghBody" x1="0" y1="0" x2="0" y2="1">
<stop offset="0%" stop-color="#F0F0F0"/><stop offset="100%" stop-color="#D8D8D8"/>
</linearGradient>
<pattern id="dots" width="18" height="18" patternUnits="userSpaceOnUse">
<circle cx="1" cy="1" r="1" fill="#E0E0DA"/>
</pattern>
</defs>

<rect x="0" y="0" width="900" height="260" fill="#FAFAF7"/>
<rect x="0" y="0" width="900" height="260" fill="url(#dots)"/>
<text x="16" y="24" font-size="14" font-weight="600" fill="#333">F.1.1.0 — Cùng 1 component Circle CNR ở 3 chế độ hiển thị</text>
<g><rect x="50" y="70" width="150" height="70" rx="6" fill="url(#ghBody)" stroke="#8C8C8C" stroke-width="1"/>
</g>
<circle cx="125" cy="105" r="16" fill="none" stroke="#222" stroke-width="1.6"/>
<rect x="42.0" y="84.0" width="10" height="16" rx="3" fill="#E8E8E8" stroke="#8C8C8C"/>
<circle cx="47.0" cy="92.0" r="2.5" fill="#4A4A4A"/>
<rect x="42.0" y="110.0" width="10" height="16" rx="3" fill="#E8E8E8" stroke="#8C8C8C"/>
<circle cx="47.0" cy="118.0" r="2.5" fill="#4A4A4A"/>
<rect x="198.0" y="97.0" width="10" height="16" rx="3" fill="#E8E8E8" stroke="#8C8C8C"/>
<circle cx="205.0" cy="105.0" r="2.5" fill="#4A4A4A"/>
<text x="125" y="170" text-anchor="middle" font-family="Segoe UI, sans-serif" font-size="12" fill="#555">Icon Display</text>
<g><rect x="350" y="70" width="150" height="70" rx="6" fill="url(#ghBody)" stroke="#8C8C8C" stroke-width="1"/>
<text x="425.0" y="109.0" text-anchor="middle" font-family="Segoe UI, sans-serif" font-size="13" fill="#222">Circle</text>
</g>
<rect x="342.0" y="84.0" width="10" height="16" rx="3" fill="#E8E8E8" stroke="#8C8C8C"/>
<circle cx="347.0" cy="92.0" r="2.5" fill="#4A4A4A"/>
<rect x="342.0" y="110.0" width="10" height="16" rx="3" fill="#E8E8E8" stroke="#8C8C8C"/>
<circle cx="347.0" cy="118.0" r="2.5" fill="#4A4A4A"/>
<rect x="498.0" y="97.0" width="10" height="16" rx="3" fill="#E8E8E8" stroke="#8C8C8C"/>
<circle cx="505.0" cy="105.0" r="2.5" fill="#4A4A4A"/>
<text x="425" y="170" text-anchor="middle" font-family="Segoe UI, sans-serif" font-size="12" fill="#555">Label Display</text>
<g><rect x="620" y="70" width="170" height="90" rx="6" fill="url(#ghBody)" stroke="#8C8C8C" stroke-width="1"/>
<text x="705.0" y="119.0" text-anchor="middle" font-family="Segoe UI, sans-serif" font-size="13" fill="#222">Circle CNR</text>
</g>
<rect x="612.0" y="80.0" width="10" height="16" rx="3" fill="#E8E8E8" stroke="#8C8C8C"/>
<circle cx="617.0" cy="88.0" r="2.5" fill="#4A4A4A"/>
<text x="606.0" y="92.0" text-anchor="end" font-family="Consolas, monospace" font-size="10" fill="#555">C</text>
<rect x="612.0" y="106.0" width="10" height="16" rx="3" fill="#E8E8E8" stroke="#8C8C8C"/>
<circle cx="617.0" cy="114.0" r="2.5" fill="#4A4A4A"/>
<text x="606.0" y="118.0" text-anchor="end" font-family="Consolas, monospace" font-size="10" fill="#555">N</text>
<rect x="612.0" y="132.0" width="10" height="16" rx="3" fill="#E8E8E8" stroke="#8C8C8C"/>
<circle cx="617.0" cy="140.0" r="2.5" fill="#4A4A4A"/>
<text x="606.0" y="144.0" text-anchor="end" font-family="Consolas, monospace" font-size="10" fill="#555">R</text>
<rect x="788.0" y="107.0" width="10" height="16" rx="3" fill="#E8E8E8" stroke="#8C8C8C"/>
<circle cx="795.0" cy="115.0" r="2.5" fill="#4A4A4A"/>
<text x="802.0" y="119.0" text-anchor="start" font-family="Consolas, monospace" font-size="10" fill="#555">C</text>
<text x="705" y="190" text-anchor="middle" font-family="Segoe UI, sans-serif" font-size="12" fill="#555">Full Names Display</text>
</svg>