<svg width="640" height="300" viewBox="0 0 640 300" xmlns="http://www.w3.org/2000/svg" font-family="Segoe UI, Arial, sans-serif"><defs><linearGradient id="ghBody" x1="0" y1="0" x2="0" y2="1"><stop offset="0%" stop-color="#F0F0F0"/><stop offset="100%" stop-color="#D8D8D8"/></linearGradient><pattern id="dg" width="18" height="18" patternUnits="userSpaceOnUse"><circle cx="1" cy="1" r="1" fill="#E0E0DA"/></pattern></defs><rect x="0" y="0" width="640" height="300" fill="#FAFAF7"/><rect x="0" y="0" width="640" height="300" fill="url(#dg)"/><text x="30" y="34" font-size="13" font-weight="700" fill="#222">List (danh sách) — mỗi phần tử có 1 chỉ số (index) bắt đầu từ 0</text><rect x="40" y="80" width="70" height="50" rx="5" fill="#F0F0F0" stroke="#8C8C8C"/><text x="75" y="110" text-anchor="middle" font-size="16" font-weight="700" fill="#222">12</text><text x="75" y="148" text-anchor="middle" font-size="10" fill="#888">[0]</text><rect x="130" y="80" width="70" height="50" rx="5" fill="#c0392b" stroke="#8C8C8C"/><text x="165" y="110" text-anchor="middle" font-size="16" font-weight="700" fill="#fff">45</text><text x="165" y="148" text-anchor="middle" font-size="10" fill="#888">[1]</text><rect x="220" y="80" width="70" height="50" rx="5" fill="#F0F0F0" stroke="#8C8C8C"/><text x="255" y="110" text-anchor="middle" font-size="16" font-weight="700" fill="#222">7</text><text x="255" y="148" text-anchor="middle" font-size="10" fill="#888">[2]</text><rect x="310" y="80" width="70" height="50" rx="5" fill="#F0F0F0" stroke="#8C8C8C"/><text x="345" y="110" text-anchor="middle" font-size="16" font-weight="700" fill="#222">89</text><text x="345" y="148" text-anchor="middle" font-size="10" fill="#888">[3]</text><rect x="400" y="80" width="70" height="50" rx="5" fill="#c0392b" stroke="#8C8C8C"/><text x="435" y="110" text-anchor="middle" font-size="16" font-weight="700" fill="#fff">23</text><text x="435" y="148" text-anchor="middle" font-size="10" fill="#888">[4]</text><rect x="490" y="80" width="70" height="50" rx="5" fill="#F0F0F0" stroke="#8C8C8C"/><text x="525" y="110" text-anchor="middle" font-size="16" font-weight="700" fill="#222">3</text><text x="525" y="148" text-anchor="middle" font-size="10" fill="#888">[5]</text><text x="40" y="200" font-size="11" fill="#555">List Item [1,4] → lấy đúng 2 phần tử (đỏ) theo chỉ số</text><text x="40" y="220" font-size="11" fill="#555">Cull Pattern True-False-False → giữ 1, bỏ 2, lặp lại theo chu kỳ</text></svg>