<svg width="760" height="320" viewBox="0 0 760 320" xmlns="http://www.w3.org/2000/svg" font-family="Segoe UI, Arial, sans-serif"><defs><linearGradient id="ghBody" x1="0" y1="0" x2="0" y2="1"><stop offset="0%" stop-color="#F0F0F0"/><stop offset="100%" stop-color="#D8D8D8"/></linearGradient><pattern id="dg" width="18" height="18" patternUnits="userSpaceOnUse"><circle cx="1" cy="1" r="1" fill="#E0E0DA"/></pattern></defs><rect x="0" y="0" width="760" height="320" fill="#FAFAF7"/><rect x="0" y="0" width="760" height="320" fill="url(#dg)"/><rect x="260" y="100" width="240" height="110" rx="7" fill="url(#ghBody)" stroke="#8C8C8C" stroke-width="1.4"/><text x="380.0" y="161.0" text-anchor="middle" font-size="17" font-weight="700" fill="#222">Construct Point</text><rect x="251" y="120.5" width="11" height="14" rx="3" fill="#E8E8E8" stroke="#8C8C8C"/><circle cx="256.5" cy="127.5" r="2.5" fill="#4A4A4A"/><text x="272" y="131.5" font-size="11" fill="#333">X</text><rect x="251" y="148.0" width="11" height="14" rx="3" fill="#E8E8E8" stroke="#8C8C8C"/><circle cx="256.5" cy="155.0" r="2.5" fill="#4A4A4A"/><text x="272" y="159.0" font-size="11" fill="#333">Y</text><rect x="251" y="175.5" width="11" height="14" rx="3" fill="#E8E8E8" stroke="#8C8C8C"/><circle cx="256.5" cy="182.5" r="2.5" fill="#4A4A4A"/><text x="272" y="186.5" font-size="11" fill="#333">Z</text><rect x="498" y="148.0" width="11" height="14" rx="3" fill="#E8E8E8" stroke="#8C8C8C"/><circle cx="503.5" cy="155.0" r="2.5" fill="#4A4A4A"/><text x="490" y="143.0" text-anchor="end" font-size="11" fill="#333">Pt</text><line x1="251" y1="127.5" x2="60" y2="40" stroke="#c0392b" stroke-width="1"/><text x="20" y="34" font-size="12" font-weight="700" fill="#c0392b">Input (trái)</text><text x="20" y="50" font-size="10" fill="#555">Nhận dữ liệu vào</text><line x1="380.0" y1="100" x2="380.0" y2="40" stroke="#c0392b" stroke-width="1"/><text x="380.0" y="30" text-anchor="middle" font-size="12" font-weight="700" fill="#c0392b">Name / Icon</text><line x1="511" y1="155.0" x2="680" y2="180" stroke="#c0392b" stroke-width="1"/><text x="620" y="200" font-size="12" font-weight="700" fill="#c0392b">Output (phải)</text><text x="620" y="216" font-size="10" fill="#555">Trả kết quả ra</text><text x="80" y="270" font-size="10.5" fill="#888">Màu nền: xám = ổn định, cam = thiếu input, đỏ = lỗi kiểu dữ liệu</text></svg>