<svg xmlns="http://www.w3.org/2000/svg" width="1180" height="300" viewBox="0 0 1180 300" font-family="Segoe UI, sans-serif">
<defs>
<linearGradient id="ghBody" x1="0" y1="0" x2="0" y2="1">
<stop offset="0%" stop-color="#F0F0F0"/><stop offset="100%" stop-color="#D8D8D8"/>
</linearGradient>
<pattern id="dots" width="18" height="18" patternUnits="userSpaceOnUse">
<circle cx="1" cy="1" r="1" fill="#E0E0DA"/>
</pattern>
</defs>

<rect x="0" y="0" width="1180" height="300" fill="#FAFAF7"/>
<rect x="0" y="0" width="1180" height="300" fill="url(#dots)"/>
<text x="16" y="24" font-size="14" font-weight="600" fill="#333">F.2.2.3 — Sine/Cosine dựng đường Helix 3D</text>
<g>
<rect x="40" y="74" width="132" height="56" rx="6" fill="url(#ghBody)" stroke="#8C8C8C" stroke-width="1"/>
<text x="106.0" y="106.0" text-anchor="middle" font-family="Segoe UI, sans-serif" font-size="12" fill="#222">Linear Array</text>
<rect x="32.0" y="94.0" width="10" height="16" rx="3" fill="#E8E8E8" stroke="#8C8C8C"/>
<circle cx="37.0" cy="102.0" r="2.5" fill="#4A4A4A"/>
<rect x="170.0" y="94.0" width="10" height="16" rx="3" fill="#E8E8E8" stroke="#8C8C8C"/>
<circle cx="175.0" cy="102.0" r="2.5" fill="#4A4A4A"/>
</g>
<g>
<rect x="236" y="74" width="132" height="56" rx="6" fill="url(#ghBody)" stroke="#8C8C8C" stroke-width="1"/>
<text x="302.0" y="106.0" text-anchor="middle" font-family="Segoe UI, sans-serif" font-size="12" fill="#222">Deconstruct</text>
<rect x="228.0" y="94.0" width="10" height="16" rx="3" fill="#E8E8E8" stroke="#8C8C8C"/>
<circle cx="233.0" cy="102.0" r="2.5" fill="#4A4A4A"/>
<rect x="366.0" y="94.0" width="10" height="16" rx="3" fill="#E8E8E8" stroke="#8C8C8C"/>
<circle cx="371.0" cy="102.0" r="2.5" fill="#4A4A4A"/>
</g>
<path d="M 175.0,102.0 C 204.0,102.0 204.0,102.0 233.0,102.0" stroke="#4A4A4A" stroke-width="1.5" fill="none"/>
<g>
<rect x="432" y="74" width="132" height="56" rx="6" fill="url(#ghBody)" stroke="#8C8C8C" stroke-width="1"/>
<text x="498.0" y="106.0" text-anchor="middle" font-family="Segoe UI, sans-serif" font-size="12" fill="#222">Construct Point</text>
<rect x="424.0" y="84.0" width="10" height="16" rx="3" fill="#E8E8E8" stroke="#8C8C8C"/>
<circle cx="429.0" cy="92.0" r="2.5" fill="#4A4A4A"/>
<rect x="424.0" y="94.0" width="10" height="16" rx="3" fill="#E8E8E8" stroke="#8C8C8C"/>
<circle cx="429.0" cy="102.0" r="2.5" fill="#4A4A4A"/>
<rect x="424.0" y="104.0" width="10" height="16" rx="3" fill="#E8E8E8" stroke="#8C8C8C"/>
<circle cx="429.0" cy="112.0" r="2.5" fill="#4A4A4A"/>
<rect x="562.0" y="94.0" width="10" height="16" rx="3" fill="#E8E8E8" stroke="#8C8C8C"/>
<circle cx="567.0" cy="102.0" r="2.5" fill="#4A4A4A"/>
</g>
<g>
<rect x="628" y="74" width="132" height="56" rx="6" fill="url(#ghBody)" stroke="#8C8C8C" stroke-width="1"/>
<text x="694.0" y="106.0" text-anchor="middle" font-family="Segoe UI, sans-serif" font-size="12" fill="#222">Interpolate Curve</text>
<rect x="620.0" y="94.0" width="10" height="16" rx="3" fill="#E8E8E8" stroke="#8C8C8C"/>
<circle cx="625.0" cy="102.0" r="2.5" fill="#4A4A4A"/>
<rect x="758.0" y="94.0" width="10" height="16" rx="3" fill="#E8E8E8" stroke="#8C8C8C"/>
<circle cx="763.0" cy="102.0" r="2.5" fill="#4A4A4A"/>
</g>
<path d="M 567.0,102.0 C 596.0,102.0 596.0,102.0 625.0,102.0" stroke="#4A4A4A" stroke-width="1.5" fill="none"/>
<g>
<rect x="382" y="155" width="132" height="56" rx="6" fill="url(#ghBody)" stroke="#8C8C8C" stroke-width="1"/>
<text x="448.0" y="187.0" text-anchor="middle" font-family="Segoe UI, sans-serif" font-size="12" fill="#222">Sine</text>
<rect x="374.0" y="175.0" width="10" height="16" rx="3" fill="#E8E8E8" stroke="#8C8C8C"/>
<circle cx="379.0" cy="183.0" r="2.5" fill="#4A4A4A"/>
<rect x="512.0" y="175.0" width="10" height="16" rx="3" fill="#E8E8E8" stroke="#8C8C8C"/>
<circle cx="517.0" cy="183.0" r="2.5" fill="#4A4A4A"/>
</g>
<g>
<rect x="382" y="230" width="132" height="56" rx="6" fill="url(#ghBody)" stroke="#8C8C8C" stroke-width="1"/>
<text x="448.0" y="262.0" text-anchor="middle" font-family="Segoe UI, sans-serif" font-size="12" fill="#222">Cosine</text>
<rect x="374.0" y="250.0" width="10" height="16" rx="3" fill="#E8E8E8" stroke="#8C8C8C"/>
<circle cx="379.0" cy="258.0" r="2.5" fill="#4A4A4A"/>
<rect x="512.0" y="250.0" width="10" height="16" rx="3" fill="#E8E8E8" stroke="#8C8C8C"/>
<circle cx="517.0" cy="258.0" r="2.5" fill="#4A4A4A"/>
</g>
<path d="M 371.0,102.0 C 375.0,102.0 375.0,183.0 379.0,183.0" stroke="#4A4A4A" stroke-width="1.5" fill="none"/>
<path d="M 371.0,102.0 C 375.0,102.0 375.0,258.0 379.0,258.0" stroke="#4A4A4A" stroke-width="1.5" fill="none"/>
<path d="M 517.0,183.0 C 473.0,183.0 473.0,92.0 429.0,92.0" stroke="#4A4A4A" stroke-width="1.5" fill="none"/>
<path d="M 517.0,258.0 C 473.0,258.0 473.0,102.0 429.0,102.0" stroke="#4A4A4A" stroke-width="1.5" fill="none"/>
<path d="M 371.0,102.0 C 400.0,102.0 400.0,112.0 429.0,112.0" stroke="#4A4A4A" stroke-width="1.5" fill="none"/>
<g>
<rect x="618" y="190" width="160" height="90" fill="#FFFFFF" stroke="#B0B0B0"/>
<g stroke="#D8D8D8" stroke-width="1">
<line x1="618" y1="268.0" x2="778" y2="268.0"/>
<line x1="618" y1="255.6" x2="778" y2="255.6"/>
<line x1="618" y1="247.2" x2="778" y2="247.2"/>
<line x1="618" y1="242.8" x2="778" y2="242.8"/>
</g>
<text x="624" y="204" font-family="Consolas, monospace" font-size="10" fill="#555">Perspective</text>
<g stroke="#111" stroke-width="1.4" fill="none">
<path d="M 664.0,239.0 L 665.2,241.9 L 666.3,244.6 L 667.5,247.1 L 668.6,249.3 L 669.8,251.1 L 670.9,252.5 L 672.1,253.4 L 673.2,253.9 L 674.4,253.9 L 675.5,253.3 L 676.7,252.4 L 677.8,251.0 L 679.0,249.2 L 680.1,247.1 L 681.3,244.8 L 682.4,242.4 L 683.6,239.9 L 684.7,237.4 L 685.9,235.0 L 687.1,232.8 L 688.2,230.8 L 689.4,229.1 L 690.5,227.8 L 691.7,226.8 L 692.8,226.3 L 694.0,226.2 L 695.1,226.5 L 696.3,227.2 L 697.4,228.3 L 698.6,229.7 L 699.7,231.4 L 700.9,233.3 L 702.0,235.4 L 703.2,237.5 L 704.3,239.6 L 705.5,241.7 L 706.6,243.6 L 707.8,245.4 L 708.9,246.9 L 710.1,248.1 L 711.3,249.0 L 712.4,249.5 L 713.6,249.7 L 714.7,249.5 L 715.9,249.0 L 717.0,248.2 L 718.2,247.1 L 719.3,245.8 L 720.5,244.2 L 721.6,242.6 L 722.8,240.9 L 723.9,239.1 L 725.1,237.4 L 726.2,235.8 L 727.4,234.3 L 728.5,233.0 L 729.7,232.0 L 730.8,231.2 L 732.0,230.7"/>
</g>
</g>
</svg>