<svg xmlns="http://www.w3.org/2000/svg" width="1260" height="300" viewBox="0 0 1260 300" font-family="Segoe UI, sans-serif">
<defs>
<linearGradient id="ghBody" x1="0" y1="0" x2="0" y2="1">
<stop offset="0%" stop-color="#F0F0F0"/><stop offset="100%" stop-color="#D8D8D8"/>
</linearGradient>
<pattern id="dots" width="18" height="18" patternUnits="userSpaceOnUse">
<circle cx="1" cy="1" r="1" fill="#E0E0DA"/>
</pattern>
</defs>

<rect x="0" y="0" width="1260" height="300" fill="#FAFAF7"/>
<rect x="0" y="0" width="1260" height="300" fill="url(#dots)"/>
<text x="16" y="24" font-size="14" font-weight="600" fill="#333">F.2.2.4 — Expression x·sin(x)/x·cos(x) làm điểm gieo Voronoi</text>
<g>
<rect x="40" y="74" width="132" height="56" rx="6" fill="url(#ghBody)" stroke="#8C8C8C" stroke-width="1"/>
<text x="106.0" y="106.0" text-anchor="middle" font-family="Segoe UI, sans-serif" font-size="12" fill="#222">Deconstruct</text>
<rect x="32.0" y="94.0" width="10" height="16" rx="3" fill="#E8E8E8" stroke="#8C8C8C"/>
<circle cx="37.0" cy="102.0" r="2.5" fill="#4A4A4A"/>
<rect x="170.0" y="94.0" width="10" height="16" rx="3" fill="#E8E8E8" stroke="#8C8C8C"/>
<circle cx="175.0" cy="102.0" r="2.5" fill="#4A4A4A"/>
</g>
<g>
<rect x="236" y="74" width="132" height="56" rx="6" fill="url(#ghBody)" stroke="#8C8C8C" stroke-width="1"/>
<text x="302.0" y="106.0" text-anchor="middle" font-family="Segoe UI, sans-serif" font-size="12" fill="#222">Construct Point</text>
<rect x="228.0" y="86.5" width="10" height="16" rx="3" fill="#E8E8E8" stroke="#8C8C8C"/>
<circle cx="233.0" cy="94.5" r="2.5" fill="#4A4A4A"/>
<rect x="228.0" y="101.5" width="10" height="16" rx="3" fill="#E8E8E8" stroke="#8C8C8C"/>
<circle cx="233.0" cy="109.5" r="2.5" fill="#4A4A4A"/>
<rect x="366.0" y="94.0" width="10" height="16" rx="3" fill="#E8E8E8" stroke="#8C8C8C"/>
<circle cx="371.0" cy="102.0" r="2.5" fill="#4A4A4A"/>
</g>
<g>
<rect x="432" y="74" width="132" height="56" rx="6" fill="url(#ghBody)" stroke="#8C8C8C" stroke-width="1"/>
<text x="498.0" y="106.0" text-anchor="middle" font-family="Segoe UI, sans-serif" font-size="12" fill="#222">Voronoi</text>
<rect x="424.0" y="86.5" width="10" height="16" rx="3" fill="#E8E8E8" stroke="#8C8C8C"/>
<circle cx="429.0" cy="94.5" r="2.5" fill="#4A4A4A"/>
<rect x="424.0" y="101.5" width="10" height="16" rx="3" fill="#E8E8E8" stroke="#8C8C8C"/>
<circle cx="429.0" cy="109.5" r="2.5" fill="#4A4A4A"/>
<rect x="562.0" y="94.0" width="10" height="16" rx="3" fill="#E8E8E8" stroke="#8C8C8C"/>
<circle cx="567.0" cy="102.0" r="2.5" fill="#4A4A4A"/>
</g>
<path d="M 371.0,102.0 C 400.0,102.0 400.0,94.5 429.0,94.5" stroke="#4A4A4A" stroke-width="1.5" fill="none"/>
<g>
<rect x="186" y="155" width="132" height="56" rx="6" fill="url(#ghBody)" stroke="#8C8C8C" stroke-width="1"/>
<text x="252.0" y="181.0" text-anchor="middle" font-family="Segoe UI, sans-serif" font-size="12" fill="#222">Expression</text>
<text x="252.0" y="196.0" text-anchor="middle" font-family="Consolas, monospace" font-size="9.5" fill="#555">x*sin(x)</text>
<rect x="178.0" y="175.0" width="10" height="16" rx="3" fill="#E8E8E8" stroke="#8C8C8C"/>
<circle cx="183.0" cy="183.0" r="2.5" fill="#4A4A4A"/>
<rect x="316.0" y="175.0" width="10" height="16" rx="3" fill="#E8E8E8" stroke="#8C8C8C"/>
<circle cx="321.0" cy="183.0" r="2.5" fill="#4A4A4A"/>
</g>
<g>
<rect x="186" y="230" width="132" height="56" rx="6" fill="url(#ghBody)" stroke="#8C8C8C" stroke-width="1"/>
<text x="252.0" y="256.0" text-anchor="middle" font-family="Segoe UI, sans-serif" font-size="12" fill="#222">Expression</text>
<text x="252.0" y="271.0" text-anchor="middle" font-family="Consolas, monospace" font-size="9.5" fill="#555">x*cos(x)</text>
<rect x="178.0" y="250.0" width="10" height="16" rx="3" fill="#E8E8E8" stroke="#8C8C8C"/>
<circle cx="183.0" cy="258.0" r="2.5" fill="#4A4A4A"/>
<rect x="316.0" y="250.0" width="10" height="16" rx="3" fill="#E8E8E8" stroke="#8C8C8C"/>
<circle cx="321.0" cy="258.0" r="2.5" fill="#4A4A4A"/>
</g>
<path d="M 175.0,102.0 C 179.0,102.0 179.0,183.0 183.0,183.0" stroke="#4A4A4A" stroke-width="1.5" fill="none"/>
<path d="M 175.0,102.0 C 179.0,102.0 179.0,258.0 183.0,258.0" stroke="#4A4A4A" stroke-width="1.5" fill="none"/>
<path d="M 321.0,183.0 C 277.0,183.0 277.0,94.5 233.0,94.5" stroke="#4A4A4A" stroke-width="1.5" fill="none"/>
<path d="M 321.0,258.0 C 277.0,258.0 277.0,109.5 233.0,109.5" stroke="#4A4A4A" stroke-width="1.5" fill="none"/>
<g>
<rect x="392" y="230" width="132" height="56" rx="6" fill="url(#ghBody)" stroke="#8C8C8C" stroke-width="1"/>
<text x="458.0" y="256.0" text-anchor="middle" font-family="Segoe UI, sans-serif" font-size="12" fill="#222">Radius</text>
<text x="458.0" y="271.0" text-anchor="middle" font-family="Consolas, monospace" font-size="9.5" fill="#555">Number Slider</text>
<rect x="384.0" y="250.0" width="10" height="16" rx="3" fill="#E8E8E8" stroke="#8C8C8C"/>
<circle cx="389.0" cy="258.0" r="2.5" fill="#4A4A4A"/>
<rect x="522.0" y="250.0" width="10" height="16" rx="3" fill="#E8E8E8" stroke="#8C8C8C"/>
<circle cx="527.0" cy="258.0" r="2.5" fill="#4A4A4A"/>
</g>
<path d="M 527.0,258.0 C 478.0,258.0 478.0,109.5 429.0,109.5" stroke="#4A4A4A" stroke-width="1.5" fill="none"/>
<g>
<rect x="604" y="68" width="160" height="90" fill="#FFFFFF" stroke="#B0B0B0"/>
<g stroke="#D8D8D8" stroke-width="1">
<line x1="604" y1="146.0" x2="764" y2="146.0"/>
<line x1="604" y1="133.6" x2="764" y2="133.6"/>
<line x1="604" y1="125.2" x2="764" y2="125.2"/>
<line x1="604" y1="120.8" x2="764" y2="120.8"/>
</g>
<text x="610" y="82" font-family="Consolas, monospace" font-size="10" fill="#555">Perspective</text>
<g stroke="#111" stroke-width="1" fill="none">
<polygon points="654.0,103.0 676.0,97.0 688.0,111.0 678.0,127.0 658.0,123.0"/>
<polygon points="676.0,97.0 700.0,101.0 704.0,119.0 688.0,111.0"/>
<polygon points="688.0,111.0 704.0,119.0 698.0,137.0 678.0,127.0"/>
<polygon points="700.0,101.0 718.0,107.0 714.0,127.0 704.0,119.0"/>
</g>
</g>
</svg>