<svg xmlns="http://www.w3.org/2000/svg" width="1300" height="300" viewBox="0 0 1300 300" font-family="Segoe UI, sans-serif">
<defs>
<linearGradient id="ghBody" x1="0" y1="0" x2="0" y2="1">
<stop offset="0%" stop-color="#F0F0F0"/><stop offset="100%" stop-color="#D8D8D8"/>
</linearGradient>
<pattern id="dots" width="18" height="18" patternUnits="userSpaceOnUse">
<circle cx="1" cy="1" r="1" fill="#E0E0DA"/>
</pattern>
</defs>

<rect x="0" y="0" width="1300" height="300" fill="#FAFAF7"/>
<rect x="0" y="0" width="1300" height="300" fill="url(#dots)"/>
<text x="16" y="24" font-size="14" font-weight="600" fill="#333">F.1.4.1 — Curve → Circle bán kính biến thiên (Graph Mapper) → Loft</text>
<g>
<rect x="40" y="74" width="132" height="56" rx="6" fill="url(#ghBody)" stroke="#8C8C8C" stroke-width="1"/>
<text x="106.0" y="100.0" text-anchor="middle" font-family="Segoe UI, sans-serif" font-size="12" fill="#222">Curve</text>
<text x="106.0" y="115.0" text-anchor="middle" font-family="Consolas, monospace" font-size="9.5" fill="#555">(reference)</text>
<rect x="32.0" y="94.0" width="10" height="16" rx="3" fill="#E8E8E8" stroke="#8C8C8C"/>
<circle cx="37.0" cy="102.0" r="2.5" fill="#4A4A4A"/>
<rect x="170.0" y="94.0" width="10" height="16" rx="3" fill="#E8E8E8" stroke="#8C8C8C"/>
<circle cx="175.0" cy="102.0" r="2.5" fill="#4A4A4A"/>
</g>
<g>
<rect x="228" y="74" width="132" height="56" rx="6" fill="url(#ghBody)" stroke="#8C8C8C" stroke-width="1"/>
<text x="294.0" y="106.0" text-anchor="middle" font-family="Segoe UI, sans-serif" font-size="12" fill="#222">Reparametrize</text>
<rect x="220.0" y="94.0" width="10" height="16" rx="3" fill="#E8E8E8" stroke="#8C8C8C"/>
<circle cx="225.0" cy="102.0" r="2.5" fill="#4A4A4A"/>
<rect x="358.0" y="94.0" width="10" height="16" rx="3" fill="#E8E8E8" stroke="#8C8C8C"/>
<circle cx="363.0" cy="102.0" r="2.5" fill="#4A4A4A"/>
</g>
<path d="M 175.0,102.0 C 200.0,102.0 200.0,102.0 225.0,102.0" stroke="#4A4A4A" stroke-width="1.5" fill="none"/>
<g>
<rect x="416" y="74" width="132" height="56" rx="6" fill="url(#ghBody)" stroke="#8C8C8C" stroke-width="1"/>
<text x="482.0" y="100.0" text-anchor="middle" font-family="Segoe UI, sans-serif" font-size="12" fill="#222">Divide Curve</text>
<text x="482.0" y="115.0" text-anchor="middle" font-family="Consolas, monospace" font-size="9.5" fill="#555">13 đoạn</text>
<rect x="408.0" y="94.0" width="10" height="16" rx="3" fill="#E8E8E8" stroke="#8C8C8C"/>
<circle cx="413.0" cy="102.0" r="2.5" fill="#4A4A4A"/>
<rect x="546.0" y="94.0" width="10" height="16" rx="3" fill="#E8E8E8" stroke="#8C8C8C"/>
<circle cx="551.0" cy="102.0" r="2.5" fill="#4A4A4A"/>
</g>
<path d="M 363.0,102.0 C 388.0,102.0 388.0,102.0 413.0,102.0" stroke="#4A4A4A" stroke-width="1.5" fill="none"/>
<g>
<rect x="604" y="74" width="132" height="56" rx="6" fill="url(#ghBody)" stroke="#8C8C8C" stroke-width="1"/>
<text x="670.0" y="100.0" text-anchor="middle" font-family="Segoe UI, sans-serif" font-size="12" fill="#222">Circle</text>
<text x="670.0" y="115.0" text-anchor="middle" font-family="Consolas, monospace" font-size="9.5" fill="#555">⊥ tangent</text>
<rect x="596.0" y="86.5" width="10" height="16" rx="3" fill="#E8E8E8" stroke="#8C8C8C"/>
<circle cx="601.0" cy="94.5" r="2.5" fill="#4A4A4A"/>
<rect x="596.0" y="101.5" width="10" height="16" rx="3" fill="#E8E8E8" stroke="#8C8C8C"/>
<circle cx="601.0" cy="109.5" r="2.5" fill="#4A4A4A"/>
<rect x="734.0" y="94.0" width="10" height="16" rx="3" fill="#E8E8E8" stroke="#8C8C8C"/>
<circle cx="739.0" cy="102.0" r="2.5" fill="#4A4A4A"/>
</g>
<path d="M 551.0,102.0 C 576.0,102.0 576.0,94.5 601.0,94.5" stroke="#4A4A4A" stroke-width="1.5" fill="none"/>
<g>
<rect x="792" y="74" width="132" height="56" rx="6" fill="url(#ghBody)" stroke="#8C8C8C" stroke-width="1"/>
<text x="858.0" y="106.0" text-anchor="middle" font-family="Segoe UI, sans-serif" font-size="12" fill="#222">Loft</text>
<rect x="784.0" y="94.0" width="10" height="16" rx="3" fill="#E8E8E8" stroke="#8C8C8C"/>
<circle cx="789.0" cy="102.0" r="2.5" fill="#4A4A4A"/>
<rect x="922.0" y="94.0" width="10" height="16" rx="3" fill="#E8E8E8" stroke="#8C8C8C"/>
<circle cx="927.0" cy="102.0" r="2.5" fill="#4A4A4A"/>
</g>
<path d="M 739.0,102.0 C 764.0,102.0 764.0,102.0 789.0,102.0" stroke="#4A4A4A" stroke-width="1.5" fill="none"/>
<g>
<rect x="416" y="210" width="132" height="56" rx="6" fill="url(#ghBody)" stroke="#8C8C8C" stroke-width="1"/>
<text x="482.0" y="236.0" text-anchor="middle" font-family="Segoe UI, sans-serif" font-size="12" fill="#222">Graph Mapper</text>
<text x="482.0" y="251.0" text-anchor="middle" font-family="Consolas, monospace" font-size="9.5" fill="#555">đồ thị t</text>
<rect x="408.0" y="230.0" width="10" height="16" rx="3" fill="#E8E8E8" stroke="#8C8C8C"/>
<circle cx="413.0" cy="238.0" r="2.5" fill="#4A4A4A"/>
<rect x="546.0" y="230.0" width="10" height="16" rx="3" fill="#E8E8E8" stroke="#8C8C8C"/>
<circle cx="551.0" cy="238.0" r="2.5" fill="#4A4A4A"/>
</g>
<path d="M 551.0,102.0 C 482.0,102.0 482.0,238.0 413.0,238.0" stroke="#4A4A4A" stroke-width="1.5" fill="none"/>
<g>
<rect x="604" y="210" width="132" height="56" rx="6" fill="url(#ghBody)" stroke="#8C8C8C" stroke-width="1"/>
<text x="670.0" y="236.0" text-anchor="middle" font-family="Segoe UI, sans-serif" font-size="12" fill="#222">Multiply</text>
<text x="670.0" y="251.0" text-anchor="middle" font-family="Consolas, monospace" font-size="9.5" fill="#555">× 27</text>
<rect x="596.0" y="230.0" width="10" height="16" rx="3" fill="#E8E8E8" stroke="#8C8C8C"/>
<circle cx="601.0" cy="238.0" r="2.5" fill="#4A4A4A"/>
<rect x="734.0" y="230.0" width="10" height="16" rx="3" fill="#E8E8E8" stroke="#8C8C8C"/>
<circle cx="739.0" cy="238.0" r="2.5" fill="#4A4A4A"/>
</g>
<path d="M 551.0,238.0 C 576.0,238.0 576.0,238.0 601.0,238.0" stroke="#4A4A4A" stroke-width="1.5" fill="none"/>
<path d="M 739.0,238.0 C 670.0,238.0 670.0,109.5 601.0,109.5" stroke="#4A4A4A" stroke-width="1.5" fill="none"/>
<g>
<rect x="964" y="68" width="160" height="90" fill="#FFFFFF" stroke="#B0B0B0"/>
<g stroke="#D8D8D8" stroke-width="1">
<line x1="964" y1="146.0" x2="1124" y2="146.0"/>
<line x1="964" y1="133.6" x2="1124" y2="133.6"/>
<line x1="964" y1="125.2" x2="1124" y2="125.2"/>
<line x1="964" y1="120.8" x2="1124" y2="120.8"/>
</g>
<text x="970" y="82" font-family="Consolas, monospace" font-size="10" fill="#555">Perspective</text>
<g stroke="#111" stroke-width="1" fill="none">
<ellipse cx="1016.0" cy="117.0" rx="4" ry="8" />
<ellipse cx="1035.0" cy="117.0" rx="4" ry="11" />
<ellipse cx="1054.0" cy="117.0" rx="4" ry="14" />
<ellipse cx="1073.0" cy="117.0" rx="4" ry="17" />
<path d="M 1016.0,109.0 C 1035.0,97.0 1054.0,93.0 1073.0,88.0" fill="#C2C2B8" fill-opacity="0.4"/>
<path d="M 1016.0,125.0 C 1035.0,137.0 1054.0,141.0 1073.0,146.0" fill="#C2C2B8" fill-opacity="0.4"/>
</g>
</g>
</svg>