<svg xmlns="http://www.w3.org/2000/svg" width="1560" height="300" viewBox="0 0 1560 300" font-family="Segoe UI, sans-serif">
<defs>
<linearGradient id="ghBody" x1="0" y1="0" x2="0" y2="1">
<stop offset="0%" stop-color="#F0F0F0"/><stop offset="100%" stop-color="#D8D8D8"/>
</linearGradient>
<pattern id="dots" width="18" height="18" patternUnits="userSpaceOnUse">
<circle cx="1" cy="1" r="1" fill="#E0E0DA"/>
</pattern>
</defs>

<rect x="0" y="0" width="1560" height="300" fill="#FAFAF7"/>
<rect x="0" y="0" width="1560" height="300" fill="url(#dots)"/>
<text x="16" y="24" font-size="14" font-weight="600" fill="#333">Bản TÁI TẠO — chuỗi component dựng pattern Voronoi xoắn (đạt kết quả tương tự video)</text>
<g>
<rect x="34" y="96" width="132" height="56" rx="6" fill="url(#ghBody)" stroke="#8C8C8C" stroke-width="1"/>
<text x="100.0" y="128.0" text-anchor="middle" font-family="Segoe UI, sans-serif" font-size="12" fill="#222">Line SDL</text>
<rect x="26.0" y="106.0" width="10" height="16" rx="3" fill="#E8E8E8" stroke="#8C8C8C"/>
<circle cx="31.0" cy="114.0" r="2.5" fill="#4A4A4A"/>
<rect x="26.0" y="116.0" width="10" height="16" rx="3" fill="#E8E8E8" stroke="#8C8C8C"/>
<circle cx="31.0" cy="124.0" r="2.5" fill="#4A4A4A"/>
<rect x="26.0" y="126.0" width="10" height="16" rx="3" fill="#E8E8E8" stroke="#8C8C8C"/>
<circle cx="31.0" cy="134.0" r="2.5" fill="#4A4A4A"/>
<rect x="164.0" y="116.0" width="10" height="16" rx="3" fill="#E8E8E8" stroke="#8C8C8C"/>
<circle cx="169.0" cy="124.0" r="2.5" fill="#4A4A4A"/>
</g>
<g>
<rect x="210" y="96" width="132" height="56" rx="6" fill="url(#ghBody)" stroke="#8C8C8C" stroke-width="1"/>
<text x="276.0" y="128.0" text-anchor="middle" font-family="Segoe UI, sans-serif" font-size="12" fill="#222">Polar Array</text>
<rect x="202.0" y="108.5" width="10" height="16" rx="3" fill="#E8E8E8" stroke="#8C8C8C"/>
<circle cx="207.0" cy="116.5" r="2.5" fill="#4A4A4A"/>
<rect x="202.0" y="123.5" width="10" height="16" rx="3" fill="#E8E8E8" stroke="#8C8C8C"/>
<circle cx="207.0" cy="131.5" r="2.5" fill="#4A4A4A"/>
<rect x="340.0" y="116.0" width="10" height="16" rx="3" fill="#E8E8E8" stroke="#8C8C8C"/>
<circle cx="345.0" cy="124.0" r="2.5" fill="#4A4A4A"/>
</g>
<path d="M 169.0,124.0 C 188.0,124.0 188.0,116.5 207.0,116.5" stroke="#4A4A4A" stroke-width="1.5" fill="none"/>
<g>
<rect x="386" y="96" width="132" height="56" rx="6" fill="url(#ghBody)" stroke="#8C8C8C" stroke-width="1"/>
<text x="452.0" y="128.0" text-anchor="middle" font-family="Segoe UI, sans-serif" font-size="12" fill="#222">Maelstrom</text>
<rect x="378.0" y="108.5" width="10" height="16" rx="3" fill="#E8E8E8" stroke="#8C8C8C"/>
<circle cx="383.0" cy="116.5" r="2.5" fill="#4A4A4A"/>
<rect x="378.0" y="123.5" width="10" height="16" rx="3" fill="#E8E8E8" stroke="#8C8C8C"/>
<circle cx="383.0" cy="131.5" r="2.5" fill="#4A4A4A"/>
<rect x="516.0" y="116.0" width="10" height="16" rx="3" fill="#E8E8E8" stroke="#8C8C8C"/>
<circle cx="521.0" cy="124.0" r="2.5" fill="#4A4A4A"/>
</g>
<path d="M 345.0,124.0 C 364.0,124.0 364.0,116.5 383.0,116.5" stroke="#4A4A4A" stroke-width="1.5" fill="none"/>
<g>
<rect x="562" y="96" width="132" height="56" rx="6" fill="url(#ghBody)" stroke="#8C8C8C" stroke-width="1"/>
<text x="628.0" y="128.0" text-anchor="middle" font-family="Segoe UI, sans-serif" font-size="12" fill="#222">Divide Curve</text>
<rect x="554.0" y="108.5" width="10" height="16" rx="3" fill="#E8E8E8" stroke="#8C8C8C"/>
<circle cx="559.0" cy="116.5" r="2.5" fill="#4A4A4A"/>
<rect x="554.0" y="123.5" width="10" height="16" rx="3" fill="#E8E8E8" stroke="#8C8C8C"/>
<circle cx="559.0" cy="131.5" r="2.5" fill="#4A4A4A"/>
<rect x="692.0" y="116.0" width="10" height="16" rx="3" fill="#E8E8E8" stroke="#8C8C8C"/>
<circle cx="697.0" cy="124.0" r="2.5" fill="#4A4A4A"/>
</g>
<path d="M 521.0,124.0 C 540.0,124.0 540.0,116.5 559.0,116.5" stroke="#4A4A4A" stroke-width="1.5" fill="none"/>
<g>
<rect x="738" y="96" width="132" height="56" rx="6" fill="url(#ghBody)" stroke="#8C8C8C" stroke-width="1"/>
<text x="804.0" y="128.0" text-anchor="middle" font-family="Segoe UI, sans-serif" font-size="12" fill="#222">Voronoi</text>
<rect x="730.0" y="108.5" width="10" height="16" rx="3" fill="#E8E8E8" stroke="#8C8C8C"/>
<circle cx="735.0" cy="116.5" r="2.5" fill="#4A4A4A"/>
<rect x="730.0" y="123.5" width="10" height="16" rx="3" fill="#E8E8E8" stroke="#8C8C8C"/>
<circle cx="735.0" cy="131.5" r="2.5" fill="#4A4A4A"/>
<rect x="868.0" y="116.0" width="10" height="16" rx="3" fill="#E8E8E8" stroke="#8C8C8C"/>
<circle cx="873.0" cy="124.0" r="2.5" fill="#4A4A4A"/>
</g>
<path d="M 697.0,124.0 C 716.0,124.0 716.0,116.5 735.0,116.5" stroke="#4A4A4A" stroke-width="1.5" fill="none"/>
<text x="705" y="118" font-family="Consolas, monospace" font-size="9" fill="#777">Flatten</text>
<g>
<rect x="914" y="96" width="132" height="56" rx="6" fill="url(#ghBody)" stroke="#8C8C8C" stroke-width="1"/>
<text x="980.0" y="128.0" text-anchor="middle" font-family="Segoe UI, sans-serif" font-size="12" fill="#222">Fillet</text>
<rect x="906.0" y="108.5" width="10" height="16" rx="3" fill="#E8E8E8" stroke="#8C8C8C"/>
<circle cx="911.0" cy="116.5" r="2.5" fill="#4A4A4A"/>
<rect x="906.0" y="123.5" width="10" height="16" rx="3" fill="#E8E8E8" stroke="#8C8C8C"/>
<circle cx="911.0" cy="131.5" r="2.5" fill="#4A4A4A"/>
<rect x="1044.0" y="116.0" width="10" height="16" rx="3" fill="#E8E8E8" stroke="#8C8C8C"/>
<circle cx="1049.0" cy="124.0" r="2.5" fill="#4A4A4A"/>
</g>
<path d="M 873.0,124.0 C 892.0,124.0 892.0,116.5 911.0,116.5" stroke="#4A4A4A" stroke-width="1.5" fill="none"/>
<g>
<rect x="1086" y="80" width="172" height="118" fill="#FFFFFF" stroke="#B0B0B0"/>
<g stroke="#D8D8D8" stroke-width="1">
<line x1="1086" y1="186.0" x2="1258" y2="186.0"/>
<line x1="1086" y1="169.1" x2="1258" y2="169.1"/>
<line x1="1086" y1="156.2" x2="1258" y2="156.2"/>
<line x1="1086" y1="147.4" x2="1258" y2="147.4"/>
</g>
<text x="1092" y="94" font-family="Consolas, monospace" font-size="10" fill="#555">Perspective</text>
<g stroke="#111" stroke-width="1" fill="none">
<line x1="1177.9" y1="145.9" x2="1185.1" y2="150.0"/>
<line x1="1185.1" y1="150.0" x2="1190.4" y2="157.0"/>
<line x1="1190.4" y1="157.0" x2="1193.1" y2="166.3"/>
<line x1="1193.1" y1="166.3" x2="1192.5" y2="177.0"/>
<line x1="1176.2" y1="149.2" x2="1179.6" y2="156.8"/>
<line x1="1179.6" y1="156.8" x2="1179.8" y2="165.6"/>
<line x1="1179.8" y1="165.6" x2="1176.6" y2="174.6"/>
<line x1="1176.6" y1="174.6" x2="1169.8" y2="182.9"/>
<line x1="1172.9" y1="150.9" x2="1171.2" y2="159.0"/>
<line x1="1171.2" y1="159.0" x2="1166.2" y2="166.2"/>
<line x1="1166.2" y1="166.2" x2="1158.3" y2="171.7"/>
<line x1="1158.3" y1="171.7" x2="1147.9" y2="174.4"/>
<line x1="1169.3" y1="150.3" x2="1163.2" y2="155.9"/>
<line x1="1163.2" y1="155.9" x2="1154.9" y2="158.8"/>
<line x1="1154.9" y1="158.8" x2="1145.2" y2="158.5"/>
<line x1="1145.2" y1="158.5" x2="1135.2" y2="154.6"/>
<line x1="1166.7" y1="147.7" x2="1158.5" y2="148.6"/>
<line x1="1158.5" y1="148.6" x2="1150.0" y2="146.1"/>
<line x1="1150.0" y1="146.1" x2="1142.4" y2="140.2"/>
<line x1="1142.4" y1="140.2" x2="1136.6" y2="131.2"/>
<line x1="1166.1" y1="144.1" x2="1158.9" y2="140.0"/>
<line x1="1158.9" y1="140.0" x2="1153.6" y2="133.0"/>
<line x1="1153.6" y1="133.0" x2="1150.9" y2="123.7"/>
<line x1="1150.9" y1="123.7" x2="1151.5" y2="113.0"/>
<line x1="1167.8" y1="140.8" x2="1164.4" y2="133.2"/>
<line x1="1164.4" y1="133.2" x2="1164.2" y2="124.4"/>
<line x1="1164.2" y1="124.4" x2="1167.4" y2="115.4"/>
<line x1="1167.4" y1="115.4" x2="1174.2" y2="107.1"/>
<line x1="1171.1" y1="139.1" x2="1172.8" y2="131.0"/>
<line x1="1172.8" y1="131.0" x2="1177.8" y2="123.8"/>
<line x1="1177.8" y1="123.8" x2="1185.7" y2="118.3"/>
<line x1="1185.7" y1="118.3" x2="1196.1" y2="115.6"/>
<line x1="1174.7" y1="139.7" x2="1180.8" y2="134.1"/>
<line x1="1180.8" y1="134.1" x2="1189.1" y2="131.2"/>
<line x1="1189.1" y1="131.2" x2="1198.8" y2="131.5"/>
<line x1="1198.8" y1="131.5" x2="1208.8" y2="135.4"/>
<line x1="1177.3" y1="142.3" x2="1185.5" y2="141.4"/>
<line x1="1185.5" y1="141.4" x2="1194.0" y2="143.9"/>
<line x1="1194.0" y1="143.9" x2="1201.6" y2="149.8"/>
<line x1="1201.6" y1="149.8" x2="1207.4" y2="158.8"/>
<line x1="1185.1" y1="150.0" x2="1179.6" y2="156.8"/>
<line x1="1179.6" y1="156.8" x2="1171.2" y2="159.0"/>
<line x1="1171.2" y1="159.0" x2="1163.2" y2="155.9"/>
<line x1="1163.2" y1="155.9" x2="1158.5" y2="148.6"/>
<line x1="1158.5" y1="148.6" x2="1158.9" y2="140.0"/>
<line x1="1158.9" y1="140.0" x2="1164.4" y2="133.2"/>
<line x1="1164.4" y1="133.2" x2="1172.8" y2="131.0"/>
<line x1="1172.8" y1="131.0" x2="1180.8" y2="134.1"/>
<line x1="1180.8" y1="134.1" x2="1185.5" y2="141.4"/>
<line x1="1185.5" y1="141.4" x2="1185.1" y2="150.0"/>
<line x1="1190.4" y1="157.0" x2="1179.8" y2="165.6"/>
<line x1="1179.8" y1="165.6" x2="1166.2" y2="166.2"/>
<line x1="1166.2" y1="166.2" x2="1154.9" y2="158.8"/>
<line x1="1154.9" y1="158.8" x2="1150.0" y2="146.1"/>
<line x1="1150.0" y1="146.1" x2="1153.6" y2="133.0"/>
<line x1="1153.6" y1="133.0" x2="1164.2" y2="124.4"/>
<line x1="1164.2" y1="124.4" x2="1177.8" y2="123.8"/>
<line x1="1177.8" y1="123.8" x2="1189.1" y2="131.2"/>
<line x1="1189.1" y1="131.2" x2="1194.0" y2="143.9"/>
<line x1="1194.0" y1="143.9" x2="1190.4" y2="157.0"/>
<line x1="1193.1" y1="166.3" x2="1176.6" y2="174.6"/>
<line x1="1176.6" y1="174.6" x2="1158.3" y2="171.7"/>
<line x1="1158.3" y1="171.7" x2="1145.2" y2="158.5"/>
<line x1="1145.2" y1="158.5" x2="1142.4" y2="140.2"/>
<line x1="1142.4" y1="140.2" x2="1150.9" y2="123.7"/>
<line x1="1150.9" y1="123.7" x2="1167.4" y2="115.4"/>
<line x1="1167.4" y1="115.4" x2="1185.7" y2="118.3"/>
<line x1="1185.7" y1="118.3" x2="1198.8" y2="131.5"/>
<line x1="1198.8" y1="131.5" x2="1201.6" y2="149.8"/>
<line x1="1201.6" y1="149.8" x2="1193.1" y2="166.3"/>
<line x1="1192.5" y1="177.0" x2="1169.8" y2="182.9"/>
<line x1="1169.8" y1="182.9" x2="1147.9" y2="174.4"/>
<line x1="1147.9" y1="174.4" x2="1135.2" y2="154.6"/>
<line x1="1135.2" y1="154.6" x2="1136.6" y2="131.2"/>
<line x1="1136.6" y1="131.2" x2="1151.5" y2="113.0"/>
<line x1="1151.5" y1="113.0" x2="1174.2" y2="107.1"/>
<line x1="1174.2" y1="107.1" x2="1196.1" y2="115.6"/>
<line x1="1196.1" y1="115.6" x2="1208.8" y2="135.4"/>
<line x1="1208.8" y1="135.4" x2="1207.4" y2="158.8"/>
<line x1="1207.4" y1="158.8" x2="1192.5" y2="177.0"/>
</g>
</g>
<g>
<rect x="34" y="214" width="132" height="46" rx="6" fill="url(#ghBody)" stroke="#8C8C8C" stroke-width="1"/>
<text x="100.0" y="235.0" text-anchor="middle" font-family="Segoe UI, sans-serif" font-size="12" fill="#222">Length</text>
<text x="100.0" y="250.0" text-anchor="middle" font-family="Consolas, monospace" font-size="9.5" fill="#555">bán kính vành</text>
<rect x="26.0" y="229.0" width="10" height="16" rx="3" fill="#E8E8E8" stroke="#8C8C8C"/>
<circle cx="31.0" cy="237.0" r="2.5" fill="#4A4A4A"/>
<rect x="164.0" y="229.0" width="10" height="16" rx="3" fill="#E8E8E8" stroke="#8C8C8C"/>
<circle cx="169.0" cy="237.0" r="2.5" fill="#4A4A4A"/>
</g>
<path d="M 169.0,237.0 C 100.0,237.0 100.0,134.0 31.0,134.0" stroke="#4A4A4A" stroke-width="1.5" fill="none"/>
<g>
<rect x="210" y="214" width="132" height="46" rx="6" fill="url(#ghBody)" stroke="#8C8C8C" stroke-width="1"/>
<text x="276.0" y="235.0" text-anchor="middle" font-family="Segoe UI, sans-serif" font-size="12" fill="#222">Spoke×2</text>
<text x="276.0" y="250.0" text-anchor="middle" font-family="Consolas, monospace" font-size="9.5" fill="#555">Count (chẵn)</text>
<rect x="202.0" y="229.0" width="10" height="16" rx="3" fill="#E8E8E8" stroke="#8C8C8C"/>
<circle cx="207.0" cy="237.0" r="2.5" fill="#4A4A4A"/>
<rect x="340.0" y="229.0" width="10" height="16" rx="3" fill="#E8E8E8" stroke="#8C8C8C"/>
<circle cx="345.0" cy="237.0" r="2.5" fill="#4A4A4A"/>
</g>
<path d="M 345.0,237.0 C 276.0,237.0 276.0,131.5 207.0,131.5" stroke="#4A4A4A" stroke-width="1.5" fill="none"/>
<g>
<rect x="386" y="214" width="132" height="46" rx="6" fill="url(#ghBody)" stroke="#8C8C8C" stroke-width="1"/>
<text x="452.0" y="235.0" text-anchor="middle" font-family="Segoe UI, sans-serif" font-size="12" fill="#222">Wind Spiral</text>
<text x="452.0" y="250.0" text-anchor="middle" font-family="Consolas, monospace" font-size="9.5" fill="#555">Angle (°)</text>
<rect x="378.0" y="229.0" width="10" height="16" rx="3" fill="#E8E8E8" stroke="#8C8C8C"/>
<circle cx="383.0" cy="237.0" r="2.5" fill="#4A4A4A"/>
<rect x="516.0" y="229.0" width="10" height="16" rx="3" fill="#E8E8E8" stroke="#8C8C8C"/>
<circle cx="521.0" cy="237.0" r="2.5" fill="#4A4A4A"/>
</g>
<path d="M 521.0,237.0 C 452.0,237.0 452.0,131.5 383.0,131.5" stroke="#4A4A4A" stroke-width="1.5" fill="none"/>
<g>
<rect x="562" y="214" width="132" height="46" rx="6" fill="url(#ghBody)" stroke="#8C8C8C" stroke-width="1"/>
<text x="628.0" y="235.0" text-anchor="middle" font-family="Segoe UI, sans-serif" font-size="12" fill="#222">Rows</text>
<text x="628.0" y="250.0" text-anchor="middle" font-family="Consolas, monospace" font-size="9.5" fill="#555">Count</text>
<rect x="554.0" y="229.0" width="10" height="16" rx="3" fill="#E8E8E8" stroke="#8C8C8C"/>
<circle cx="559.0" cy="237.0" r="2.5" fill="#4A4A4A"/>
<rect x="692.0" y="229.0" width="10" height="16" rx="3" fill="#E8E8E8" stroke="#8C8C8C"/>
<circle cx="697.0" cy="237.0" r="2.5" fill="#4A4A4A"/>
</g>
<path d="M 697.0,237.0 C 628.0,237.0 628.0,131.5 559.0,131.5" stroke="#4A4A4A" stroke-width="1.5" fill="none"/>
<g>
<rect x="738" y="214" width="132" height="46" rx="6" fill="url(#ghBody)" stroke="#8C8C8C" stroke-width="1"/>
<text x="804.0" y="235.0" text-anchor="middle" font-family="Segoe UI, sans-serif" font-size="12" fill="#222">Circle</text>
<text x="804.0" y="250.0" text-anchor="middle" font-family="Consolas, monospace" font-size="9.5" fill="#555">Boundary vành</text>
<rect x="730.0" y="229.0" width="10" height="16" rx="3" fill="#E8E8E8" stroke="#8C8C8C"/>
<circle cx="735.0" cy="237.0" r="2.5" fill="#4A4A4A"/>
<rect x="868.0" y="229.0" width="10" height="16" rx="3" fill="#E8E8E8" stroke="#8C8C8C"/>
<circle cx="873.0" cy="237.0" r="2.5" fill="#4A4A4A"/>
</g>
<path d="M 873.0,237.0 C 804.0,237.0 804.0,131.5 735.0,131.5" stroke="#4A4A4A" stroke-width="1.5" fill="none"/>
<g>
<rect x="914" y="214" width="132" height="46" rx="6" fill="url(#ghBody)" stroke="#8C8C8C" stroke-width="1"/>
<text x="980.0" y="235.0" text-anchor="middle" font-family="Segoe UI, sans-serif" font-size="12" fill="#222">Voronoi Fillet</text>
<text x="980.0" y="250.0" text-anchor="middle" font-family="Consolas, monospace" font-size="9.5" fill="#555">Radius</text>
<rect x="906.0" y="229.0" width="10" height="16" rx="3" fill="#E8E8E8" stroke="#8C8C8C"/>
<circle cx="911.0" cy="237.0" r="2.5" fill="#4A4A4A"/>
<rect x="1044.0" y="229.0" width="10" height="16" rx="3" fill="#E8E8E8" stroke="#8C8C8C"/>
<circle cx="1049.0" cy="237.0" r="2.5" fill="#4A4A4A"/>
</g>
<path d="M 1049.0,237.0 C 980.0,237.0 980.0,131.5 911.0,131.5" stroke="#4A4A4A" stroke-width="1.5" fill="none"/>
</svg>