<svg xmlns="http://www.w3.org/2000/svg" width="1500" height="1414" viewBox="0 0 1500 1414" font-family="Segoe UI, sans-serif">
<defs><linearGradient id="gb" x1="0" y1="0" x2="0" y2="1"><stop offset="0%" stop-color="#F0F0F0"/><stop offset="100%" stop-color="#D8D8D8"/></linearGradient><pattern id="dots" width="16" height="16" patternUnits="userSpaceOnUse"><circle cx="1" cy="1" r="0.9" fill="#E6E6E0"/></pattern></defs>
<rect x="0" y="0" width="1500" height="1414" fill="#FAFAF7"/>
<text x="24" y="30" font-size="15" font-weight="600" fill="#333">Storyboard 9 bước — dựng pattern Voronoi xoắn (khung tô xanh = component mới thả ở bước đó)</text>
<rect x="16" y="44" width="1468" height="140" rx="8" fill="#FFFFFF" stroke="#E2E2DA"/>
<rect x="16" y="44" width="1468" height="140" rx="8" fill="url(#dots)"/>
<circle cx="42" cy="70" r="13" fill="#E0863A"/>
<text x="42" y="74" text-anchor="middle" font-size="13" font-weight="700" fill="#fff">1</text>
<g><rect x="60" y="74" width="100" height="40" rx="5" fill="#DDEFD6" stroke="#E0863A" stroke-width="2"/>
<text x="110" y="93" text-anchor="middle" font-family="Segoe UI, sans-serif" font-size="10.5" fill="#222">Construct Point</text>
<text x="110" y="106" text-anchor="middle" font-family="Consolas, monospace" font-size="8.5" fill="#666">(0,0,0)</text>
<circle cx="57" cy="94" r="2" fill="#4A4A4A"/>
<circle cx="163" cy="94" r="2" fill="#4A4A4A"/>
</g>
<g><rect x="190" y="74" width="100" height="40" rx="5" fill="#DDEFD6" stroke="#E0863A" stroke-width="2"/>
<text x="240" y="93" text-anchor="middle" font-family="Segoe UI, sans-serif" font-size="10.5" fill="#222">Line SDL</text>
<text x="240" y="106" text-anchor="middle" font-family="Consolas, monospace" font-size="8.5" fill="#666">D=Unit X</text>
<circle cx="187" cy="94" r="2" fill="#4A4A4A"/>
<circle cx="293" cy="94" r="2" fill="#4A4A4A"/>
</g>
<path d="M 163,94 C 175,94 175,94 187,94" stroke="#4A4A4A" stroke-width="1.2" fill="none"/>
<text x="66" y="170" font-size="12.5" fill="#444">Bước 1 — Construct Point (0,0,0) → Line SDL (D=Unit X, L=slider Length): 1 tia thẳng từ tâm.</text>
<rect x="16" y="194" width="1468" height="140" rx="8" fill="#F4F5EF" stroke="#E2E2DA"/>
<rect x="16" y="194" width="1468" height="140" rx="8" fill="url(#dots)"/>
<circle cx="42" cy="220" r="13" fill="#E0863A"/>
<text x="42" y="224" text-anchor="middle" font-size="13" font-weight="700" fill="#fff">2</text>
<g><rect x="60" y="224" width="100" height="40" rx="5" fill="url(#gb)" stroke="#8C8C8C" stroke-width="1"/>
<text x="110" y="243" text-anchor="middle" font-family="Segoe UI, sans-serif" font-size="10.5" fill="#222">Construct Point</text>
<text x="110" y="256" text-anchor="middle" font-family="Consolas, monospace" font-size="8.5" fill="#666">(0,0,0)</text>
<circle cx="57" cy="244" r="2" fill="#4A4A4A"/>
<circle cx="163" cy="244" r="2" fill="#4A4A4A"/>
</g>
<g><rect x="190" y="224" width="100" height="40" rx="5" fill="url(#gb)" stroke="#8C8C8C" stroke-width="1"/>
<text x="240" y="243" text-anchor="middle" font-family="Segoe UI, sans-serif" font-size="10.5" fill="#222">Line SDL</text>
<text x="240" y="256" text-anchor="middle" font-family="Consolas, monospace" font-size="8.5" fill="#666">D=Unit X</text>
<circle cx="187" cy="244" r="2" fill="#4A4A4A"/>
<circle cx="293" cy="244" r="2" fill="#4A4A4A"/>
</g>
<path d="M 163,244 C 175,244 175,244 187,244" stroke="#4A4A4A" stroke-width="1.2" fill="none"/>
<g><rect x="320" y="224" width="100" height="40" rx="5" fill="#DDEFD6" stroke="#E0863A" stroke-width="2"/>
<text x="370" y="243" text-anchor="middle" font-family="Segoe UI, sans-serif" font-size="10.5" fill="#222">Polar Array</text>
<text x="370" y="256" text-anchor="middle" font-family="Consolas, monospace" font-size="8.5" fill="#666">N=Spoke×2</text>
<circle cx="317" cy="244" r="2" fill="#4A4A4A"/>
<circle cx="423" cy="244" r="2" fill="#4A4A4A"/>
</g>
<path d="M 293,244 C 305,244 305,244 317,244" stroke="#4A4A4A" stroke-width="1.2" fill="none"/>
<text x="66" y="320" font-size="12.5" fill="#444">Bước 2 — Polar Array: G=Line, N=Spoke×2 (SỐ CHẴN), A=360° → N tia toả tròn.</text>
<rect x="16" y="344" width="1468" height="140" rx="8" fill="#FFFFFF" stroke="#E2E2DA"/>
<rect x="16" y="344" width="1468" height="140" rx="8" fill="url(#dots)"/>
<circle cx="42" cy="370" r="13" fill="#E0863A"/>
<text x="42" y="374" text-anchor="middle" font-size="13" font-weight="700" fill="#fff">3</text>
<g><rect x="60" y="374" width="100" height="40" rx="5" fill="url(#gb)" stroke="#8C8C8C" stroke-width="1"/>
<text x="110" y="393" text-anchor="middle" font-family="Segoe UI, sans-serif" font-size="10.5" fill="#222">Construct Point</text>
<text x="110" y="406" text-anchor="middle" font-family="Consolas, monospace" font-size="8.5" fill="#666">(0,0,0)</text>
<circle cx="57" cy="394" r="2" fill="#4A4A4A"/>
<circle cx="163" cy="394" r="2" fill="#4A4A4A"/>
</g>
<g><rect x="190" y="374" width="100" height="40" rx="5" fill="url(#gb)" stroke="#8C8C8C" stroke-width="1"/>
<text x="240" y="393" text-anchor="middle" font-family="Segoe UI, sans-serif" font-size="10.5" fill="#222">Line SDL</text>
<text x="240" y="406" text-anchor="middle" font-family="Consolas, monospace" font-size="8.5" fill="#666">D=Unit X</text>
<circle cx="187" cy="394" r="2" fill="#4A4A4A"/>
<circle cx="293" cy="394" r="2" fill="#4A4A4A"/>
</g>
<path d="M 163,394 C 175,394 175,394 187,394" stroke="#4A4A4A" stroke-width="1.2" fill="none"/>
<g><rect x="320" y="374" width="100" height="40" rx="5" fill="url(#gb)" stroke="#8C8C8C" stroke-width="1"/>
<text x="370" y="393" text-anchor="middle" font-family="Segoe UI, sans-serif" font-size="10.5" fill="#222">Polar Array</text>
<text x="370" y="406" text-anchor="middle" font-family="Consolas, monospace" font-size="8.5" fill="#666">N=Spoke×2</text>
<circle cx="317" cy="394" r="2" fill="#4A4A4A"/>
<circle cx="423" cy="394" r="2" fill="#4A4A4A"/>
</g>
<path d="M 293,394 C 305,394 305,394 317,394" stroke="#4A4A4A" stroke-width="1.2" fill="none"/>
<g><rect x="450" y="374" width="100" height="40" rx="5" fill="#DDEFD6" stroke="#E0863A" stroke-width="2"/>
<text x="500" y="393" text-anchor="middle" font-family="Segoe UI, sans-serif" font-size="10.5" fill="#222">Maelstrom</text>
<text x="500" y="406" text-anchor="middle" font-family="Consolas, monospace" font-size="8.5" fill="#666">A=Wind Spiral</text>
<circle cx="447" cy="394" r="2" fill="#4A4A4A"/>
<circle cx="553" cy="394" r="2" fill="#4A4A4A"/>
</g>
<path d="M 423,394 C 435,394 435,394 447,394" stroke="#4A4A4A" stroke-width="1.2" fill="none"/>
<text x="66" y="470" font-size="12.5" fill="#444">Bước 3 — Maelstrom: A=Wind Spiral (chuột phải input A → Degrees), First &lt; Second → bẻ tia thành xoắn.</text>
<rect x="16" y="494" width="1468" height="140" rx="8" fill="#F4F5EF" stroke="#E2E2DA"/>
<rect x="16" y="494" width="1468" height="140" rx="8" fill="url(#dots)"/>
<circle cx="42" cy="520" r="13" fill="#E0863A"/>
<text x="42" y="524" text-anchor="middle" font-size="13" font-weight="700" fill="#fff">4</text>
<g><rect x="60" y="524" width="100" height="40" rx="5" fill="url(#gb)" stroke="#8C8C8C" stroke-width="1"/>
<text x="110" y="543" text-anchor="middle" font-family="Segoe UI, sans-serif" font-size="10.5" fill="#222">Construct Point</text>
<text x="110" y="556" text-anchor="middle" font-family="Consolas, monospace" font-size="8.5" fill="#666">(0,0,0)</text>
<circle cx="57" cy="544" r="2" fill="#4A4A4A"/>
<circle cx="163" cy="544" r="2" fill="#4A4A4A"/>
</g>
<g><rect x="190" y="524" width="100" height="40" rx="5" fill="url(#gb)" stroke="#8C8C8C" stroke-width="1"/>
<text x="240" y="543" text-anchor="middle" font-family="Segoe UI, sans-serif" font-size="10.5" fill="#222">Line SDL</text>
<text x="240" y="556" text-anchor="middle" font-family="Consolas, monospace" font-size="8.5" fill="#666">D=Unit X</text>
<circle cx="187" cy="544" r="2" fill="#4A4A4A"/>
<circle cx="293" cy="544" r="2" fill="#4A4A4A"/>
</g>
<path d="M 163,544 C 175,544 175,544 187,544" stroke="#4A4A4A" stroke-width="1.2" fill="none"/>
<g><rect x="320" y="524" width="100" height="40" rx="5" fill="url(#gb)" stroke="#8C8C8C" stroke-width="1"/>
<text x="370" y="543" text-anchor="middle" font-family="Segoe UI, sans-serif" font-size="10.5" fill="#222">Polar Array</text>
<text x="370" y="556" text-anchor="middle" font-family="Consolas, monospace" font-size="8.5" fill="#666">N=Spoke×2</text>
<circle cx="317" cy="544" r="2" fill="#4A4A4A"/>
<circle cx="423" cy="544" r="2" fill="#4A4A4A"/>
</g>
<path d="M 293,544 C 305,544 305,544 317,544" stroke="#4A4A4A" stroke-width="1.2" fill="none"/>
<g><rect x="450" y="524" width="100" height="40" rx="5" fill="url(#gb)" stroke="#8C8C8C" stroke-width="1"/>
<text x="500" y="543" text-anchor="middle" font-family="Segoe UI, sans-serif" font-size="10.5" fill="#222">Maelstrom</text>
<text x="500" y="556" text-anchor="middle" font-family="Consolas, monospace" font-size="8.5" fill="#666">A=Wind Spiral</text>
<circle cx="447" cy="544" r="2" fill="#4A4A4A"/>
<circle cx="553" cy="544" r="2" fill="#4A4A4A"/>
</g>
<path d="M 423,544 C 435,544 435,544 447,544" stroke="#4A4A4A" stroke-width="1.2" fill="none"/>
<g><rect x="580" y="524" width="100" height="40" rx="5" fill="#DDEFD6" stroke="#E0863A" stroke-width="2"/>
<text x="630" y="543" text-anchor="middle" font-family="Segoe UI, sans-serif" font-size="10.5" fill="#222">Divide Curve</text>
<text x="630" y="556" text-anchor="middle" font-family="Consolas, monospace" font-size="8.5" fill="#666">N=Rows</text>
<circle cx="577" cy="544" r="2" fill="#4A4A4A"/>
<circle cx="683" cy="544" r="2" fill="#4A4A4A"/>
</g>
<path d="M 553,544 C 565,544 565,544 577,544" stroke="#4A4A4A" stroke-width="1.2" fill="none"/>
<text x="66" y="620" font-size="12.5" fill="#444">Bước 4 — Divide Curve: N=Rows → điểm gieo (seed points) trên lưới xoắn.</text>
<rect x="16" y="644" width="1468" height="140" rx="8" fill="#FFFFFF" stroke="#E2E2DA"/>
<rect x="16" y="644" width="1468" height="140" rx="8" fill="url(#dots)"/>
<circle cx="42" cy="670" r="13" fill="#E0863A"/>
<text x="42" y="674" text-anchor="middle" font-size="13" font-weight="700" fill="#fff">5</text>
<g><rect x="60" y="674" width="100" height="40" rx="5" fill="url(#gb)" stroke="#8C8C8C" stroke-width="1"/>
<text x="110" y="693" text-anchor="middle" font-family="Segoe UI, sans-serif" font-size="10.5" fill="#222">Construct Point</text>
<text x="110" y="706" text-anchor="middle" font-family="Consolas, monospace" font-size="8.5" fill="#666">(0,0,0)</text>
<circle cx="57" cy="694" r="2" fill="#4A4A4A"/>
<circle cx="163" cy="694" r="2" fill="#4A4A4A"/>
</g>
<g><rect x="190" y="674" width="100" height="40" rx="5" fill="url(#gb)" stroke="#8C8C8C" stroke-width="1"/>
<text x="240" y="693" text-anchor="middle" font-family="Segoe UI, sans-serif" font-size="10.5" fill="#222">Line SDL</text>
<text x="240" y="706" text-anchor="middle" font-family="Consolas, monospace" font-size="8.5" fill="#666">D=Unit X</text>
<circle cx="187" cy="694" r="2" fill="#4A4A4A"/>
<circle cx="293" cy="694" r="2" fill="#4A4A4A"/>
</g>
<path d="M 163,694 C 175,694 175,694 187,694" stroke="#4A4A4A" stroke-width="1.2" fill="none"/>
<g><rect x="320" y="674" width="100" height="40" rx="5" fill="url(#gb)" stroke="#8C8C8C" stroke-width="1"/>
<text x="370" y="693" text-anchor="middle" font-family="Segoe UI, sans-serif" font-size="10.5" fill="#222">Polar Array</text>
<text x="370" y="706" text-anchor="middle" font-family="Consolas, monospace" font-size="8.5" fill="#666">N=Spoke×2</text>
<circle cx="317" cy="694" r="2" fill="#4A4A4A"/>
<circle cx="423" cy="694" r="2" fill="#4A4A4A"/>
</g>
<path d="M 293,694 C 305,694 305,694 317,694" stroke="#4A4A4A" stroke-width="1.2" fill="none"/>
<g><rect x="450" y="674" width="100" height="40" rx="5" fill="url(#gb)" stroke="#8C8C8C" stroke-width="1"/>
<text x="500" y="693" text-anchor="middle" font-family="Segoe UI, sans-serif" font-size="10.5" fill="#222">Maelstrom</text>
<text x="500" y="706" text-anchor="middle" font-family="Consolas, monospace" font-size="8.5" fill="#666">A=Wind Spiral</text>
<circle cx="447" cy="694" r="2" fill="#4A4A4A"/>
<circle cx="553" cy="694" r="2" fill="#4A4A4A"/>
</g>
<path d="M 423,694 C 435,694 435,694 447,694" stroke="#4A4A4A" stroke-width="1.2" fill="none"/>
<g><rect x="580" y="674" width="100" height="40" rx="5" fill="url(#gb)" stroke="#8C8C8C" stroke-width="1"/>
<text x="630" y="693" text-anchor="middle" font-family="Segoe UI, sans-serif" font-size="10.5" fill="#222">Divide Curve</text>
<text x="630" y="706" text-anchor="middle" font-family="Consolas, monospace" font-size="8.5" fill="#666">N=Rows</text>
<circle cx="577" cy="694" r="2" fill="#4A4A4A"/>
<circle cx="683" cy="694" r="2" fill="#4A4A4A"/>
</g>
<path d="M 553,694 C 565,694 565,694 577,694" stroke="#4A4A4A" stroke-width="1.2" fill="none"/>
<rect x="687" y="670" width="52" height="15" rx="3" fill="#DDEFD6" stroke="#E0863A"/>
<text x="713" y="681" text-anchor="middle" font-size="9" fill="#333">Flatten ✓</text>
<text x="66" y="770" font-size="12.5" fill="#444">Bước 5 — Chuột phải output P của Divide Curve → Flatten (gộp mọi điểm về 1 list phẳng).</text>
<rect x="16" y="794" width="1468" height="140" rx="8" fill="#F4F5EF" stroke="#E2E2DA"/>
<rect x="16" y="794" width="1468" height="140" rx="8" fill="url(#dots)"/>
<circle cx="42" cy="820" r="13" fill="#E0863A"/>
<text x="42" y="824" text-anchor="middle" font-size="13" font-weight="700" fill="#fff">6</text>
<g><rect x="60" y="824" width="100" height="40" rx="5" fill="url(#gb)" stroke="#8C8C8C" stroke-width="1"/>
<text x="110" y="843" text-anchor="middle" font-family="Segoe UI, sans-serif" font-size="10.5" fill="#222">Construct Point</text>
<text x="110" y="856" text-anchor="middle" font-family="Consolas, monospace" font-size="8.5" fill="#666">(0,0,0)</text>
<circle cx="57" cy="844" r="2" fill="#4A4A4A"/>
<circle cx="163" cy="844" r="2" fill="#4A4A4A"/>
</g>
<g><rect x="190" y="824" width="100" height="40" rx="5" fill="url(#gb)" stroke="#8C8C8C" stroke-width="1"/>
<text x="240" y="843" text-anchor="middle" font-family="Segoe UI, sans-serif" font-size="10.5" fill="#222">Line SDL</text>
<text x="240" y="856" text-anchor="middle" font-family="Consolas, monospace" font-size="8.5" fill="#666">D=Unit X</text>
<circle cx="187" cy="844" r="2" fill="#4A4A4A"/>
<circle cx="293" cy="844" r="2" fill="#4A4A4A"/>
</g>
<path d="M 163,844 C 175,844 175,844 187,844" stroke="#4A4A4A" stroke-width="1.2" fill="none"/>
<g><rect x="320" y="824" width="100" height="40" rx="5" fill="url(#gb)" stroke="#8C8C8C" stroke-width="1"/>
<text x="370" y="843" text-anchor="middle" font-family="Segoe UI, sans-serif" font-size="10.5" fill="#222">Polar Array</text>
<text x="370" y="856" text-anchor="middle" font-family="Consolas, monospace" font-size="8.5" fill="#666">N=Spoke×2</text>
<circle cx="317" cy="844" r="2" fill="#4A4A4A"/>
<circle cx="423" cy="844" r="2" fill="#4A4A4A"/>
</g>
<path d="M 293,844 C 305,844 305,844 317,844" stroke="#4A4A4A" stroke-width="1.2" fill="none"/>
<g><rect x="450" y="824" width="100" height="40" rx="5" fill="url(#gb)" stroke="#8C8C8C" stroke-width="1"/>
<text x="500" y="843" text-anchor="middle" font-family="Segoe UI, sans-serif" font-size="10.5" fill="#222">Maelstrom</text>
<text x="500" y="856" text-anchor="middle" font-family="Consolas, monospace" font-size="8.5" fill="#666">A=Wind Spiral</text>
<circle cx="447" cy="844" r="2" fill="#4A4A4A"/>
<circle cx="553" cy="844" r="2" fill="#4A4A4A"/>
</g>
<path d="M 423,844 C 435,844 435,844 447,844" stroke="#4A4A4A" stroke-width="1.2" fill="none"/>
<g><rect x="580" y="824" width="100" height="40" rx="5" fill="url(#gb)" stroke="#8C8C8C" stroke-width="1"/>
<text x="630" y="843" text-anchor="middle" font-family="Segoe UI, sans-serif" font-size="10.5" fill="#222">Divide Curve</text>
<text x="630" y="856" text-anchor="middle" font-family="Consolas, monospace" font-size="8.5" fill="#666">N=Rows</text>
<circle cx="577" cy="844" r="2" fill="#4A4A4A"/>
<circle cx="683" cy="844" r="2" fill="#4A4A4A"/>
</g>
<path d="M 553,844 C 565,844 565,844 577,844" stroke="#4A4A4A" stroke-width="1.2" fill="none"/>
<g><rect x="710" y="824" width="100" height="40" rx="5" fill="#DDEFD6" stroke="#E0863A" stroke-width="2"/>
<text x="760" y="843" text-anchor="middle" font-family="Segoe UI, sans-serif" font-size="10.5" fill="#222">Cull Index</text>
<text x="760" y="856" text-anchor="middle" font-family="Consolas, monospace" font-size="8.5" fill="#666">Index=0</text>
<circle cx="707" cy="844" r="2" fill="#4A4A4A"/>
<circle cx="813" cy="844" r="2" fill="#4A4A4A"/>
</g>
<path d="M 683,844 C 695,844 695,844 707,844" stroke="#4A4A4A" stroke-width="1.2" fill="none"/>
<text x="66" y="920" font-size="12.5" fill="#444">Bước 6 — (Tuỳ chọn) Cull Index=0: xoá các điểm trùng nhau ở tâm.</text>
<rect x="16" y="944" width="1468" height="140" rx="8" fill="#FFFFFF" stroke="#E2E2DA"/>
<rect x="16" y="944" width="1468" height="140" rx="8" fill="url(#dots)"/>
<circle cx="42" cy="970" r="13" fill="#E0863A"/>
<text x="42" y="974" text-anchor="middle" font-size="13" font-weight="700" fill="#fff">7</text>
<g><rect x="60" y="974" width="100" height="40" rx="5" fill="url(#gb)" stroke="#8C8C8C" stroke-width="1"/>
<text x="110" y="993" text-anchor="middle" font-family="Segoe UI, sans-serif" font-size="10.5" fill="#222">Construct Point</text>
<text x="110" y="1006" text-anchor="middle" font-family="Consolas, monospace" font-size="8.5" fill="#666">(0,0,0)</text>
<circle cx="57" cy="994" r="2" fill="#4A4A4A"/>
<circle cx="163" cy="994" r="2" fill="#4A4A4A"/>
</g>
<g><rect x="190" y="974" width="100" height="40" rx="5" fill="url(#gb)" stroke="#8C8C8C" stroke-width="1"/>
<text x="240" y="993" text-anchor="middle" font-family="Segoe UI, sans-serif" font-size="10.5" fill="#222">Line SDL</text>
<text x="240" y="1006" text-anchor="middle" font-family="Consolas, monospace" font-size="8.5" fill="#666">D=Unit X</text>
<circle cx="187" cy="994" r="2" fill="#4A4A4A"/>
<circle cx="293" cy="994" r="2" fill="#4A4A4A"/>
</g>
<path d="M 163,994 C 175,994 175,994 187,994" stroke="#4A4A4A" stroke-width="1.2" fill="none"/>
<g><rect x="320" y="974" width="100" height="40" rx="5" fill="url(#gb)" stroke="#8C8C8C" stroke-width="1"/>
<text x="370" y="993" text-anchor="middle" font-family="Segoe UI, sans-serif" font-size="10.5" fill="#222">Polar Array</text>
<text x="370" y="1006" text-anchor="middle" font-family="Consolas, monospace" font-size="8.5" fill="#666">N=Spoke×2</text>
<circle cx="317" cy="994" r="2" fill="#4A4A4A"/>
<circle cx="423" cy="994" r="2" fill="#4A4A4A"/>
</g>
<path d="M 293,994 C 305,994 305,994 317,994" stroke="#4A4A4A" stroke-width="1.2" fill="none"/>
<g><rect x="450" y="974" width="100" height="40" rx="5" fill="url(#gb)" stroke="#8C8C8C" stroke-width="1"/>
<text x="500" y="993" text-anchor="middle" font-family="Segoe UI, sans-serif" font-size="10.5" fill="#222">Maelstrom</text>
<text x="500" y="1006" text-anchor="middle" font-family="Consolas, monospace" font-size="8.5" fill="#666">A=Wind Spiral</text>
<circle cx="447" cy="994" r="2" fill="#4A4A4A"/>
<circle cx="553" cy="994" r="2" fill="#4A4A4A"/>
</g>
<path d="M 423,994 C 435,994 435,994 447,994" stroke="#4A4A4A" stroke-width="1.2" fill="none"/>
<g><rect x="580" y="974" width="100" height="40" rx="5" fill="url(#gb)" stroke="#8C8C8C" stroke-width="1"/>
<text x="630" y="993" text-anchor="middle" font-family="Segoe UI, sans-serif" font-size="10.5" fill="#222">Divide Curve</text>
<text x="630" y="1006" text-anchor="middle" font-family="Consolas, monospace" font-size="8.5" fill="#666">N=Rows</text>
<circle cx="577" cy="994" r="2" fill="#4A4A4A"/>
<circle cx="683" cy="994" r="2" fill="#4A4A4A"/>
</g>
<path d="M 553,994 C 565,994 565,994 577,994" stroke="#4A4A4A" stroke-width="1.2" fill="none"/>
<g><rect x="710" y="974" width="100" height="40" rx="5" fill="url(#gb)" stroke="#8C8C8C" stroke-width="1"/>
<text x="760" y="993" text-anchor="middle" font-family="Segoe UI, sans-serif" font-size="10.5" fill="#222">Cull Index</text>
<text x="760" y="1006" text-anchor="middle" font-family="Consolas, monospace" font-size="8.5" fill="#666">Index=0</text>
<circle cx="707" cy="994" r="2" fill="#4A4A4A"/>
<circle cx="813" cy="994" r="2" fill="#4A4A4A"/>
</g>
<path d="M 683,994 C 695,994 695,994 707,994" stroke="#4A4A4A" stroke-width="1.2" fill="none"/>
<g><rect x="840" y="974" width="100" height="40" rx="5" fill="#DDEFD6" stroke="#E0863A" stroke-width="2"/>
<text x="890" y="993" text-anchor="middle" font-family="Segoe UI, sans-serif" font-size="10.5" fill="#222">Voronoi</text>
<text x="890" y="1006" text-anchor="middle" font-family="Consolas, monospace" font-size="8.5" fill="#666">P·B</text>
<circle cx="837" cy="994" r="2" fill="#4A4A4A"/>
<circle cx="943" cy="994" r="2" fill="#4A4A4A"/>
</g>
<path d="M 813,994 C 825,994 825,994 837,994" stroke="#4A4A4A" stroke-width="1.2" fill="none"/>
<g><rect x="840" y="1028" width="100" height="34" rx="5" fill="url(#gb)" stroke="#8C8C8C"/><text x="890" y="1044" text-anchor="middle" font-size="10" fill="#222">Circle</text><text x="890" y="1055" text-anchor="middle" font-family="Consolas, monospace" font-size="8" fill="#666">Boundary</text></g>
<path d="M 943,1045 C 890,1045 890,1000 837,1000" stroke="#4A4A4A" stroke-width="1.2" fill="none"/>
<text x="66" y="1070" font-size="12.5" fill="#444">Bước 7 — Circle (boundary) + Voronoi: P=điểm đã Flatten, B=Circle → các ô Voronoi.</text>
<rect x="16" y="1094" width="1468" height="140" rx="8" fill="#F4F5EF" stroke="#E2E2DA"/>
<rect x="16" y="1094" width="1468" height="140" rx="8" fill="url(#dots)"/>
<circle cx="42" cy="1120" r="13" fill="#E0863A"/>
<text x="42" y="1124" text-anchor="middle" font-size="13" font-weight="700" fill="#fff">8</text>
<g><rect x="60" y="1124" width="100" height="40" rx="5" fill="url(#gb)" stroke="#8C8C8C" stroke-width="1"/>
<text x="110" y="1143" text-anchor="middle" font-family="Segoe UI, sans-serif" font-size="10.5" fill="#222">Construct Point</text>
<text x="110" y="1156" text-anchor="middle" font-family="Consolas, monospace" font-size="8.5" fill="#666">(0,0,0)</text>
<circle cx="57" cy="1144" r="2" fill="#4A4A4A"/>
<circle cx="163" cy="1144" r="2" fill="#4A4A4A"/>
</g>
<g><rect x="190" y="1124" width="100" height="40" rx="5" fill="url(#gb)" stroke="#8C8C8C" stroke-width="1"/>
<text x="240" y="1143" text-anchor="middle" font-family="Segoe UI, sans-serif" font-size="10.5" fill="#222">Line SDL</text>
<text x="240" y="1156" text-anchor="middle" font-family="Consolas, monospace" font-size="8.5" fill="#666">D=Unit X</text>
<circle cx="187" cy="1144" r="2" fill="#4A4A4A"/>
<circle cx="293" cy="1144" r="2" fill="#4A4A4A"/>
</g>
<path d="M 163,1144 C 175,1144 175,1144 187,1144" stroke="#4A4A4A" stroke-width="1.2" fill="none"/>
<g><rect x="320" y="1124" width="100" height="40" rx="5" fill="url(#gb)" stroke="#8C8C8C" stroke-width="1"/>
<text x="370" y="1143" text-anchor="middle" font-family="Segoe UI, sans-serif" font-size="10.5" fill="#222">Polar Array</text>
<text x="370" y="1156" text-anchor="middle" font-family="Consolas, monospace" font-size="8.5" fill="#666">N=Spoke×2</text>
<circle cx="317" cy="1144" r="2" fill="#4A4A4A"/>
<circle cx="423" cy="1144" r="2" fill="#4A4A4A"/>
</g>
<path d="M 293,1144 C 305,1144 305,1144 317,1144" stroke="#4A4A4A" stroke-width="1.2" fill="none"/>
<g><rect x="450" y="1124" width="100" height="40" rx="5" fill="url(#gb)" stroke="#8C8C8C" stroke-width="1"/>
<text x="500" y="1143" text-anchor="middle" font-family="Segoe UI, sans-serif" font-size="10.5" fill="#222">Maelstrom</text>
<text x="500" y="1156" text-anchor="middle" font-family="Consolas, monospace" font-size="8.5" fill="#666">A=Wind Spiral</text>
<circle cx="447" cy="1144" r="2" fill="#4A4A4A"/>
<circle cx="553" cy="1144" r="2" fill="#4A4A4A"/>
</g>
<path d="M 423,1144 C 435,1144 435,1144 447,1144" stroke="#4A4A4A" stroke-width="1.2" fill="none"/>
<g><rect x="580" y="1124" width="100" height="40" rx="5" fill="url(#gb)" stroke="#8C8C8C" stroke-width="1"/>
<text x="630" y="1143" text-anchor="middle" font-family="Segoe UI, sans-serif" font-size="10.5" fill="#222">Divide Curve</text>
<text x="630" y="1156" text-anchor="middle" font-family="Consolas, monospace" font-size="8.5" fill="#666">N=Rows</text>
<circle cx="577" cy="1144" r="2" fill="#4A4A4A"/>
<circle cx="683" cy="1144" r="2" fill="#4A4A4A"/>
</g>
<path d="M 553,1144 C 565,1144 565,1144 577,1144" stroke="#4A4A4A" stroke-width="1.2" fill="none"/>
<g><rect x="710" y="1124" width="100" height="40" rx="5" fill="url(#gb)" stroke="#8C8C8C" stroke-width="1"/>
<text x="760" y="1143" text-anchor="middle" font-family="Segoe UI, sans-serif" font-size="10.5" fill="#222">Cull Index</text>
<text x="760" y="1156" text-anchor="middle" font-family="Consolas, monospace" font-size="8.5" fill="#666">Index=0</text>
<circle cx="707" cy="1144" r="2" fill="#4A4A4A"/>
<circle cx="813" cy="1144" r="2" fill="#4A4A4A"/>
</g>
<path d="M 683,1144 C 695,1144 695,1144 707,1144" stroke="#4A4A4A" stroke-width="1.2" fill="none"/>
<g><rect x="840" y="1124" width="100" height="40" rx="5" fill="url(#gb)" stroke="#8C8C8C" stroke-width="1"/>
<text x="890" y="1143" text-anchor="middle" font-family="Segoe UI, sans-serif" font-size="10.5" fill="#222">Voronoi</text>
<text x="890" y="1156" text-anchor="middle" font-family="Consolas, monospace" font-size="8.5" fill="#666">P·B</text>
<circle cx="837" cy="1144" r="2" fill="#4A4A4A"/>
<circle cx="943" cy="1144" r="2" fill="#4A4A4A"/>
</g>
<path d="M 813,1144 C 825,1144 825,1144 837,1144" stroke="#4A4A4A" stroke-width="1.2" fill="none"/>
<g><rect x="970" y="1124" width="100" height="40" rx="5" fill="#DDEFD6" stroke="#E0863A" stroke-width="2"/>
<text x="1020" y="1143" text-anchor="middle" font-family="Segoe UI, sans-serif" font-size="10.5" fill="#222">Fillet</text>
<text x="1020" y="1156" text-anchor="middle" font-family="Consolas, monospace" font-size="8.5" fill="#666">R=V.Fillet</text>
<circle cx="967" cy="1144" r="2" fill="#4A4A4A"/>
<circle cx="1073" cy="1144" r="2" fill="#4A4A4A"/>
</g>
<path d="M 943,1144 C 955,1144 955,1144 967,1144" stroke="#4A4A4A" stroke-width="1.2" fill="none"/>
<g><rect x="840" y="1178" width="100" height="34" rx="5" fill="url(#gb)" stroke="#8C8C8C"/><text x="890" y="1194" text-anchor="middle" font-size="10" fill="#222">Circle</text><text x="890" y="1205" text-anchor="middle" font-family="Consolas, monospace" font-size="8" fill="#666">Boundary</text></g>
<path d="M 943,1195 C 890,1195 890,1150 837,1150" stroke="#4A4A4A" stroke-width="1.2" fill="none"/>
<text x="66" y="1220" font-size="12.5" fill="#444">Bước 8 — Fillet: C=ô Voronoi, R=slider Voronoi Fillet → bo mềm cạnh ô.</text>
<rect x="16" y="1244" width="1468" height="140" rx="8" fill="#FFFFFF" stroke="#E2E2DA"/>
<rect x="16" y="1244" width="1468" height="140" rx="8" fill="url(#dots)"/>
<circle cx="42" cy="1270" r="13" fill="#E0863A"/>
<text x="42" y="1274" text-anchor="middle" font-size="13" font-weight="700" fill="#fff">9</text>
<g><rect x="60" y="1274" width="100" height="40" rx="5" fill="url(#gb)" stroke="#8C8C8C" stroke-width="1"/>
<text x="110" y="1293" text-anchor="middle" font-family="Segoe UI, sans-serif" font-size="10.5" fill="#222">Construct Point</text>
<text x="110" y="1306" text-anchor="middle" font-family="Consolas, monospace" font-size="8.5" fill="#666">(0,0,0)</text>
<circle cx="57" cy="1294" r="2" fill="#4A4A4A"/>
<circle cx="163" cy="1294" r="2" fill="#4A4A4A"/>
</g>
<g><rect x="190" y="1274" width="100" height="40" rx="5" fill="url(#gb)" stroke="#8C8C8C" stroke-width="1"/>
<text x="240" y="1293" text-anchor="middle" font-family="Segoe UI, sans-serif" font-size="10.5" fill="#222">Line SDL</text>
<text x="240" y="1306" text-anchor="middle" font-family="Consolas, monospace" font-size="8.5" fill="#666">D=Unit X</text>
<circle cx="187" cy="1294" r="2" fill="#4A4A4A"/>
<circle cx="293" cy="1294" r="2" fill="#4A4A4A"/>
</g>
<path d="M 163,1294 C 175,1294 175,1294 187,1294" stroke="#4A4A4A" stroke-width="1.2" fill="none"/>
<g><rect x="320" y="1274" width="100" height="40" rx="5" fill="url(#gb)" stroke="#8C8C8C" stroke-width="1"/>
<text x="370" y="1293" text-anchor="middle" font-family="Segoe UI, sans-serif" font-size="10.5" fill="#222">Polar Array</text>
<text x="370" y="1306" text-anchor="middle" font-family="Consolas, monospace" font-size="8.5" fill="#666">N=Spoke×2</text>
<circle cx="317" cy="1294" r="2" fill="#4A4A4A"/>
<circle cx="423" cy="1294" r="2" fill="#4A4A4A"/>
</g>
<path d="M 293,1294 C 305,1294 305,1294 317,1294" stroke="#4A4A4A" stroke-width="1.2" fill="none"/>
<g><rect x="450" y="1274" width="100" height="40" rx="5" fill="url(#gb)" stroke="#8C8C8C" stroke-width="1"/>
<text x="500" y="1293" text-anchor="middle" font-family="Segoe UI, sans-serif" font-size="10.5" fill="#222">Maelstrom</text>
<text x="500" y="1306" text-anchor="middle" font-family="Consolas, monospace" font-size="8.5" fill="#666">A=Wind Spiral</text>
<circle cx="447" cy="1294" r="2" fill="#4A4A4A"/>
<circle cx="553" cy="1294" r="2" fill="#4A4A4A"/>
</g>
<path d="M 423,1294 C 435,1294 435,1294 447,1294" stroke="#4A4A4A" stroke-width="1.2" fill="none"/>
<g><rect x="580" y="1274" width="100" height="40" rx="5" fill="url(#gb)" stroke="#8C8C8C" stroke-width="1"/>
<text x="630" y="1293" text-anchor="middle" font-family="Segoe UI, sans-serif" font-size="10.5" fill="#222">Divide Curve</text>
<text x="630" y="1306" text-anchor="middle" font-family="Consolas, monospace" font-size="8.5" fill="#666">N=Rows</text>
<circle cx="577" cy="1294" r="2" fill="#4A4A4A"/>
<circle cx="683" cy="1294" r="2" fill="#4A4A4A"/>
</g>
<path d="M 553,1294 C 565,1294 565,1294 577,1294" stroke="#4A4A4A" stroke-width="1.2" fill="none"/>
<g><rect x="710" y="1274" width="100" height="40" rx="5" fill="url(#gb)" stroke="#8C8C8C" stroke-width="1"/>
<text x="760" y="1293" text-anchor="middle" font-family="Segoe UI, sans-serif" font-size="10.5" fill="#222">Cull Index</text>
<text x="760" y="1306" text-anchor="middle" font-family="Consolas, monospace" font-size="8.5" fill="#666">Index=0</text>
<circle cx="707" cy="1294" r="2" fill="#4A4A4A"/>
<circle cx="813" cy="1294" r="2" fill="#4A4A4A"/>
</g>
<path d="M 683,1294 C 695,1294 695,1294 707,1294" stroke="#4A4A4A" stroke-width="1.2" fill="none"/>
<g><rect x="840" y="1274" width="100" height="40" rx="5" fill="url(#gb)" stroke="#8C8C8C" stroke-width="1"/>
<text x="890" y="1293" text-anchor="middle" font-family="Segoe UI, sans-serif" font-size="10.5" fill="#222">Voronoi</text>
<text x="890" y="1306" text-anchor="middle" font-family="Consolas, monospace" font-size="8.5" fill="#666">P·B</text>
<circle cx="837" cy="1294" r="2" fill="#4A4A4A"/>
<circle cx="943" cy="1294" r="2" fill="#4A4A4A"/>
</g>
<path d="M 813,1294 C 825,1294 825,1294 837,1294" stroke="#4A4A4A" stroke-width="1.2" fill="none"/>
<g><rect x="970" y="1274" width="100" height="40" rx="5" fill="url(#gb)" stroke="#8C8C8C" stroke-width="1"/>
<text x="1020" y="1293" text-anchor="middle" font-family="Segoe UI, sans-serif" font-size="10.5" fill="#222">Fillet</text>
<text x="1020" y="1306" text-anchor="middle" font-family="Consolas, monospace" font-size="8.5" fill="#666">R=V.Fillet</text>
<circle cx="967" cy="1294" r="2" fill="#4A4A4A"/>
<circle cx="1073" cy="1294" r="2" fill="#4A4A4A"/>
</g>
<path d="M 943,1294 C 955,1294 955,1294 967,1294" stroke="#4A4A4A" stroke-width="1.2" fill="none"/>
<g><rect x="840" y="1328" width="100" height="34" rx="5" fill="url(#gb)" stroke="#8C8C8C"/><text x="890" y="1344" text-anchor="middle" font-size="10" fill="#222">Circle</text><text x="890" y="1355" text-anchor="middle" font-family="Consolas, monospace" font-size="8" fill="#666">Boundary</text></g>
<path d="M 943,1345 C 890,1345 890,1300 837,1300" stroke="#4A4A4A" stroke-width="1.2" fill="none"/>
<rect x="1106" y="1260" width="120" height="80" fill="#FFFFFF" stroke="#B0B0B0"/>
<text x="1111" y="1272" font-family="Consolas, monospace" font-size="8" fill="#555">Perspective</text>
<g stroke="#111" stroke-width="0.9" fill="none">
<line x1="1170.9" y1="1305.1" x2="1175.8" y2="1309.1"/>
<line x1="1175.8" y1="1309.1" x2="1178.6" y2="1315.5"/>
<line x1="1178.6" y1="1315.5" x2="1178.4" y2="1323.4"/>
<line x1="1169.0" y1="1308.0" x2="1170.2" y2="1314.2"/>
<line x1="1170.2" y1="1314.2" x2="1168.3" y2="1320.8"/>
<line x1="1168.3" y1="1320.8" x2="1163.1" y2="1326.8"/>
<line x1="1165.8" y1="1309.0" x2="1162.7" y2="1314.5"/>
<line x1="1162.7" y1="1314.5" x2="1156.9" y2="1318.4"/>
<line x1="1156.9" y1="1318.4" x2="1149.1" y2="1319.6"/>
<line x1="1162.6" y1="1307.7" x2="1156.7" y2="1309.9"/>
<line x1="1156.7" y1="1309.9" x2="1149.8" y2="1309.2"/>
<line x1="1149.8" y1="1309.2" x2="1143.0" y2="1305.1"/>
<line x1="1161.0" y1="1304.7" x2="1155.1" y2="1302.6"/>
<line x1="1155.1" y1="1302.6" x2="1150.3" y2="1297.5"/>
<line x1="1150.3" y1="1297.5" x2="1147.7" y2="1290.1"/>
<line x1="1161.8" y1="1301.3" x2="1158.6" y2="1295.9"/>
<line x1="1158.6" y1="1295.9" x2="1158.1" y2="1288.9"/>
<line x1="1158.1" y1="1288.9" x2="1160.9" y2="1281.6"/>
<line x1="1164.5" y1="1299.2" x2="1165.5" y2="1293.0"/>
<line x1="1165.5" y1="1293.0" x2="1169.6" y2="1287.4"/>
<line x1="1169.6" y1="1287.4" x2="1176.5" y2="1283.6"/>
<line x1="1167.9" y1="1299.4" x2="1172.7" y2="1295.3"/>
<line x1="1172.7" y1="1295.3" x2="1179.5" y2="1293.6"/>
<line x1="1179.5" y1="1293.6" x2="1187.2" y2="1295.1"/>
<line x1="1170.4" y1="1301.7" x2="1176.7" y2="1301.6"/>
<line x1="1176.7" y1="1301.6" x2="1183.0" y2="1304.7"/>
<line x1="1183.0" y1="1304.7" x2="1188.0" y2="1310.8"/>
<line x1="1175.8" y1="1309.1" x2="1170.2" y2="1314.2"/>
<line x1="1170.2" y1="1314.2" x2="1162.7" y2="1314.5"/>
<line x1="1162.7" y1="1314.5" x2="1156.7" y2="1309.9"/>
<line x1="1156.7" y1="1309.9" x2="1155.1" y2="1302.6"/>
<line x1="1155.1" y1="1302.6" x2="1158.6" y2="1295.9"/>
<line x1="1158.6" y1="1295.9" x2="1165.5" y2="1293.0"/>
<line x1="1165.5" y1="1293.0" x2="1172.7" y2="1295.3"/>
<line x1="1172.7" y1="1295.3" x2="1176.7" y2="1301.6"/>
<line x1="1176.7" y1="1301.6" x2="1175.8" y2="1309.1"/>
<line x1="1178.6" y1="1315.5" x2="1168.3" y2="1320.8"/>
<line x1="1168.3" y1="1320.8" x2="1156.9" y2="1318.4"/>
<line x1="1156.9" y1="1318.4" x2="1149.8" y2="1309.2"/>
<line x1="1149.8" y1="1309.2" x2="1150.3" y2="1297.5"/>
<line x1="1150.3" y1="1297.5" x2="1158.1" y2="1288.9"/>
<line x1="1158.1" y1="1288.9" x2="1169.6" y2="1287.4"/>
<line x1="1169.6" y1="1287.4" x2="1179.5" y2="1293.6"/>
<line x1="1179.5" y1="1293.6" x2="1183.0" y2="1304.7"/>
<line x1="1183.0" y1="1304.7" x2="1178.6" y2="1315.5"/>
<line x1="1178.4" y1="1323.4" x2="1163.1" y2="1326.8"/>
<line x1="1163.1" y1="1326.8" x2="1149.1" y2="1319.6"/>
<line x1="1149.1" y1="1319.6" x2="1143.0" y2="1305.1"/>
<line x1="1143.0" y1="1305.1" x2="1147.7" y2="1290.1"/>
<line x1="1147.7" y1="1290.1" x2="1160.9" y2="1281.6"/>
<line x1="1160.9" y1="1281.6" x2="1176.5" y2="1283.6"/>
<line x1="1176.5" y1="1283.6" x2="1187.2" y2="1295.1"/>
<line x1="1187.2" y1="1295.1" x2="1188.0" y2="1310.8"/>
<line x1="1188.0" y1="1310.8" x2="1178.4" y2="1323.4"/>
</g>
<path d="M 1073,1294 C 1088,1294 1088,1304 1104,1304" stroke="#4A4A4A" stroke-width="1.2" fill="none"/>
<text x="66" y="1370" font-size="12.5" fill="#444">Bước 9 — Bật Preview, kéo slider (Spoke×2, Wind Spiral, Rows, Voronoi Fillet) đối chiếu video.</text>
</svg>