<svg xmlns="http://www.w3.org/2000/svg" width="1120" height="560" viewBox="0 0 1120 560" font-family="Segoe UI, sans-serif">
<rect x="0" y="0" width="1120" height="560" fill="#FAFAF7"/>
<defs><pattern id="dots" width="18" height="18" patternUnits="userSpaceOnUse"><circle cx="1" cy="1" r="1" fill="#E8E8E2"/></pattern></defs>
<rect x="0" y="0" width="1120" height="560" fill="url(#dots)"/>
<text x="20" y="30" font-size="15" font-weight="600" fill="#333">Pattern Voronoi mặt bánh xe — sơ đồ mạng nhện xoắn (dựa hình quan sát khung f_084)</text>
<circle cx="340" cy="285" r="252" fill="#2E2E30"/>
<g stroke="#E6A24E" stroke-width="1.4" fill="none">
<line x1="365.8" y1="288.3" x2="393.9" y2="300.1"/>
<line x1="393.9" y1="300.1" x2="418.6" y2="320.0"/>
<line x1="418.6" y1="320.0" x2="438.0" y2="347.1"/>
<line x1="438.0" y1="347.1" x2="450.6" y2="380.3"/>
<line x1="450.6" y1="380.3" x2="455.1" y2="418.1"/>
<line x1="455.1" y1="418.1" x2="450.6" y2="458.8"/>
<line x1="450.6" y1="458.8" x2="436.4" y2="500.4"/>
<line x1="361.8" y1="299.2" x2="382.0" y2="322.0"/>
<line x1="382.0" y1="322.0" x2="395.6" y2="350.6"/>
<line x1="395.6" y1="350.6" x2="401.3" y2="383.5"/>
<line x1="401.3" y1="383.5" x2="398.3" y2="418.9"/>
<line x1="398.3" y1="418.9" x2="386.0" y2="454.9"/>
<line x1="386.0" y1="454.9" x2="364.3" y2="489.6"/>
<line x1="364.3" y1="489.6" x2="333.4" y2="520.9"/>
<line x1="353.5" y1="307.2" x2="361.8" y2="336.6"/>
<line x1="361.8" y1="336.6" x2="361.6" y2="368.2"/>
<line x1="361.6" y1="368.2" x2="352.5" y2="400.3"/>
<line x1="352.5" y1="400.3" x2="334.4" y2="430.9"/>
<line x1="334.4" y1="430.9" x2="307.7" y2="458.0"/>
<line x1="307.7" y1="458.0" x2="273.1" y2="479.8"/>
<line x1="273.1" y1="479.8" x2="231.7" y2="494.7"/>
<line x1="342.5" y1="310.9" x2="337.3" y2="340.9"/>
<line x1="337.3" y1="340.9" x2="323.4" y2="369.4"/>
<line x1="323.4" y1="369.4" x2="301.2" y2="394.3"/>
<line x1="301.2" y1="394.3" x2="271.7" y2="414.0"/>
<line x1="271.7" y1="414.0" x2="235.9" y2="426.9"/>
<line x1="235.9" y1="426.9" x2="195.2" y2="431.5"/>
<line x1="195.2" y1="431.5" x2="151.4" y2="426.9"/>
<line x1="331.1" y1="309.4" x2="313.3" y2="334.2"/>
<line x1="313.3" y1="334.2" x2="288.4" y2="353.8"/>
<line x1="288.4" y1="353.8" x2="257.6" y2="366.7"/>
<line x1="257.6" y1="366.7" x2="222.5" y2="371.6"/>
<line x1="222.5" y1="371.6" x2="184.6" y2="367.6"/>
<line x1="184.6" y1="367.6" x2="146.0" y2="354.2"/>
<line x1="146.0" y1="354.2" x2="108.5" y2="331.1"/>
<line x1="321.4" y1="303.1" x2="294.6" y2="317.8"/>
<line x1="294.6" y1="317.8" x2="263.7" y2="324.6"/>
<line x1="263.7" y1="324.6" x2="230.3" y2="322.8"/>
<line x1="230.3" y1="322.8" x2="196.5" y2="312.0"/>
<line x1="196.5" y1="312.0" x2="164.1" y2="292.0"/>
<line x1="164.1" y1="292.0" x2="135.2" y2="263.2"/>
<line x1="135.2" y1="263.2" x2="111.5" y2="226.1"/>
<line x1="315.3" y1="293.2" x2="284.9" y2="294.8"/>
<line x1="284.9" y1="294.8" x2="254.0" y2="287.6"/>
<line x1="254.0" y1="287.6" x2="224.8" y2="271.5"/>
<line x1="224.8" y1="271.5" x2="199.0" y2="247.1"/>
<line x1="199.0" y1="247.1" x2="178.5" y2="215.0"/>
<line x1="178.5" y1="215.0" x2="164.9" y2="176.4"/>
<line x1="164.9" y1="176.4" x2="159.7" y2="132.7"/>
<line x1="314.2" y1="281.7" x2="286.1" y2="269.9"/>
<line x1="286.1" y1="269.9" x2="261.4" y2="250.0"/>
<line x1="261.4" y1="250.0" x2="242.0" y2="222.9"/>
<line x1="242.0" y1="222.9" x2="229.4" y2="189.7"/>
<line x1="229.4" y1="189.7" x2="224.9" y2="151.9"/>
<line x1="224.9" y1="151.9" x2="229.4" y2="111.2"/>
<line x1="229.4" y1="111.2" x2="243.6" y2="69.6"/>
<line x1="318.2" y1="270.8" x2="298.0" y2="248.0"/>
<line x1="298.0" y1="248.0" x2="284.4" y2="219.4"/>
<line x1="284.4" y1="219.4" x2="278.7" y2="186.5"/>
<line x1="278.7" y1="186.5" x2="281.7" y2="151.1"/>
<line x1="281.7" y1="151.1" x2="294.0" y2="115.1"/>
<line x1="294.0" y1="115.1" x2="315.7" y2="80.4"/>
<line x1="315.7" y1="80.4" x2="346.6" y2="49.1"/>
<line x1="326.5" y1="262.8" x2="318.2" y2="233.4"/>
<line x1="318.2" y1="233.4" x2="318.4" y2="201.8"/>
<line x1="318.4" y1="201.8" x2="327.5" y2="169.7"/>
<line x1="327.5" y1="169.7" x2="345.6" y2="139.1"/>
<line x1="345.6" y1="139.1" x2="372.3" y2="112.0"/>
<line x1="372.3" y1="112.0" x2="406.9" y2="90.2"/>
<line x1="406.9" y1="90.2" x2="448.3" y2="75.3"/>
<line x1="337.5" y1="259.1" x2="342.7" y2="229.1"/>
<line x1="342.7" y1="229.1" x2="356.6" y2="200.6"/>
<line x1="356.6" y1="200.6" x2="378.8" y2="175.7"/>
<line x1="378.8" y1="175.7" x2="408.3" y2="156.0"/>
<line x1="408.3" y1="156.0" x2="444.1" y2="143.1"/>
<line x1="444.1" y1="143.1" x2="484.8" y2="138.5"/>
<line x1="484.8" y1="138.5" x2="528.6" y2="143.1"/>
<line x1="348.9" y1="260.6" x2="366.7" y2="235.8"/>
<line x1="366.7" y1="235.8" x2="391.6" y2="216.2"/>
<line x1="391.6" y1="216.2" x2="422.4" y2="203.3"/>
<line x1="422.4" y1="203.3" x2="457.5" y2="198.4"/>
<line x1="457.5" y1="198.4" x2="495.4" y2="202.4"/>
<line x1="495.4" y1="202.4" x2="534.0" y2="215.8"/>
<line x1="534.0" y1="215.8" x2="571.5" y2="238.9"/>
<line x1="358.6" y1="266.9" x2="385.4" y2="252.2"/>
<line x1="385.4" y1="252.2" x2="416.3" y2="245.4"/>
<line x1="416.3" y1="245.4" x2="449.7" y2="247.2"/>
<line x1="449.7" y1="247.2" x2="483.5" y2="258.0"/>
<line x1="483.5" y1="258.0" x2="515.9" y2="278.0"/>
<line x1="515.9" y1="278.0" x2="544.8" y2="306.8"/>
<line x1="544.8" y1="306.8" x2="568.5" y2="343.9"/>
<line x1="364.7" y1="276.8" x2="395.1" y2="275.2"/>
<line x1="395.1" y1="275.2" x2="426.0" y2="282.4"/>
<line x1="426.0" y1="282.4" x2="455.2" y2="298.5"/>
<line x1="455.2" y1="298.5" x2="481.0" y2="322.9"/>
<line x1="481.0" y1="322.9" x2="501.5" y2="355.0"/>
<line x1="501.5" y1="355.0" x2="515.1" y2="393.6"/>
<line x1="515.1" y1="393.6" x2="520.3" y2="437.3"/>
<line x1="393.9" y1="300.1" x2="382.0" y2="322.0"/>
<line x1="382.0" y1="322.0" x2="361.8" y2="336.6"/>
<line x1="361.8" y1="336.6" x2="337.3" y2="340.9"/>
<line x1="337.3" y1="340.9" x2="313.3" y2="334.2"/>
<line x1="313.3" y1="334.2" x2="294.6" y2="317.8"/>
<line x1="294.6" y1="317.8" x2="284.9" y2="294.8"/>
<line x1="284.9" y1="294.8" x2="286.1" y2="269.9"/>
<line x1="286.1" y1="269.9" x2="298.0" y2="248.0"/>
<line x1="298.0" y1="248.0" x2="318.2" y2="233.4"/>
<line x1="318.2" y1="233.4" x2="342.7" y2="229.1"/>
<line x1="342.7" y1="229.1" x2="366.7" y2="235.8"/>
<line x1="366.7" y1="235.8" x2="385.4" y2="252.2"/>
<line x1="385.4" y1="252.2" x2="395.1" y2="275.2"/>
<line x1="395.1" y1="275.2" x2="393.9" y2="300.1"/>
<line x1="418.6" y1="320.0" x2="395.6" y2="350.6"/>
<line x1="395.6" y1="350.6" x2="361.6" y2="368.2"/>
<line x1="361.6" y1="368.2" x2="323.4" y2="369.4"/>
<line x1="323.4" y1="369.4" x2="288.4" y2="353.8"/>
<line x1="288.4" y1="353.8" x2="263.7" y2="324.6"/>
<line x1="263.7" y1="324.6" x2="254.0" y2="287.6"/>
<line x1="254.0" y1="287.6" x2="261.4" y2="250.0"/>
<line x1="261.4" y1="250.0" x2="284.4" y2="219.4"/>
<line x1="284.4" y1="219.4" x2="318.4" y2="201.8"/>
<line x1="318.4" y1="201.8" x2="356.6" y2="200.6"/>
<line x1="356.6" y1="200.6" x2="391.6" y2="216.2"/>
<line x1="391.6" y1="216.2" x2="416.3" y2="245.4"/>
<line x1="416.3" y1="245.4" x2="426.0" y2="282.4"/>
<line x1="426.0" y1="282.4" x2="418.6" y2="320.0"/>
<line x1="438.0" y1="347.1" x2="401.3" y2="383.5"/>
<line x1="401.3" y1="383.5" x2="352.5" y2="400.3"/>
<line x1="352.5" y1="400.3" x2="301.2" y2="394.3"/>
<line x1="301.2" y1="394.3" x2="257.6" y2="366.7"/>
<line x1="257.6" y1="366.7" x2="230.3" y2="322.8"/>
<line x1="230.3" y1="322.8" x2="224.8" y2="271.5"/>
<line x1="224.8" y1="271.5" x2="242.0" y2="222.9"/>
<line x1="242.0" y1="222.9" x2="278.7" y2="186.5"/>
<line x1="278.7" y1="186.5" x2="327.5" y2="169.7"/>
<line x1="327.5" y1="169.7" x2="378.8" y2="175.7"/>
<line x1="378.8" y1="175.7" x2="422.4" y2="203.3"/>
<line x1="422.4" y1="203.3" x2="449.7" y2="247.2"/>
<line x1="449.7" y1="247.2" x2="455.2" y2="298.5"/>
<line x1="455.2" y1="298.5" x2="438.0" y2="347.1"/>
<line x1="450.6" y1="380.3" x2="398.3" y2="418.9"/>
<line x1="398.3" y1="418.9" x2="334.4" y2="430.9"/>
<line x1="334.4" y1="430.9" x2="271.7" y2="414.0"/>
<line x1="271.7" y1="414.0" x2="222.5" y2="371.6"/>
<line x1="222.5" y1="371.6" x2="196.5" y2="312.0"/>
<line x1="196.5" y1="312.0" x2="199.0" y2="247.1"/>
<line x1="199.0" y1="247.1" x2="229.4" y2="189.7"/>
<line x1="229.4" y1="189.7" x2="281.7" y2="151.1"/>
<line x1="281.7" y1="151.1" x2="345.6" y2="139.1"/>
<line x1="345.6" y1="139.1" x2="408.3" y2="156.0"/>
<line x1="408.3" y1="156.0" x2="457.5" y2="198.4"/>
<line x1="457.5" y1="198.4" x2="483.5" y2="258.0"/>
<line x1="483.5" y1="258.0" x2="481.0" y2="322.9"/>
<line x1="481.0" y1="322.9" x2="450.6" y2="380.3"/>
<line x1="455.1" y1="418.1" x2="386.0" y2="454.9"/>
<line x1="386.0" y1="454.9" x2="307.7" y2="458.0"/>
<line x1="307.7" y1="458.0" x2="235.9" y2="426.9"/>
<line x1="235.9" y1="426.9" x2="184.6" y2="367.6"/>
<line x1="184.6" y1="367.6" x2="164.1" y2="292.0"/>
<line x1="164.1" y1="292.0" x2="178.5" y2="215.0"/>
<line x1="178.5" y1="215.0" x2="224.9" y2="151.9"/>
<line x1="224.9" y1="151.9" x2="294.0" y2="115.1"/>
<line x1="294.0" y1="115.1" x2="372.3" y2="112.0"/>
<line x1="372.3" y1="112.0" x2="444.1" y2="143.1"/>
<line x1="444.1" y1="143.1" x2="495.4" y2="202.4"/>
<line x1="495.4" y1="202.4" x2="515.9" y2="278.0"/>
<line x1="515.9" y1="278.0" x2="501.5" y2="355.0"/>
<line x1="501.5" y1="355.0" x2="455.1" y2="418.1"/>
<line x1="450.6" y1="458.8" x2="364.3" y2="489.6"/>
<line x1="364.3" y1="489.6" x2="273.1" y2="479.8"/>
<line x1="273.1" y1="479.8" x2="195.2" y2="431.5"/>
<line x1="195.2" y1="431.5" x2="146.0" y2="354.2"/>
<line x1="146.0" y1="354.2" x2="135.2" y2="263.2"/>
<line x1="135.2" y1="263.2" x2="164.9" y2="176.4"/>
<line x1="164.9" y1="176.4" x2="229.4" y2="111.2"/>
<line x1="229.4" y1="111.2" x2="315.7" y2="80.4"/>
<line x1="315.7" y1="80.4" x2="406.9" y2="90.2"/>
<line x1="406.9" y1="90.2" x2="484.8" y2="138.5"/>
<line x1="484.8" y1="138.5" x2="534.0" y2="215.8"/>
<line x1="534.0" y1="215.8" x2="544.8" y2="306.8"/>
<line x1="544.8" y1="306.8" x2="515.1" y2="393.6"/>
<line x1="515.1" y1="393.6" x2="450.6" y2="458.8"/>
<line x1="436.4" y1="500.4" x2="333.4" y2="520.9"/>
<line x1="333.4" y1="520.9" x2="231.7" y2="494.7"/>
<line x1="231.7" y1="494.7" x2="151.4" y2="426.9"/>
<line x1="151.4" y1="426.9" x2="108.5" y2="331.1"/>
<line x1="108.5" y1="331.1" x2="111.5" y2="226.1"/>
<line x1="111.5" y1="226.1" x2="159.7" y2="132.7"/>
<line x1="159.7" y1="132.7" x2="243.6" y2="69.6"/>
<line x1="243.6" y1="69.6" x2="346.6" y2="49.1"/>
<line x1="346.6" y1="49.1" x2="448.3" y2="75.3"/>
<line x1="448.3" y1="75.3" x2="528.6" y2="143.1"/>
<line x1="528.6" y1="143.1" x2="571.5" y2="238.9"/>
<line x1="571.5" y1="238.9" x2="568.5" y2="343.9"/>
<line x1="568.5" y1="343.9" x2="520.3" y2="437.3"/>
<line x1="520.3" y1="437.3" x2="436.4" y2="500.4"/>
</g>
<g stroke="#E6A24E" stroke-width="1.4" fill="none">
<line x1="520.3" y1="437.3" x2="450.3" y2="531.4"/>
<line x1="333.4" y1="520.9" x2="450.3" y2="531.4"/>
<line x1="333.4" y1="520.9" x2="216.1" y2="524.9"/>
<line x1="151.4" y1="426.9" x2="216.1" y2="524.9"/>
<line x1="151.4" y1="426.9" x2="75.2" y2="337.7"/>
<line x1="111.5" y1="226.1" x2="75.2" y2="337.7"/>
<line x1="111.5" y1="226.1" x2="133.7" y2="110.8"/>
<line x1="243.6" y1="69.6" x2="133.7" y2="110.8"/>
<line x1="243.6" y1="69.6" x2="347.6" y2="15.1"/>
<line x1="448.3" y1="75.3" x2="347.6" y2="15.1"/>
<line x1="448.3" y1="75.3" x2="555.7" y2="122.6"/>
<line x1="571.5" y1="238.9" x2="555.7" y2="122.6"/>
<line x1="571.5" y1="238.9" x2="601.4" y2="352.4"/>
<line x1="520.3" y1="437.3" x2="601.4" y2="352.4"/>
</g>
<line x1="272" y1="414" x2="700" y2="144" stroke="#B0B0B0" stroke-width="1" stroke-dasharray="3 3"/>
<circle cx="272" cy="414" r="4" fill="#E05A4E"/>
<text x="712" y="150" font-size="14" font-weight="600" fill="#222">Rows = 28</text>
<text x="712" y="170" font-size="12.5" fill="#555">Số vòng đồng tâm của mạng — tăng Rows thì mạng dày thêm nhiều lớp.</text>
<line x1="316" y1="80" x2="700" y2="234" stroke="#B0B0B0" stroke-width="1" stroke-dasharray="3 3"/>
<circle cx="316" cy="80" r="4" fill="#E05A4E"/>
<text x="712" y="240" font-size="14" font-weight="600" fill="#222">Wind Spiral = 60</text>
<text x="712" y="260" font-size="12.5" fill="#555">Độ xoáy — 0 thì tia toả thẳng, tăng lên thì các tia cong xoáy ốc.</text>
<line x1="470" y1="500" x2="700" y2="324" stroke="#B0B0B0" stroke-width="1" stroke-dasharray="3 3"/>
<circle cx="470" cy="500" r="4" fill="#E05A4E"/>
<text x="712" y="330" font-size="14" font-weight="600" fill="#222">Middle Spoke Count = 7</text>
<text x="712" y="350" font-size="12.5" fill="#555">Số "cánh"/tia nhọn ngoài cùng — giá trị 7 cho hoa 7 cánh cân đối.</text>
<line x1="348" y1="277" x2="700" y2="414" stroke="#B0B0B0" stroke-width="1" stroke-dasharray="3 3"/>
<circle cx="348" cy="277" r="4" fill="#E05A4E"/>
<text x="712" y="420" font-size="14" font-weight="600" fill="#222">Rotations = 141</text>
<text x="712" y="440" font-size="12.5" fill="#555">Góc xoay tổng thể của cả pattern quanh tâm bánh xe.</text>
<text x="712" y="500" font-size="12" font-style="italic" fill="#888">Sơ đồ khái niệm mô phỏng hình quan sát được — KHÔNG phải node graph</text>
<text x="712" y="518" font-size="12" font-style="italic" fill="#888">(video không lộ dây nối Grasshopper cho cụm này).</text>
</svg>