<svg width="640" height="380" viewBox="0 0 640 380" xmlns="http://www.w3.org/2000/svg" font-family="Segoe UI, Arial, sans-serif">
<rect x="0" y="0" width="640" height="380" fill="#FFFFFF" stroke="#B0B0B0"/>
<text x="12" y="24" font-family="Consolas, monospace" font-size="12" fill="#555">Top — pattern hoa văn toả tròn 12 cánh</text>
<path d="M 360.0,200.0 Q 447.9,176.7 470.0,200.0 Q 447.9,223.3 360.0,200.0 Z" fill="#D8A24A" opacity="0.75" stroke="#8a5a1a" stroke-width="0.8"/>
<path d="M 354.6,220.0 Q 442.4,243.8 449.9,275.0 Q 419.1,284.1 354.6,220.0 Z" fill="#D8A24A" opacity="0.75" stroke="#8a5a1a" stroke-width="0.8"/>
<path d="M 340.0,234.6 Q 404.1,299.1 395.0,329.9 Q 363.8,322.4 340.0,234.6 Z" fill="#D8A24A" opacity="0.75" stroke="#8a5a1a" stroke-width="0.8"/>
<path d="M 320.0,240.0 Q 343.3,327.9 320.0,350.0 Q 296.7,327.9 320.0,240.0 Z" fill="#D8A24A" opacity="0.75" stroke="#8a5a1a" stroke-width="0.8"/>
<path d="M 300.0,234.6 Q 276.2,322.4 245.0,329.9 Q 235.9,299.1 300.0,234.6 Z" fill="#D8A24A" opacity="0.75" stroke="#8a5a1a" stroke-width="0.8"/>
<path d="M 285.4,220.0 Q 220.9,284.1 190.1,275.0 Q 197.6,243.8 285.4,220.0 Z" fill="#D8A24A" opacity="0.75" stroke="#8a5a1a" stroke-width="0.8"/>
<path d="M 280.0,200.0 Q 192.1,223.3 170.0,200.0 Q 192.1,176.7 280.0,200.0 Z" fill="#D8A24A" opacity="0.75" stroke="#8a5a1a" stroke-width="0.8"/>
<path d="M 285.4,180.0 Q 197.6,156.2 190.1,125.0 Q 220.9,115.9 285.4,180.0 Z" fill="#D8A24A" opacity="0.75" stroke="#8a5a1a" stroke-width="0.8"/>
<path d="M 300.0,165.4 Q 235.9,100.9 245.0,70.1 Q 276.2,77.6 300.0,165.4 Z" fill="#D8A24A" opacity="0.75" stroke="#8a5a1a" stroke-width="0.8"/>
<path d="M 320.0,160.0 Q 296.7,72.1 320.0,50.0 Q 343.3,72.1 320.0,160.0 Z" fill="#D8A24A" opacity="0.75" stroke="#8a5a1a" stroke-width="0.8"/>
<path d="M 340.0,165.4 Q 363.8,77.6 395.0,70.1 Q 404.1,100.9 340.0,165.4 Z" fill="#D8A24A" opacity="0.75" stroke="#8a5a1a" stroke-width="0.8"/>
<path d="M 354.6,180.0 Q 419.1,115.9 449.9,125.0 Q 442.4,156.2 354.6,180.0 Z" fill="#D8A24A" opacity="0.75" stroke="#8a5a1a" stroke-width="0.8"/>
<circle cx="320" cy="200" r="10" fill="#8a5a1a"/>
<text x="12" y="358" font-size="12" fill="#555">Series (0..11) × 30° → 12 góc xoay đều → Rotate tạo pattern hoa văn 12 cánh toả tròn</text>
</svg>
