<svg width="1620" height="900" viewBox="0 0 1620 900" xmlns="http://www.w3.org/2000/svg" font-family="Segoe UI, Arial, sans-serif">
<defs>
  <linearGradient id="ghBody" x1="0" y1="0" x2="0" y2="1">
    <stop offset="0%" stop-color="#F0F0F0"/>
    <stop offset="100%" stop-color="#D8D8D8"/>
  </linearGradient>
  <linearGradient id="paramGrad" x1="0" y1="0" x2="0" y2="1">
    <stop offset="0%" stop-color="#E8F200"/>
    <stop offset="100%" stop-color="#A8C400"/>
  </linearGradient>
  <pattern id="dg" width="18" height="18" patternUnits="userSpaceOnUse">
    <circle cx="1" cy="1" r="1" fill="#E0E0DA"/>
  </pattern>
</defs>
<rect x="0" y="0" width="1240" height="900" fill="#FAFAF7"/>
<rect x="0" y="0" width="1240" height="900" fill="url(#dg)"/>
<rect x="20" y="20" width="140" height="30" rx="4" fill="#F0F0F0" stroke="#8C8C8C"/>
<rect x="25" y="31.5" width="88" height="7" rx="2.5" fill="#E4E4E4" stroke="#B0B0B0"/>
<circle cx="69.0" cy="35.0" r="3.5" fill="#8C8C8C"/>
<text x="155" y="38.0" text-anchor="end" font-size="9" fill="#333">Ratio=30</text>
<rect x="158.0" y="28.0" width="10" height="14" rx="3" fill="#E8E8E8" stroke="#8C8C8C"/><circle cx="163.0" cy="35.0" r="2.3" fill="#4A4A4A"/>
<rect x="20" y="62" width="140" height="30" rx="4" fill="#F0F0F0" stroke="#8C8C8C"/>
<rect x="25" y="73.5" width="88" height="7" rx="2.5" fill="#E4E4E4" stroke="#B0B0B0"/>
<circle cx="69.0" cy="77.0" r="3.5" fill="#8C8C8C"/>
<text x="155" y="80.0" text-anchor="end" font-size="9" fill="#333">Tire Width=325</text>
<rect x="158.0" y="70.0" width="10" height="14" rx="3" fill="#E8E8E8" stroke="#8C8C8C"/><circle cx="163.0" cy="77.0" r="2.3" fill="#4A4A4A"/>
<rect x="200" y="15" width="100" height="50" rx="6" fill="url(#ghBody)" stroke="#8C8C8C" stroke-width="1.1"/>
<text x="250.0" y="30" text-anchor="middle" font-size="10" font-weight="bold" fill="#222">Division</text>
<text x="250.0" y="42" text-anchor="middle" font-size="8.5" fill="#555">B=100 (gõ thẳng)</text>
<rect x="192.0" y="45.0" width="10" height="14" rx="3" fill="#E8E8E8" stroke="#8C8C8C"/><circle cx="197.0" cy="52.0" r="2.3" fill="#4A4A4A"/>
<text x="207" y="55.0" font-size="8.5" fill="#333">A</text>
<rect x="192.0" y="53.0" width="10" height="14" rx="3" fill="#E8E8E8" stroke="#8C8C8C"/><circle cx="197.0" cy="60.0" r="2.3" fill="#4A4A4A"/>
<text x="207" y="63.0" font-size="8.5" fill="#333">B</text>
<rect x="298.0" y="49.0" width="10" height="14" rx="3" fill="#E8E8E8" stroke="#8C8C8C"/><circle cx="303.0" cy="56.0" r="2.3" fill="#4A4A4A"/>
<rect x="340" y="15" width="110" height="50" rx="6" fill="url(#ghBody)" stroke="#8C8C8C" stroke-width="1.1"/>
<text x="395.0" y="30" text-anchor="middle" font-size="10" font-weight="bold" fill="#222">Multiplication</text>
<rect x="332.0" y="35.0" width="10" height="14" rx="3" fill="#E8E8E8" stroke="#8C8C8C"/><circle cx="337.0" cy="42.0" r="2.3" fill="#4A4A4A"/>
<text x="347" y="45.0" font-size="8.5" fill="#333">A</text>
<rect x="332.0" y="53.0" width="10" height="14" rx="3" fill="#E8E8E8" stroke="#8C8C8C"/><circle cx="337.0" cy="60.0" r="2.3" fill="#4A4A4A"/>
<text x="347" y="63.0" font-size="8.5" fill="#333">B</text>
<rect x="448.0" y="44.0" width="10" height="14" rx="3" fill="#E8E8E8" stroke="#8C8C8C"/><circle cx="453.0" cy="51.0" r="2.3" fill="#4A4A4A"/>
<rect x="490" y="25" width="72" height="26" fill="#FFFFFF" stroke="#8C8C8C"/><text x="526" y="42" text-anchor="middle" font-size="10" fill="#222">Height</text>
<rect x="560.0" y="31.0" width="10" height="14" rx="3" fill="#E8E8E8" stroke="#8C8C8C"/><circle cx="565.0" cy="38.0" r="2.3" fill="#4A4A4A"/>
<rect x="200" y="80" width="100" height="50" rx="6" fill="url(#ghBody)" stroke="#8C8C8C" stroke-width="1.1"/>
<text x="250.0" y="95" text-anchor="middle" font-size="10" font-weight="bold" fill="#222">Division</text>
<text x="250.0" y="107" text-anchor="middle" font-size="8.5" fill="#555">B=2 (gõ thẳng)</text>
<rect x="192.0" y="110.0" width="10" height="14" rx="3" fill="#E8E8E8" stroke="#8C8C8C"/><circle cx="197.0" cy="117.0" r="2.3" fill="#4A4A4A"/>
<text x="207" y="120.0" font-size="8.5" fill="#333">A</text>
<rect x="192.0" y="118.0" width="10" height="14" rx="3" fill="#E8E8E8" stroke="#8C8C8C"/><circle cx="197.0" cy="125.0" r="2.3" fill="#4A4A4A"/>
<text x="207" y="128.0" font-size="8.5" fill="#333">B</text>
<rect x="298.0" y="114.0" width="10" height="14" rx="3" fill="#E8E8E8" stroke="#8C8C8C"/><circle cx="303.0" cy="121.0" r="2.3" fill="#4A4A4A"/>
<rect x="340" y="90" width="90" height="26" fill="#FFFFFF" stroke="#8C8C8C"/><text x="385" y="107" text-anchor="middle" font-size="10" fill="#222">Half Width</text>
<rect x="428.0" y="96.0" width="10" height="14" rx="3" fill="#E8E8E8" stroke="#8C8C8C"/><circle cx="433.0" cy="103.0" r="2.3" fill="#4A4A4A"/>
<text x="20" y="150" font-size="10.5" fill="#333">↓ Height và Half Width dùng chung cho cả 5 điểm bên dưới</text>
<rect x="480" y="175" width="150" height="60" rx="6" fill="url(#ghBody)" stroke="#8C8C8C" stroke-width="1.1"/>
<text x="555.0" y="190" text-anchor="middle" font-size="10" font-weight="bold" fill="#222">Construct Point</text>
<text x="555.0" y="202" text-anchor="middle" font-size="8.5" fill="#555">(P0 — đỉnh mui)</text>
<rect x="472.0" y="205.0" width="10" height="14" rx="3" fill="#E8E8E8" stroke="#8C8C8C"/><circle cx="477.0" cy="212.0" r="2.3" fill="#4A4A4A"/>
<text x="487" y="215.0" font-size="8.5" fill="#333">X</text>
<rect x="472.0" y="223.0" width="10" height="14" rx="3" fill="#E8E8E8" stroke="#8C8C8C"/><circle cx="477.0" cy="230.0" r="2.3" fill="#4A4A4A"/>
<text x="487" y="233.0" font-size="8.5" fill="#333">Y</text>
<rect x="628.0" y="214.0" width="10" height="14" rx="3" fill="#E8E8E8" stroke="#8C8C8C"/><circle cx="633.0" cy="221.0" r="2.3" fill="#4A4A4A"/>
<text x="502" y="215.0" font-size="8.5" fill="#c0392b">= 0 (gõ thẳng)</text>
<text x="502" y="233.0" font-size="8.5" fill="#1f8a8a">= Height (nối thẳng)</text>
<rect x="20" y="253" width="130" height="26" rx="4" fill="#F0F0F0" stroke="#8C8C8C"/>
<rect x="25" y="262.5" width="78" height="7" rx="2.5" fill="#E4E4E4" stroke="#B0B0B0"/>
<circle cx="64.0" cy="266.0" r="3.5" fill="#8C8C8C"/>
<text x="145" y="269.0" text-anchor="end" font-size="8.5" fill="#333">P1 X=0.75</text>
<rect x="148.0" y="259.0" width="10" height="14" rx="3" fill="#E8E8E8" stroke="#8C8C8C"/><circle cx="153.0" cy="266.0" r="2.3" fill="#4A4A4A"/>
<rect x="210" y="245" width="100" height="52.25000000000001" rx="6" fill="url(#ghBody)" stroke="#8C8C8C" stroke-width="1.1"/>
<text x="260.0" y="260" text-anchor="middle" font-size="9" font-weight="bold" fill="#222">Multiplication</text>
<text x="260.0" y="272" text-anchor="middle" font-size="8.5" fill="#555">(X)</text>
<rect x="202.0" y="275.0" width="10" height="14" rx="3" fill="#E8E8E8" stroke="#8C8C8C"/><circle cx="207.0" cy="282.0" r="2.3" fill="#4A4A4A"/>
<text x="217" y="285.0" font-size="8.5" fill="#333">A</text>
<rect x="202.0" y="285.2" width="10" height="14" rx="3" fill="#E8E8E8" stroke="#8C8C8C"/><circle cx="207.0" cy="292.2" r="2.3" fill="#4A4A4A"/>
<text x="217" y="295.25" font-size="8.5" fill="#333">B</text>
<rect x="308.0" y="280.1" width="10" height="14" rx="3" fill="#E8E8E8" stroke="#8C8C8C"/><circle cx="313.0" cy="287.1" r="2.3" fill="#4A4A4A"/>
<rect x="20" y="283" width="130" height="26" rx="4" fill="#F0F0F0" stroke="#8C8C8C"/>
<rect x="25" y="292.5" width="78" height="7" rx="2.5" fill="#E4E4E4" stroke="#B0B0B0"/>
<circle cx="64.0" cy="296.0" r="3.5" fill="#8C8C8C"/>
<text x="145" y="299.0" text-anchor="end" font-size="8.5" fill="#333">P1 Y=0.97</text>
<rect x="148.0" y="289.0" width="10" height="14" rx="3" fill="#E8E8E8" stroke="#8C8C8C"/><circle cx="153.0" cy="296.0" r="2.3" fill="#4A4A4A"/>
<rect x="340" y="291.0" width="100" height="52.25000000000001" rx="6" fill="url(#ghBody)" stroke="#8C8C8C" stroke-width="1.1"/>
<text x="390.0" y="306.0" text-anchor="middle" font-size="9" font-weight="bold" fill="#222">Multiplication</text>
<text x="390.0" y="318.0" text-anchor="middle" font-size="8.5" fill="#555">(Y)</text>
<rect x="332.0" y="321.0" width="10" height="14" rx="3" fill="#E8E8E8" stroke="#8C8C8C"/><circle cx="337.0" cy="328.0" r="2.3" fill="#4A4A4A"/>
<text x="347" y="331.0" font-size="8.5" fill="#333">A</text>
<rect x="332.0" y="331.2" width="10" height="14" rx="3" fill="#E8E8E8" stroke="#8C8C8C"/><circle cx="337.0" cy="338.2" r="2.3" fill="#4A4A4A"/>
<text x="347" y="341.25" font-size="8.5" fill="#333">B</text>
<rect x="438.0" y="326.1" width="10" height="14" rx="3" fill="#E8E8E8" stroke="#8C8C8C"/><circle cx="443.0" cy="333.1" r="2.3" fill="#4A4A4A"/>
<rect x="480" y="253" width="150" height="95" rx="6" fill="url(#ghBody)" stroke="#8C8C8C" stroke-width="1.1"/>
<text x="555.0" y="268" text-anchor="middle" font-size="10" font-weight="bold" fill="#222">Construct Point</text>
<text x="555.0" y="280" text-anchor="middle" font-size="8.5" fill="#555">(P1 — mép mui)</text>
<rect x="472.0" y="283.0" width="10" height="14" rx="3" fill="#E8E8E8" stroke="#8C8C8C"/><circle cx="477.0" cy="290.0" r="2.3" fill="#4A4A4A"/>
<text x="487" y="293.0" font-size="8.5" fill="#333">X</text>
<rect x="472.0" y="336.0" width="10" height="14" rx="3" fill="#E8E8E8" stroke="#8C8C8C"/><circle cx="477.0" cy="343.0" r="2.3" fill="#4A4A4A"/>
<text x="487" y="346.0" font-size="8.5" fill="#333">Y</text>
<rect x="628.0" y="309.5" width="10" height="14" rx="3" fill="#E8E8E8" stroke="#8C8C8C"/><circle cx="633.0" cy="316.5" r="2.3" fill="#4A4A4A"/>
<rect x="20" y="366" width="130" height="26" rx="4" fill="#F0F0F0" stroke="#8C8C8C"/>
<rect x="25" y="375.5" width="78" height="7" rx="2.5" fill="#E4E4E4" stroke="#B0B0B0"/>
<circle cx="64.0" cy="379.0" r="3.5" fill="#8C8C8C"/>
<text x="145" y="382.0" text-anchor="end" font-size="8.5" fill="#333">P2 X=0.95</text>
<rect x="148.0" y="372.0" width="10" height="14" rx="3" fill="#E8E8E8" stroke="#8C8C8C"/><circle cx="153.0" cy="379.0" r="2.3" fill="#4A4A4A"/>
<rect x="210" y="358" width="100" height="52.25000000000001" rx="6" fill="url(#ghBody)" stroke="#8C8C8C" stroke-width="1.1"/>
<text x="260.0" y="373" text-anchor="middle" font-size="9" font-weight="bold" fill="#222">Multiplication</text>
<text x="260.0" y="385" text-anchor="middle" font-size="8.5" fill="#555">(X)</text>
<rect x="202.0" y="388.0" width="10" height="14" rx="3" fill="#E8E8E8" stroke="#8C8C8C"/><circle cx="207.0" cy="395.0" r="2.3" fill="#4A4A4A"/>
<text x="217" y="398.0" font-size="8.5" fill="#333">A</text>
<rect x="202.0" y="398.2" width="10" height="14" rx="3" fill="#E8E8E8" stroke="#8C8C8C"/><circle cx="207.0" cy="405.2" r="2.3" fill="#4A4A4A"/>
<text x="217" y="408.25" font-size="8.5" fill="#333">B</text>
<rect x="308.0" y="393.1" width="10" height="14" rx="3" fill="#E8E8E8" stroke="#8C8C8C"/><circle cx="313.0" cy="400.1" r="2.3" fill="#4A4A4A"/>
<rect x="20" y="396" width="130" height="26" rx="4" fill="#F0F0F0" stroke="#8C8C8C"/>
<rect x="25" y="405.5" width="78" height="7" rx="2.5" fill="#E4E4E4" stroke="#B0B0B0"/>
<circle cx="64.0" cy="409.0" r="3.5" fill="#8C8C8C"/>
<text x="145" y="412.0" text-anchor="end" font-size="8.5" fill="#333">P2 Y=0.55</text>
<rect x="148.0" y="402.0" width="10" height="14" rx="3" fill="#E8E8E8" stroke="#8C8C8C"/><circle cx="153.0" cy="409.0" r="2.3" fill="#4A4A4A"/>
<rect x="340" y="404.0" width="100" height="52.25000000000001" rx="6" fill="url(#ghBody)" stroke="#8C8C8C" stroke-width="1.1"/>
<text x="390.0" y="419.0" text-anchor="middle" font-size="9" font-weight="bold" fill="#222">Multiplication</text>
<text x="390.0" y="431.0" text-anchor="middle" font-size="8.5" fill="#555">(Y)</text>
<rect x="332.0" y="434.0" width="10" height="14" rx="3" fill="#E8E8E8" stroke="#8C8C8C"/><circle cx="337.0" cy="441.0" r="2.3" fill="#4A4A4A"/>
<text x="347" y="444.0" font-size="8.5" fill="#333">A</text>
<rect x="332.0" y="444.2" width="10" height="14" rx="3" fill="#E8E8E8" stroke="#8C8C8C"/><circle cx="337.0" cy="451.2" r="2.3" fill="#4A4A4A"/>
<text x="347" y="454.25" font-size="8.5" fill="#333">B</text>
<rect x="438.0" y="439.1" width="10" height="14" rx="3" fill="#E8E8E8" stroke="#8C8C8C"/><circle cx="443.0" cy="446.1" r="2.3" fill="#4A4A4A"/>
<rect x="480" y="366" width="150" height="95" rx="6" fill="url(#ghBody)" stroke="#8C8C8C" stroke-width="1.1"/>
<text x="555.0" y="381" text-anchor="middle" font-size="10" font-weight="bold" fill="#222">Construct Point</text>
<text x="555.0" y="393" text-anchor="middle" font-size="8.5" fill="#555">(P2 — vai lốp)</text>
<rect x="472.0" y="396.0" width="10" height="14" rx="3" fill="#E8E8E8" stroke="#8C8C8C"/><circle cx="477.0" cy="403.0" r="2.3" fill="#4A4A4A"/>
<text x="487" y="406.0" font-size="8.5" fill="#333">X</text>
<rect x="472.0" y="449.0" width="10" height="14" rx="3" fill="#E8E8E8" stroke="#8C8C8C"/><circle cx="477.0" cy="456.0" r="2.3" fill="#4A4A4A"/>
<text x="487" y="459.0" font-size="8.5" fill="#333">Y</text>
<rect x="628.0" y="422.5" width="10" height="14" rx="3" fill="#E8E8E8" stroke="#8C8C8C"/><circle cx="633.0" cy="429.5" r="2.3" fill="#4A4A4A"/>
<rect x="20" y="479" width="130" height="26" rx="4" fill="#F0F0F0" stroke="#8C8C8C"/>
<rect x="25" y="488.5" width="78" height="7" rx="2.5" fill="#E4E4E4" stroke="#B0B0B0"/>
<circle cx="64.0" cy="492.0" r="3.5" fill="#8C8C8C"/>
<text x="145" y="495.0" text-anchor="end" font-size="8.5" fill="#333">P3 X=0.9</text>
<rect x="148.0" y="485.0" width="10" height="14" rx="3" fill="#E8E8E8" stroke="#8C8C8C"/><circle cx="153.0" cy="492.0" r="2.3" fill="#4A4A4A"/>
<rect x="210" y="471" width="100" height="52.25000000000001" rx="6" fill="url(#ghBody)" stroke="#8C8C8C" stroke-width="1.1"/>
<text x="260.0" y="486" text-anchor="middle" font-size="9" font-weight="bold" fill="#222">Multiplication</text>
<text x="260.0" y="498" text-anchor="middle" font-size="8.5" fill="#555">(X)</text>
<rect x="202.0" y="501.0" width="10" height="14" rx="3" fill="#E8E8E8" stroke="#8C8C8C"/><circle cx="207.0" cy="508.0" r="2.3" fill="#4A4A4A"/>
<text x="217" y="511.0" font-size="8.5" fill="#333">A</text>
<rect x="202.0" y="511.2" width="10" height="14" rx="3" fill="#E8E8E8" stroke="#8C8C8C"/><circle cx="207.0" cy="518.2" r="2.3" fill="#4A4A4A"/>
<text x="217" y="521.25" font-size="8.5" fill="#333">B</text>
<rect x="308.0" y="506.1" width="10" height="14" rx="3" fill="#E8E8E8" stroke="#8C8C8C"/><circle cx="313.0" cy="513.1" r="2.3" fill="#4A4A4A"/>
<rect x="20" y="509" width="130" height="26" rx="4" fill="#F0F0F0" stroke="#8C8C8C"/>
<rect x="25" y="518.5" width="78" height="7" rx="2.5" fill="#E4E4E4" stroke="#B0B0B0"/>
<circle cx="64.0" cy="522.0" r="3.5" fill="#8C8C8C"/>
<text x="145" y="525.0" text-anchor="end" font-size="8.5" fill="#333">P3 Y=0.15</text>
<rect x="148.0" y="515.0" width="10" height="14" rx="3" fill="#E8E8E8" stroke="#8C8C8C"/><circle cx="153.0" cy="522.0" r="2.3" fill="#4A4A4A"/>
<rect x="340" y="517.0" width="100" height="52.25000000000001" rx="6" fill="url(#ghBody)" stroke="#8C8C8C" stroke-width="1.1"/>
<text x="390.0" y="532.0" text-anchor="middle" font-size="9" font-weight="bold" fill="#222">Multiplication</text>
<text x="390.0" y="544.0" text-anchor="middle" font-size="8.5" fill="#555">(Y)</text>
<rect x="332.0" y="547.0" width="10" height="14" rx="3" fill="#E8E8E8" stroke="#8C8C8C"/><circle cx="337.0" cy="554.0" r="2.3" fill="#4A4A4A"/>
<text x="347" y="557.0" font-size="8.5" fill="#333">A</text>
<rect x="332.0" y="557.2" width="10" height="14" rx="3" fill="#E8E8E8" stroke="#8C8C8C"/><circle cx="337.0" cy="564.2" r="2.3" fill="#4A4A4A"/>
<text x="347" y="567.25" font-size="8.5" fill="#333">B</text>
<rect x="438.0" y="552.1" width="10" height="14" rx="3" fill="#E8E8E8" stroke="#8C8C8C"/><circle cx="443.0" cy="559.1" r="2.3" fill="#4A4A4A"/>
<rect x="480" y="479" width="150" height="95" rx="6" fill="url(#ghBody)" stroke="#8C8C8C" stroke-width="1.1"/>
<text x="555.0" y="494" text-anchor="middle" font-size="10" font-weight="bold" fill="#222">Construct Point</text>
<text x="555.0" y="506" text-anchor="middle" font-size="8.5" fill="#555">(P3 — bậc thang)</text>
<rect x="472.0" y="509.0" width="10" height="14" rx="3" fill="#E8E8E8" stroke="#8C8C8C"/><circle cx="477.0" cy="516.0" r="2.3" fill="#4A4A4A"/>
<text x="487" y="519.0" font-size="8.5" fill="#333">X</text>
<rect x="472.0" y="562.0" width="10" height="14" rx="3" fill="#E8E8E8" stroke="#8C8C8C"/><circle cx="477.0" cy="569.0" r="2.3" fill="#4A4A4A"/>
<text x="487" y="572.0" font-size="8.5" fill="#333">Y</text>
<rect x="628.0" y="535.5" width="10" height="14" rx="3" fill="#E8E8E8" stroke="#8C8C8C"/><circle cx="633.0" cy="542.5" r="2.3" fill="#4A4A4A"/>
<rect x="20" y="592" width="130" height="26" rx="4" fill="#F0F0F0" stroke="#8C8C8C"/>
<rect x="25" y="601.5" width="78" height="7" rx="2.5" fill="#E4E4E4" stroke="#B0B0B0"/>
<circle cx="64.0" cy="605.0" r="3.5" fill="#8C8C8C"/>
<text x="145" y="608.0" text-anchor="end" font-size="8.5" fill="#333">P4 X=0.9</text>
<rect x="148.0" y="598.0" width="10" height="14" rx="3" fill="#E8E8E8" stroke="#8C8C8C"/><circle cx="153.0" cy="605.0" r="2.3" fill="#4A4A4A"/>
<rect x="210" y="584" width="100" height="46" rx="6" fill="url(#ghBody)" stroke="#8C8C8C" stroke-width="1.1"/>
<text x="260.0" y="599" text-anchor="middle" font-size="9" font-weight="bold" fill="#222">Multiplication</text>
<text x="260.0" y="611" text-anchor="middle" font-size="8.5" fill="#555">(X)</text>
<rect x="202.0" y="614.0" width="10" height="14" rx="3" fill="#E8E8E8" stroke="#8C8C8C"/><circle cx="207.0" cy="621.0" r="2.3" fill="#4A4A4A"/>
<text x="217" y="624.0" font-size="8.5" fill="#333">A</text>
<rect x="202.0" y="618.0" width="10" height="14" rx="3" fill="#E8E8E8" stroke="#8C8C8C"/><circle cx="207.0" cy="625.0" r="2.3" fill="#4A4A4A"/>
<text x="217" y="628.0" font-size="8.5" fill="#333">B</text>
<rect x="308.0" y="616.0" width="10" height="14" rx="3" fill="#E8E8E8" stroke="#8C8C8C"/><circle cx="313.0" cy="623.0" r="2.3" fill="#4A4A4A"/>
<rect x="480" y="592" width="150" height="60" rx="6" fill="url(#ghBody)" stroke="#8C8C8C" stroke-width="1.1"/>
<text x="555.0" y="607" text-anchor="middle" font-size="10" font-weight="bold" fill="#222">Construct Point</text>
<text x="555.0" y="619" text-anchor="middle" font-size="8.5" fill="#555">(P4 — đáy)</text>
<rect x="472.0" y="622.0" width="10" height="14" rx="3" fill="#E8E8E8" stroke="#8C8C8C"/><circle cx="477.0" cy="629.0" r="2.3" fill="#4A4A4A"/>
<text x="487" y="632.0" font-size="8.5" fill="#333">X</text>
<rect x="472.0" y="640.0" width="10" height="14" rx="3" fill="#E8E8E8" stroke="#8C8C8C"/><circle cx="477.0" cy="647.0" r="2.3" fill="#4A4A4A"/>
<text x="487" y="650.0" font-size="8.5" fill="#333">Y</text>
<rect x="628.0" y="631.0" width="10" height="14" rx="3" fill="#E8E8E8" stroke="#8C8C8C"/><circle cx="633.0" cy="638.0" r="2.3" fill="#4A4A4A"/>
<text x="502" y="650.0" font-size="8.5" fill="#c0392b">= 0 (gõ thẳng)</text>
<rect x="700" y="400" width="120" height="100" rx="6" fill="url(#ghBody)" stroke="#8C8C8C" stroke-width="1.2"/>
<text x="760.0" y="422" text-anchor="middle" font-size="13" font-weight="bold" fill="#222">Mirror</text>
<rect x="692.0" y="421.0" width="10" height="14" rx="3" fill="#E8E8E8" stroke="#8C8C8C"/><circle cx="697.0" cy="428.0" r="2.3" fill="#4A4A4A"/>
<text x="708" y="431" font-size="10" fill="#333">G</text>
<rect x="692.0" y="465.0" width="10" height="14" rx="3" fill="#E8E8E8" stroke="#8C8C8C"/><circle cx="697.0" cy="472.0" r="2.3" fill="#4A4A4A"/>
<text x="708" y="475" font-size="10" fill="#333">P</text>
<rect x="818.0" y="443.0" width="10" height="14" rx="3" fill="#E8E8E8" stroke="#8C8C8C"/><circle cx="823.0" cy="450.0" r="2.3" fill="#4A4A4A"/>
<text x="760.0" y="490" text-anchor="middle" font-size="8.5" fill="#555">(chỉ P1..P4, KHÔNG P0)</text>
<rect x="700" y="520" width="140" height="34" rx="5" fill="url(#paramGrad)" stroke="#8C9400" stroke-width="1"/>
<text x="770.0" y="541.0" text-anchor="middle" font-size="11" font-weight="600" fill="#3a3d00">Plane (YZ, gốc)</text>
<rect x="838.0" y="530.0" width="10" height="14" rx="3" fill="#E8E8E8" stroke="#8C8C8C"/><circle cx="843.0" cy="537.0" r="2.3" fill="#4A4A4A"/>
<rect x="900" y="380" width="140" height="110" rx="6" fill="url(#ghBody)" stroke="#8C8C8C" stroke-width="1.2"/>
<text x="970.0" y="402" text-anchor="middle" font-size="12.5" font-weight="bold" fill="#222">Kinky Curve</text>
<rect x="892.0" y="408.0" width="10" height="14" rx="3" fill="#E8E8E8" stroke="#8C8C8C"/><circle cx="897.0" cy="415.0" r="2.3" fill="#4A4A4A"/>
<text x="908" y="418" font-size="10" fill="#333">V</text>
<rect x="892.0" y="458.0" width="10" height="14" rx="3" fill="#E8E8E8" stroke="#8C8C8C"/><circle cx="897.0" cy="465.0" r="2.3" fill="#4A4A4A"/>
<text x="908" y="468" font-size="10" fill="#333">A</text>
<text x="1032" y="468" text-anchor="end" font-size="8.5" fill="#999">2.094 (~120°)</text>
<rect x="1038.0" y="428.0" width="10" height="14" rx="3" fill="#E8E8E8" stroke="#8C8C8C"/><circle cx="1043.0" cy="435.0" r="2.3" fill="#4A4A4A"/>
<text x="760" y="356" font-size="9.5" fill="#c0392b">V nhận 6 dây (1 từ Mirror = 4 điểm trái, + 5 điểm phải)</text>
<text x="760" y="370" font-size="9.5" fill="#c0392b">Grasshopper tự nối thành 1 list 9 điểm đúng thứ tự dây đã nối</text>
<rect x="900" y="530" width="130" height="32" rx="5" fill="#F0F0F0" stroke="#8C8C8C"/>
<rect x="906" y="542.0" width="74" height="8" rx="3" fill="#E4E4E4" stroke="#B0B0B0"/>
<circle cx="930" cy="546.0" r="4" fill="#8C8C8C"/>
<text x="1024" y="549.5" text-anchor="end" font-size="9.5" fill="#333">Wall=5</text>
<rect x="1028.0" y="539.0" width="10" height="14" rx="3" fill="#E8E8E8" stroke="#8C8C8C"/><circle cx="1033.0" cy="546.0" r="2.3" fill="#4A4A4A"/>
<rect x="1060" y="385" width="140" height="80" rx="6" fill="url(#ghBody)" stroke="#8C8C8C" stroke-width="1.2"/>
<text x="1130.0" y="405" text-anchor="middle" font-size="11.5" font-weight="bold" fill="#222">Offset Curve</text>
<text x="1130.0" y="418" text-anchor="middle" font-size="8.5" fill="#555">(tuỳ chọn)</text>
<rect x="1052.0" y="403.0" width="10" height="14" rx="3" fill="#E8E8E8" stroke="#8C8C8C"/><circle cx="1057.0" cy="410.0" r="2.3" fill="#4A4A4A"/>
<text x="1068" y="413" font-size="10" fill="#333">C</text>
<rect x="1052.0" y="436.0" width="10" height="14" rx="3" fill="#E8E8E8" stroke="#8C8C8C"/><circle cx="1057.0" cy="443.0" r="2.3" fill="#4A4A4A"/>
<text x="1068" y="446" font-size="10" fill="#333">D</text>
<rect x="1198.0" y="418.0" width="10" height="14" rx="3" fill="#E8E8E8" stroke="#8C8C8C"/><circle cx="1203.0" cy="425.0" r="2.3" fill="#4A4A4A"/>
<text x="20" y="844" font-size="11" fill="#555">P0: X=0, P4: Y=0 gõ thẳng số. P0 Y = Height nối thẳng (tỉ lệ 1.0, không cần nhân).</text>
<text x="20" y="862" font-size="11" fill="#c0392b">Mirror áp cho ĐIỂM (P1..P4), không áp cho đường cong — tránh lỗi gãy tangent tại P0 (đã xác nhận qua thực tế).</text>
<text x="20" y="880" font-size="10" fill="#999">Xấp xỉ hình dáng quan sát được từ video — không phải số đo chính xác 100% từ bản gốc.</text>
<path d="M 163.0,35.0 C 180.0,35.0 180.0,52.0 197.0,52.0" stroke="#4A4A4A" stroke-width="1.15" fill="none" opacity="1.0"/>
<path d="M 163.0,77.0 C 250.0,77.0 250.0,42.0 337.0,42.0" stroke="#4A4A4A" stroke-width="1.15" fill="none" opacity="1.0"/>
<path d="M 303.0,56.0 C 320.0,56.0 320.0,60.0 337.0,60.0" stroke="#4A4A4A" stroke-width="1.15" fill="none" opacity="1.0"/>
<path d="M 453.0,51.0 C 471.5,51.0 471.5,38.0 490.0,38.0" stroke="#4A4A4A" stroke-width="1.15" fill="none" opacity="1.0"/>
<path d="M 163.0,77.0 C 180.0,77.0 180.0,117.0 197.0,117.0" stroke="#4A4A4A" stroke-width="1.15" fill="none" opacity="1.0"/>
<path d="M 303.0,121.0 C 321.5,121.0 321.5,103.0 340.0,103.0" stroke="#4A4A4A" stroke-width="1.15" fill="none" opacity="1.0"/>
<path d="M 565.0,38.0 C 521.0,38.0 521.0,195.0 477.0,195.0" stroke="#4A4A4A" stroke-width="1.0" fill="none" opacity="1.0"/>
<path d="M 565.0,38.0 C 521.0,38.0 521.0,230.0 477.0,230.0" stroke="#4A4A4A" stroke-width="1.15" fill="none" opacity="1.0"/>
<path d="M 433.0,103.0 C 320.0,103.0 320.0,282.0 207.0,282.0" stroke="#4A4A4A" stroke-width="1.15" fill="none" opacity="1.0"/>
<path d="M 153.0,266.0 C 180.0,266.0 180.0,292.2 207.0,292.2" stroke="#4A4A4A" stroke-width="1.15" fill="none" opacity="1.0"/>
<path d="M 565.0,38.0 C 451.0,38.0 451.0,328.0 337.0,328.0" stroke="#4A4A4A" stroke-width="1.15" fill="none" opacity="1.0"/>
<path d="M 153.0,296.0 C 245.0,296.0 245.0,338.2 337.0,338.2" stroke="#4A4A4A" stroke-width="1.15" fill="none" opacity="1.0"/>
<path d="M 313.0,287.1 C 395.0,287.1 395.0,290.0 477.0,290.0" stroke="#4A4A4A" stroke-width="1.15" fill="none" opacity="1.0"/>
<path d="M 443.0,333.1 C 460.0,333.1 460.0,343.0 477.0,343.0" stroke="#4A4A4A" stroke-width="1.15" fill="none" opacity="1.0"/>
<path d="M 433.0,103.0 C 320.0,103.0 320.0,395.0 207.0,395.0" stroke="#4A4A4A" stroke-width="1.15" fill="none" opacity="1.0"/>
<path d="M 153.0,379.0 C 180.0,379.0 180.0,405.2 207.0,405.2" stroke="#4A4A4A" stroke-width="1.15" fill="none" opacity="1.0"/>
<path d="M 565.0,38.0 C 451.0,38.0 451.0,441.0 337.0,441.0" stroke="#4A4A4A" stroke-width="1.15" fill="none" opacity="1.0"/>
<path d="M 153.0,409.0 C 245.0,409.0 245.0,451.2 337.0,451.2" stroke="#4A4A4A" stroke-width="1.15" fill="none" opacity="1.0"/>
<path d="M 313.0,400.1 C 395.0,400.1 395.0,403.0 477.0,403.0" stroke="#4A4A4A" stroke-width="1.15" fill="none" opacity="1.0"/>
<path d="M 443.0,446.1 C 460.0,446.1 460.0,456.0 477.0,456.0" stroke="#4A4A4A" stroke-width="1.15" fill="none" opacity="1.0"/>
<path d="M 433.0,103.0 C 320.0,103.0 320.0,508.0 207.0,508.0" stroke="#4A4A4A" stroke-width="1.15" fill="none" opacity="1.0"/>
<path d="M 153.0,492.0 C 180.0,492.0 180.0,518.2 207.0,518.2" stroke="#4A4A4A" stroke-width="1.15" fill="none" opacity="1.0"/>
<path d="M 565.0,38.0 C 451.0,38.0 451.0,554.0 337.0,554.0" stroke="#4A4A4A" stroke-width="1.15" fill="none" opacity="1.0"/>
<path d="M 153.0,522.0 C 245.0,522.0 245.0,564.2 337.0,564.2" stroke="#4A4A4A" stroke-width="1.15" fill="none" opacity="1.0"/>
<path d="M 313.0,513.1 C 395.0,513.1 395.0,516.0 477.0,516.0" stroke="#4A4A4A" stroke-width="1.15" fill="none" opacity="1.0"/>
<path d="M 443.0,559.1 C 460.0,559.1 460.0,569.0 477.0,569.0" stroke="#4A4A4A" stroke-width="1.15" fill="none" opacity="1.0"/>
<path d="M 433.0,103.0 C 320.0,103.0 320.0,621.0 207.0,621.0" stroke="#4A4A4A" stroke-width="1.15" fill="none" opacity="1.0"/>
<path d="M 153.0,605.0 C 180.0,605.0 180.0,625.0 207.0,625.0" stroke="#4A4A4A" stroke-width="1.15" fill="none" opacity="1.0"/>
<path d="M 313.0,623.0 C 395.0,623.0 395.0,629.0 477.0,629.0" stroke="#4A4A4A" stroke-width="1.15" fill="none" opacity="1.0"/>
<path d="M 633.0,638.0 C 665.0,638.0 665.0,428.0 697.0,428.0" stroke="#4A4A4A" stroke-width="1.1" fill="none" opacity="1.0"/>
<path d="M 633.0,542.5 C 665.0,542.5 665.0,428.0 697.0,428.0" stroke="#4A4A4A" stroke-width="1.1" fill="none" opacity="1.0"/>
<path d="M 633.0,429.5 C 665.0,429.5 665.0,428.0 697.0,428.0" stroke="#4A4A4A" stroke-width="1.1" fill="none" opacity="1.0"/>
<path d="M 633.0,316.5 C 665.0,316.5 665.0,428.0 697.0,428.0" stroke="#4A4A4A" stroke-width="1.1" fill="none" opacity="1.0"/>
<path d="M 843.0,537.0 C 770.0,537.0 770.0,472.0 697.0,472.0" stroke="#4A4A4A" stroke-width="1.1" fill="none" opacity="1.0"/>
<path d="M 823.0,450.0 C 860.0,450.0 860.0,415.0 897.0,415.0" stroke="#4A4A4A" stroke-width="1.3" fill="none" opacity="1.0"/>
<path d="M 633.0,221.0 C 765.0,221.0 765.0,415.0 897.0,415.0" stroke="#4A4A4A" stroke-width="1.0" fill="none" opacity="0.85"/>
<path d="M 633.0,316.5 C 765.0,316.5 765.0,415.0 897.0,415.0" stroke="#4A4A4A" stroke-width="1.0" fill="none" opacity="0.85"/>
<path d="M 633.0,429.5 C 765.0,429.5 765.0,415.0 897.0,415.0" stroke="#4A4A4A" stroke-width="1.0" fill="none" opacity="0.85"/>
<path d="M 633.0,542.5 C 765.0,542.5 765.0,415.0 897.0,415.0" stroke="#4A4A4A" stroke-width="1.0" fill="none" opacity="0.85"/>
<path d="M 633.0,638.0 C 765.0,638.0 765.0,415.0 897.0,415.0" stroke="#4A4A4A" stroke-width="1.0" fill="none" opacity="0.85"/>
<path d="M 1043.0,435.0 C 1050.0,435.0 1050.0,410.0 1057.0,410.0" stroke="#4A4A4A" stroke-width="1.2" fill="none" opacity="1.0"/>
<path d="M 1033.0,546.0 C 1045.0,546.0 1045.0,443.0 1057.0,443.0" stroke="#4A4A4A" stroke-width="1.1" fill="none" opacity="1.0"/>
<path d="M 1203.0,425.0 C 1221.5,425.0 1221.5,425.0 1240.0,425.0" stroke="#4A4A4A" stroke-width="1.2" fill="none" opacity="1.0"/>
<rect x="1240" y="0" width="380" height="900" fill="#FFFFFF" stroke="#B0B0B0"/>
<text x="1250" y="24" font-family="Consolas, monospace" font-size="12" fill="#555">Front</text>
<path d="M 1335.0,363.0 C 1332.8,359.7 1325.3,356.3 1322.0,343.0 C 1318.7,329.7 1307.0,300.0 1315.0,283.0 C 1323.0,266.0 1350.8,248.5 1370.0,241.0 C 1389.2,233.5 1420.0,238.5 1430.0,238.0 C 1440.0,238.5 1470.8,233.5 1490.0,241.0 C 1509.2,248.5 1537.0,266.0 1545.0,283.0 C 1553.0,300.0 1541.3,329.7 1538.0,343.0 C 1534.7,356.3 1527.2,359.7 1525.0,363.0" fill="none" stroke="#222222" stroke-width="2.2"/>
<path d="M 1342.6,363.4 C 1340.6,360.4 1333.7,357.3 1330.6,345.0 C 1327.6,332.8 1316.8,305.5 1324.2,289.8 C 1331.6,274.2 1357.2,258.1 1374.8,251.2 C 1392.4,244.3 1420.8,248.9 1430.0,248.4 C 1439.2,248.9 1467.6,244.3 1485.2,251.2 C 1502.8,258.1 1528.4,274.2 1535.8,289.8 C 1543.2,305.5 1532.4,332.8 1529.4,345.0 C 1526.3,357.3 1519.4,360.4 1517.4,363.4" fill="none" stroke="#1f8a8a" stroke-width="1.6"/>
<circle cx="1430.0" cy="238.0" r="4.5" fill="#c0392b" stroke="#FFFFFF" stroke-width="1.2"/>
<text x="1430.0" y="224.0" text-anchor="middle" font-size="12" font-weight="700" fill="#c0392b">P0</text>
<circle cx="1490.0" cy="241.0" r="4.5" fill="#c0392b" stroke="#FFFFFF" stroke-width="1.2"/>
<text x="1500.0" y="231.0" text-anchor="start" font-size="12" font-weight="700" fill="#c0392b">P1</text>
<circle cx="1545.0" cy="283.0" r="4.5" fill="#c0392b" stroke="#FFFFFF" stroke-width="1.2"/>
<text x="1557.0" y="287.0" text-anchor="start" font-size="12" font-weight="700" fill="#c0392b">P2</text>
<circle cx="1538.0" cy="343.0" r="4.5" fill="#c0392b" stroke="#FFFFFF" stroke-width="1.2"/>
<text x="1550.0" y="347.0" text-anchor="start" font-size="12" font-weight="700" fill="#c0392b">P3</text>
<circle cx="1525.0" cy="363.0" r="4.5" fill="#c0392b" stroke="#FFFFFF" stroke-width="1.2"/>
<text x="1537.0" y="377.0" text-anchor="start" font-size="12" font-weight="700" fill="#c0392b">P4</text>
<line x1="1260" y1="363" x2="1600" y2="363" stroke="#D0D0D0" stroke-width="1"/>
<text x="1250" y="390" font-size="10.5" fill="#222">Đường đen: profile hoàn chỉnh (Kinky Curve, không Mirror đường cong)</text>
<text x="1250" y="406" font-size="10.5" fill="#1f8a8a">Đường xanh ngọc: Offset Curve (viền trong, tuỳ chọn)</text>
<text x="1250" y="426" font-size="10" fill="#c0392b">Chấm đỏ: vị trí P0..P4 (nửa bên phải)</text>

</svg>
